<svg xmlns="http://www.w3.org/2000/svg" xmlns:xlink="http://www.w3.org/1999/xlink" width="103.866" height="103.394" viewBox="0 0 103.866 103.394">
  <defs>
    <clipPath id="clip-path">
      <rect id="Rectangle_11" data-name="Rectangle 11" width="103.866" height="103.394" fill="none"/>
    </clipPath>
    <clipPath id="clip-path-3">
      <rect id="Rectangle_4" data-name="Rectangle 4" width="63.859" height="47.751" fill="none"/>
    </clipPath>
    <clipPath id="clip-path-4">
      <rect id="Rectangle_5" data-name="Rectangle 5" width="63.888" height="47.694" fill="none"/>
    </clipPath>
    <clipPath id="clip-path-5">
      <rect id="Rectangle_6" data-name="Rectangle 6" width="65.797" height="44.736" fill="none"/>
    </clipPath>
    <clipPath id="clip-path-6">
      <rect id="Rectangle_7" data-name="Rectangle 7" width="63.814" height="48.339" fill="none"/>
    </clipPath>
    <clipPath id="clip-path-7">
      <rect id="Rectangle_8" data-name="Rectangle 8" width="63.95" height="48.025" fill="none"/>
    </clipPath>
    <clipPath id="clip-path-8">
      <rect id="Rectangle_9" data-name="Rectangle 9" width="65.822" height="45.583" fill="none"/>
    </clipPath>
  </defs>
  <g id="Groupe_24" data-name="Groupe 24" clip-path="url(#clip-path)">
    <path id="Tracé_6" data-name="Tracé 6" d="M7.833,167.273h7.49v.737H10.014v4.335h4.763v.737H10.014v5.073H7.833Z" transform="translate(-4.419 -94.376)" fill="#00667f"/>
    <g id="Groupe_23" data-name="Groupe 23">
      <g id="Groupe_22" data-name="Groupe 22" clip-path="url(#clip-path)">
        <path id="Tracé_7" data-name="Tracé 7" d="M34.314,173.864H32.559v4.29H30.436V167.273h4.188c2.551,0,4.364.9,4.364,3.273a3.067,3.067,0,0,1-2.447,3.081l2.565,4.527H36.747Zm.192-.767c1.636,0,2.3-.649,2.3-2.566s-.678-2.522-2.359-2.522H32.559V173.1Z" transform="translate(-17.172 -94.376)" fill="#00667f"/>
        <path id="Tracé_8" data-name="Tracé 8" d="M58.3,167.273h1.947l4.025,10.881H61.983l-1.15-3.17H56.35l-1.135,3.17H54.36Zm-1.7,6.989h3.966l-1.99-5.485Z" transform="translate(-30.67 -94.376)" fill="#00667f"/>
        <path id="Tracé_9" data-name="Tracé 9" d="M77.472,167.273h9.039v.737H83.09v10.144H80.908V168.01H77.472Z" transform="translate(-43.71 -94.376)" fill="#00667f"/>
        <path id="Tracé_10" data-name="Tracé 10" d="M103.427,167.273h7.564v.737h-5.382V172.2h4.836v.737h-4.836v4.483h5.456v.737h-7.637Z" transform="translate(-58.354 -94.376)" fill="#00667f"/>
        <path id="Tracé_11" data-name="Tracé 11" d="M130.923,173.864h-1.755v4.29h-2.123V167.273h4.188c2.551,0,4.364.9,4.364,3.273a3.067,3.067,0,0,1-2.447,3.081l2.565,4.527h-2.359Zm.192-.767c1.636,0,2.3-.649,2.3-2.566s-.678-2.522-2.359-2.522h-1.887V173.1Z" transform="translate(-71.68 -94.376)" fill="#00667f"/>
        <path id="Tracé_12" data-name="Tracé 12" d="M153.941,170.133v8.021H153.1V167.273h1.327l6.37,7.711v-7.711h.84v10.881h-1.194Z" transform="translate(-86.38 -94.377)" fill="#00667f"/>
        <rect id="Rectangle_3" data-name="Rectangle 3" width="2.197" height="10.882" transform="translate(78.488 72.897)" fill="#00667f"/>
        <path id="Tracé_13" data-name="Tracé 13" d="M190.56,167.273H199.6v.737h-3.421v10.144H194V168.01H190.56Z" transform="translate(-107.515 -94.376)" fill="#00667f"/>
        <path id="Tracé_14" data-name="Tracé 14" d="M216.515,162.959h7.564v.737H218.7v4.188h4.836v.737H218.7V173.1h5.456v.737h-7.637Zm4.1-3.332h2.05l-2.006,2.669h-.708Z" transform="translate(-122.159 -90.062)" fill="#00667f"/>
        <path id="Tracé_15" data-name="Tracé 15" d="M83.883,217.964H79.134v-.213l.67-.183c.624-.168.715-.259.715-1.568v-6.347c0-1.309-.091-1.431-.715-1.568l-.67-.152v-.213c.974-.015,3.349-.107,4.977-.107,3.044,0,5.86,1.157,5.86,4.962,0,3.562-3.12,5.388-6.088,5.388m-.213-9.726c-.578,0-1.279.045-1.6.061v7.489c0,1.431.213,1.568.837,1.568H83.4c2.983,0,4.779-1.522,4.779-4.581,0-2.983-1.568-4.536-4.506-4.536" transform="translate(-44.648 -117.137)" fill="#00667f"/>
        <path id="Tracé_16" data-name="Tracé 16" d="M108.149,218.062v-.213l.669-.183c.624-.167.716-.259.716-1.568v-6.347c0-1.309-.091-1.4-.716-1.568l-.669-.183v-.213h7.184v2.024h-.244l-.183-.685c-.152-.563-.487-.716-2.192-.716h-1.629v3.912H112.7c1.4,0,1.613-.046,1.765-.579l.167-.563h.228v2.983h-.228l-.183-.639c-.152-.533-.35-.578-1.75-.578h-1.614v2.922c0,1.431.214,1.568.838,1.568H113.1c1.568,0,2.009-.244,2.314-.868l.334-.7.259.061-.457,2.131Z" transform="translate(-61.018 -117.235)" fill="#00667f"/>
        <path id="Tracé_17" data-name="Tracé 17" d="M139.926,218.062v-.213l.67-.183c.624-.167.746-.259.715-1.568l-.137-5.8c-.015-.548-.015-.959-.015-1.385h-.031c-.106.289-.3.821-.5,1.324l-3.09,7.823h-.578l-3.105-7.656c-.183-.472-.4-.974-.5-1.324h-.031c.015.137.015.7,0,1.385l-.061,3.5c-.061,3.181.106,3.516.761,3.683l.746.2v.213h-3.729v-.213l.67-.183c.594-.167.67-.487.715-2.938l.107-4.977c.031-1.293-.244-1.4-.867-1.568l-.716-.183v-.213h3.47l2.633,6.727a8.788,8.788,0,0,1,.5,1.552h.031a12.354,12.354,0,0,1,.578-1.568l2.679-6.712h3.227V208l-.67.183c-.624.167-.746.259-.715,1.568l.152,6.347c.03,1.309.091,1.4.716,1.568l.669.183v.213Z" transform="translate(-73.881 -117.235)" fill="#00667f"/>
        <path id="Tracé_18" data-name="Tracé 18" d="M171.152,217.885v-.213l.669-.183c.624-.168.777-.35.32-1.568l-.639-1.735h-3.79l-.4,1c-.731,1.857-.609,2.1.076,2.3l.639.183v.213H164.5v-.213l.426-.153c.594-.213.715-.38,1.37-1.933l2.938-7a.97.97,0,0,0,0-1.05l.031-.061h1.294l3.257,8.447c.487,1.263.639,1.385,1.233,1.6l.426.153v.213Zm-1.02-7.443c-.213-.594-.381-1.111-.426-1.309h-.031c-.061.228-.258.761-.472,1.309l-1.233,3.105h3.3Z" transform="translate(-92.812 -117.058)" fill="#00667f"/>
        <path id="Tracé_19" data-name="Tracé 19" d="M192.921,218.062v-.213l.669-.183c.624-.167.716-.259.716-1.568v-6.347c0-1.309-.091-1.4-.716-1.568l-.669-.183v-.213h4.323V208l-.67.183c-.624.167-.716.259-.716,1.568V216.1c0,1.309.092,1.4.716,1.568l.67.183v.213Z" transform="translate(-108.847 -117.235)" fill="#00667f"/>
        <path id="Tracé_20" data-name="Tracé 20" d="M216.519,218.244l-5.921-7.489a7.586,7.586,0,0,1-.9-1.263h-.03c0,.182.015.624.015.913v3.561c0,3.257.2,3.531.868,3.683l.9.2v.213h-3.973v-.213l.669-.183c.594-.167.7-.487.7-2.937v-4.977c0-1.309-.244-1.431-.868-1.568l-.821-.183v-.213h3.166l5.16,6.636a6.332,6.332,0,0,1,.9,1.339h.031c0-.38-.016-.913-.016-1.1v-2.785c0-3.257-.2-3.531-.867-3.683l-.9-.2v-.213H218.6V208l-.67.183c-.593.167-.7.487-.7,2.938v7.123Z" transform="translate(-116.88 -117.235)" fill="#00667f"/>
        <path id="Tracé_21" data-name="Tracé 21" d="M3.357,218.877a2.743,2.743,0,0,1-.663-.084L2.328,220.6c-.2.945-.085,1,.353,1.1l.705.169-.014.155H0l.014-.155.508-.126c.48-.113.564-.2.762-1.143l1.707-7.971a8.077,8.077,0,0,0-1.524.8l-.17-.324a7.2,7.2,0,0,1,1.778-.889l.381-1.806.974-.155.085.042-.38,1.749a4.787,4.787,0,0,1,.776-.056,2.2,2.2,0,0,1,2.5,2.243c0,2.257-1.877,4.641-4.049,4.641m1.284-6.461a3.984,3.984,0,0,0-.579.027l-1.185,5.531a1.618,1.618,0,0,0,.931.31c1.636,0,2.44-2.1,2.44-3.838,0-1.072-.522-2.031-1.608-2.031" transform="translate(0 -118.629)" fill="#6f5a48"/>
        <path id="Tracé_22" data-name="Tracé 22" d="M19.36,218.711c0-2.1,1.425-4.8,3.626-4.8,1.425,0,2.017,1.059,2.017,2.47,0,2.074-1.51,4.725-3.668,4.725-1.3,0-1.975-.916-1.975-2.4m4.43-2.384c0-.818-.1-2.018-1.058-2.018-1.609,0-2.158,3.118-2.158,4.43,0,1.143.268,1.975.974,1.975,1.636,0,2.243-3.061,2.243-4.387" transform="translate(-10.923 -120.692)" fill="#6f5a48"/>
        <path id="Tracé_23" data-name="Tracé 23" d="M35.207,220.03a6.183,6.183,0,0,1,.226-1.34l.691-2.962c.127-.537.127-.974-.324-.974a2.024,2.024,0,0,0-.818.339l-.112-.2a3.908,3.908,0,0,1,1.735-.818c.931,0,.776.818.621,1.467L36.5,218.6c-.127.565-.381,1.637.508,1.637a2.513,2.513,0,0,0,1.425-.861,2.862,2.862,0,0,0,.974-1.764l.719-3.3h1.044l-1.1,5.107c-.113.494-.113.974.338.974a2.027,2.027,0,0,0,.818-.338l.113.2a3.906,3.906,0,0,1-1.735.818c-.931,0-.593-1.228-.55-1.467l.1-.509h-.028c-1.072,1.312-2.074,2.046-2.906,2.046a.988.988,0,0,1-1.016-1.114" transform="translate(-19.673 -120.783)" fill="#6f5a48"/>
        <path id="Tracé_24" data-name="Tracé 24" d="M53.811,216.214c.113-.508.339-1.5-.367-1.5a2.027,2.027,0,0,0-.818.338l-.113-.2a3.913,3.913,0,0,1,1.735-.818c.931,0,.747,1.1.677,1.467l-.113.579h.028c1-1.327,1.538-2.074,2.243-2.074a.667.667,0,0,1,.677.705.96.96,0,0,1-.465.846h-.141a.76.76,0,0,0-.621-.409,1.446,1.446,0,0,0-.988.565,4.343,4.343,0,0,0-1.114,2.427l-.593,2.765H52.795Z" transform="translate(-29.628 -120.747)" fill="#6f5a48"/>
        <g id="Groupe_6" data-name="Groupe 6" transform="translate(38.109 13.024)" opacity="0.8">
          <g id="Groupe_5" data-name="Groupe 5">
            <g id="Groupe_4" data-name="Groupe 4" clip-path="url(#clip-path-3)">
              <path id="Tracé_25" data-name="Tracé 25" d="M115.085,75.533a42.556,42.556,0,0,0,7,1.446,39.41,39.41,0,0,0,6.851.237,35.8,35.8,0,0,0,5.172-.654A28.926,28.926,0,0,0,139,75.124a22.031,22.031,0,0,0,4.539-2.415,17.542,17.542,0,0,0,3.861-3.685,15.008,15.008,0,0,0,3.015-9.9c-.013-.224-.009-.45-.035-.674s-.048-.451-.072-.677c-.013-.113-.023-.227-.038-.339l-.058-.339q-.058-.339-.117-.68c-.044-.226-.1-.451-.156-.677l-.08-.34-.04-.17-.05-.168-.2-.674c-.035-.112-.064-.227-.1-.337l-.121-.334a24.637,24.637,0,0,0-2.589-5.184,34.51,34.51,0,0,0-8.446-8.722c-.089-.068-.2-.155-.326-.247l-.422-.3c-.3-.21-.63-.451-.944-.648-.625-.4-1.137-.7-1.058-.592a46.092,46.092,0,0,0-10.849-4.982,44.535,44.535,0,0,0-5.741-1.384,40.422,40.422,0,0,0-5.844-.563,43.724,43.724,0,0,0-4.987.15,29.785,29.785,0,0,0-4.915.846,32.334,32.334,0,0,0-3.766,1.285A23.946,23.946,0,0,0,95.957,35.2l-.411.269c-.137.09-.276.176-.405.277l-.789.584-.75.63c-.128.1-.243.217-.361.33l-.353.338A16.09,16.09,0,0,0,90.46,40.67a14.327,14.327,0,0,0-.673,1.322c-.246.5-.412,1.011-.532,1.287a14.452,14.452,0,0,0-1.008,5.131,17.329,17.329,0,0,0,.686,5.067A22.287,22.287,0,0,0,90.9,58.131,29.071,29.071,0,0,0,93.749,62.3c.43.508.825.995,1.243,1.435.207.222.4.448.61.657l.619.624c.2.21.414.408.629.606l.643.6.679.593c.23.2.462.407.713.6a4.457,4.457,0,0,1,.488.347l.354.278c.129.1.271.2.417.3l.882.663.649.457c.236.163.482.349.756.522,1.075.726,2.413,1.528,3.756,2.263.682.346,1.347.711,2,1.006l.936.442.864.375c.539.243,1.016.425,1.382.572s.622.252.736.3c.056.025-.213-.073-.727-.262-.256-.1-.577-.209-.943-.354l-1.233-.508c-.453-.191-.937-.421-1.455-.654s-1.049-.517-1.608-.791c-1.1-.587-2.268-1.231-3.387-1.958-1.133-.707-2.213-1.494-3.205-2.251-.979-.775-1.87-1.524-2.589-2.205l-.518-.484c-.165-.153-.309-.309-.451-.448-.278-.284-.527-.523-.716-.728-.378-.411-.583-.628-.556-.589s.216.249.5.564c.138.161.318.336.515.54s.416.432.661.672a38.983,38.983,0,0,0,3.791,3.231,42.531,42.531,0,0,0,4.276,2.816c.312.191.619.344.892.5l.738.4.887.448a43.737,43.737,0,0,1-7.448-4.547,38.094,38.094,0,0,1-5.207-4.809,30.215,30.215,0,0,1-3.3-4.482c-.2-.352-.4-.686-.58-1.016l-.494-.966c-.288-.632-.56-1.212-.759-1.763a19.128,19.128,0,0,1-1.171-4.467c-.105-.789-.123-.891-.075-.468.026.211.06.554.125,1,.09.446.168,1.009.344,1.642a21.8,21.8,0,0,0,1.71,4.519,28.191,28.191,0,0,0,3.268,5,35.118,35.118,0,0,0,4.284,4.372c.23.2.47.415.728.632l.831.664c.287.236.606.458.931.7l.5.368c.172.123.353.241.535.366a46.629,46.629,0,0,0,5.318,3.135l-.5-.244-.547-.285c-.378-.2-.792-.4-1.2-.641l-.633-.356c-.214-.119-.43-.241-.64-.373-.422-.262-.856-.511-1.263-.78s-.809-.527-1.18-.785l-1.028-.735c-.614-.468-1.1-.843-1.358-1.061l-.831-.708c-.13-.108-.252-.217-.367-.324l-.336-.308c-.215-.2-.42-.38-.6-.557l-.512-.506-.456-.45-.4-.426c-.254-.276-.5-.524-.733-.8s-.473-.55-.731-.86-.519-.665-.825-1.07a28.118,28.118,0,0,1-2.156-3.475,22.9,22.9,0,0,1-1.848-4.708q-.085-.338-.172-.681l-.043-.172-.033-.175-.067-.351c-.042-.235-.094-.47-.129-.709l-.09-.722-.045-.363-.022-.366-.043-.734c0-.245,0-.491,0-.736s0-.491.025-.736A15.94,15.94,0,0,1,89.066,42.1a16.469,16.469,0,0,1,2.462-3.91c-.111.122-.212.272-.328.424l-.364.49-.1.131-.09.141-.187.291c-.125.2-.264.4-.39.62A17.64,17.64,0,0,0,88.7,43.3a18.054,18.054,0,0,0-.757,3.449c-.041.577-.1,1.138-.092,1.679-.021.54.02,1.055.04,1.535a17.22,17.22,0,0,1,1.725-8.7,16.252,16.252,0,0,1,2.175-3.245,18.16,18.16,0,0,1,4.094-3.475c.347-.215.73-.434,1.13-.676l.635-.337c.218-.112.435-.241.669-.344l.665-.292c.111-.048.221-.1.333-.145l.345-.131.716-.272c.247-.094.51-.17.784-.262a31.856,31.856,0,0,1,5.1-1.242,36.592,36.592,0,0,1,5.046-.452,41.72,41.72,0,0,1,10.141,1.064c-.3-.064-.536-.132-.777-.2s-.486-.119-.79-.18c-.744-.163-1.484-.27-2.213-.389-.365-.053-.73-.092-1.091-.137l-.542-.064-.541-.045-1.077-.084-1.074-.044c-.357-.02-.715-.017-1.072-.017h-.536c-.179,0-.358,0-.537.009a35.5,35.5,0,0,0-8.895,1.324,25.226,25.226,0,0,0-3.985,1.559,26.057,26.057,0,0,0-3.335,1.894,20.491,20.491,0,0,0-2.86,2.377,19.544,19.544,0,0,1,2.951-2.535,21.772,21.772,0,0,1,3.56-2.011c.315-.142.628-.291.953-.412s.644-.259.97-.376l.985-.335c.328-.111.664-.2.994-.3a31.246,31.246,0,0,1,4-.852c.547-.1,1.155-.166,1.732-.25.288-.046.57-.065.834-.1l.723-.075-.926.064c-.154.012-.309.019-.463.035l-.462.051-.925.1-.922.139-.461.071-.459.089-.917.18-.911.219c-.152.037-.3.071-.455.112l-.451.13-.795.232-.8.274-.4.139c-.135.048-.266.1-.4.157l-.805.322c-.267.116-.532.242-.8.364l-.4.185-.395.206c-.263.139-.529.275-.791.419l-.774.462c-.262.148-.508.326-.76.494s-.506.333-.743.525l-.723.555-.689.6c-.235.193-.443.416-.661.627l-.323.319c-.11.1-.2.224-.306.335-.2.227-.405.448-.6.68l-.55.711a4.346,4.346,0,0,0-.259.364l-.247.37L90,40.115l-.22.382-.217.38c-.071.127-.148.25-.207.383l-.372.777a3.949,3.949,0,0,0-.167.391l-.154.393-.153.39c-.052.129-.085.264-.129.394l-.243.78-.184.779-.089.383q-.031.193-.062.384l-.122.751q-.034.374-.068.736c-.011.121-.022.241-.034.36s-.008.238-.013.355c-.011.469-.034.923,0,1.357q.012.326.023.638c.014.207.038.409.055.607s.043.373.111.746c.012.094.032.223.056.367.1.608.263,1.262.43,1.929.1.329.2.662.294.992s.224.647.33.962l-.293-.8c-.089-.268-.167-.54-.251-.811l-.124-.406-.1-.413c-.065-.276-.136-.55-.2-.827-.1-.544-.235-1.089-.293-1.653-.018-.14-.037-.281-.055-.421l-.027-.211-.014-.213q-.027-.428-.054-.858a17.142,17.142,0,0,1,.254-3.493,16.931,16.931,0,0,1,1.044-3.434,17.461,17.461,0,0,1,1.822-3.16,18.691,18.691,0,0,1,2.484-2.708l.7-.6c.239-.193.489-.371.732-.558.124-.09.243-.188.37-.273l.383-.255.383-.255.192-.127.2-.116.791-.465c.266-.15.54-.283.81-.425l.407-.21.415-.189c.278-.124.552-.255.831-.373.565-.221,1.123-.459,1.7-.644.286-.095.568-.2.857-.286l.864-.254c.253-.081.533-.144.828-.216s.605-.151.93-.213l1-.187c.17-.034.343-.059.516-.083l.523-.074.522-.074c.174-.022.348-.036.52-.055l1.011-.1.949-.064.44-.032.412-.018a37.581,37.581,0,0,1,4.7.057,40.547,40.547,0,0,1,4.711.609,46.206,46.206,0,0,1,9.053,2.683l.968.414.484.207.476.223.953.447.937.478c.629.31,1.233.668,1.847,1,.3.173.6.36.9.54s.6.359.892.555l.879.575c.291.195.574.4.86.6.578.395,1.123.836,1.682,1.256l.811.666.4.334.392.349c.26.234.526.461.78.7l.756.727c.257.238.489.5.734.748s.487.5.714.767l.694.785.661.812A30.681,30.681,0,0,1,148,49.169a22.59,22.59,0,0,1,2.9,7.792,16.4,16.4,0,0,1-.7,8.2,15.821,15.821,0,0,1-1.9,3.658,17.192,17.192,0,0,1-2.742,3.054,19.747,19.747,0,0,1-3.345,2.351l-.444.252c-.15.08-.3.153-.455.23l-.457.228-.228.114-.234.1-.935.407-.953.36a30.064,30.064,0,0,1-3.909,1.1c-.33.071-.665.124-1,.187l-.5.089-.5.069c-.335.044-.668.1-1,.132l-1.007.1c-.249.033-.5.046-.75.065l-.747.054.645-.015-.705.036c-.235.011-.47.007-.7.012a37.3,37.3,0,0,1-8.158-.6c-.543-.1-.06-.027.664.081l.576.087c.2.026.4.046.595.068.386.042.734.077.945.092l-1.214-.154.236-.017c-.234-.023-.419-.045-.585-.077l-.477-.1.556.085.558.064c.373.041.744.092,1.118.123l1.122.089c.374.033.75.036,1.124.056a36.753,36.753,0,0,0,4.505-.085,34.88,34.88,0,0,0,4.466-.642,29.425,29.425,0,0,0,4.325-1.29c-.167.046-.391.134-.657.214s-.564.178-.867.277c-.151.052-.305.1-.458.139l-.445.126c-.286.078-.543.161-.751.2a30.544,30.544,0,0,1-5.733.931,35.652,35.652,0,0,1-3.835.088l-.963-.048-.482-.025-.48-.043-.96-.086-.955-.119c-.638-.071-1.267-.189-1.9-.288-.315-.046-.625-.119-.937-.179s-.622-.122-.93-.189c-1.231-.283-2.442-.586-3.613-.947l-.645-.208-.321-.1-.316-.115L112.2,74.7c-.258-.1-.315-.133-.226-.113s.321.091.637.186.718.224,1.148.365.9.264,1.33.4m19.033-39.147a43.761,43.761,0,0,1,4.211,2.8l.72.547c.238.183.482.361.713.557l.9.733.926.8a36.495,36.495,0,0,1,3.332,3.489c.251.314.51.621.754.94l.717.968.674,1c.22.336.421.684.632,1.025a28.166,28.166,0,0,0-2.844-4.109,33.553,33.553,0,0,0-3.958-4.018,33.628,33.628,0,0,1,5.226,5.557c.379.489.711,1.008,1.056,1.514.167.256.32.521.48.78l.237.39c.075.132.146.266.219.4l.431.8.39.814c.136.268.245.547.361.823l.172.414.085.207.075.211.3.842c.092.282.169.57.253.853.04.143.085.284.121.428l.1.433.1.432.049.216c.015.072.025.146.037.218l.143.873c.04.292.061.586.092.879.012.146.035.292.037.439l.015.441c.007.294.03.587.01.882l-.033.881-.092.878-.024.219-.039.217-.077.435-.078.435-.108.429-.109.429-.054.214c-.019.071-.045.141-.068.211l-.281.842a16.56,16.56,0,0,1-.722,1.629,15.933,15.933,0,0,1-2.457,3.58,18.581,18.581,0,0,1-3.351,2.889l-.658.435c-.222.139-.451.266-.675.4-.444.275-.915.5-1.372.739-.228.121-.469.218-.7.328s-.466.221-.706.313l-.716.284c-.119.047-.237.1-.357.14l-.363.124a24.541,24.541,0,0,0,4.4-1.962,19.582,19.582,0,0,0,3.851-2.869,16.367,16.367,0,0,0,2.939-3.793,15.252,15.252,0,0,0,1.652-4.516,16.49,16.49,0,0,0,.213-4.82,19.8,19.8,0,0,0-1.087-4.721,27.634,27.634,0,0,0-4.939-8.341,36.784,36.784,0,0,0-3.411-3.5c-.6-.552-1.235-1.066-1.867-1.583l-.973-.744c-.324-.249-.664-.476-1-.716A45.239,45.239,0,0,0,129,33.734a47.246,47.246,0,0,0-9.489-2.824,45.015,45.015,0,0,0-4.955-.63,41.126,41.126,0,0,0-5.025-.019,42.949,42.949,0,0,1,12.737,1.33,47.8,47.8,0,0,1,6.061,1.988,46.446,46.446,0,0,1,5.788,2.807m-2.822-1.38-1.171-.541-1.185-.5c-.392-.172-.8-.314-1.194-.467s-.8-.306-1.2-.437a45.1,45.1,0,0,0-4.876-1.4,44.411,44.411,0,0,0-6.861-1.044,37.364,37.364,0,0,0-6.8.112,31.536,31.536,0,0,0-6.066,1.249,23.6,23.6,0,0,0-4.7,2.037,26.906,26.906,0,0,1,5.649-2.265,32.621,32.621,0,0,1,6.111-1.066,41.685,41.685,0,0,1,12.661.978c-2-.466-3.165-.615-3.586-.682s-.109-.015.8.126c.453.072,1.05.2,1.779.333.723.167,1.579.345,2.533.611a49.309,49.309,0,0,1,6.766,2.359c.237.091.728.324,1.337.6" transform="translate(-87.447 -30.025)" fill="#6f5a48"/>
              <path id="Tracé_26" data-name="Tracé 26" d="M195.33,77.92a27.74,27.74,0,0,1-10.754,3.457l1.047-.109c.344-.044.685-.1,1.035-.15s.7-.121,1.076-.195l.571-.115c.195-.043.393-.1.6-.148a25.223,25.223,0,0,0,3.35-1.1,23.925,23.925,0,0,0,3.272-1.657,20.422,20.422,0,0,0,2.973-2.237,16.862,16.862,0,0,0,2.444-2.76,15.937,15.937,0,0,0,2.3-4.73,16.5,16.5,0,0,0,.6-5.3,19.01,19.01,0,0,0-1.024-5.295,24.892,24.892,0,0,0-2.322-4.915,33.841,33.841,0,0,0-7.217-8.231,43.427,43.427,0,0,0-9.378-5.938c-.661-.321-2.146-.989-3.3-1.393a47.489,47.489,0,0,1,6.326,3,41.979,41.979,0,0,1,5.717,3.891,37.905,37.905,0,0,1,4.923,4.761,30.415,30.415,0,0,1,3.809,5.634,22.007,22.007,0,0,1,2.165,6.411l.071.418c.022.139.032.281.049.421.028.282.062.562.086.843.019.566.061,1.13.027,1.695,0,.566-.075,1.127-.127,1.689-.043.279-.095.557-.142.835-.027.139-.042.279-.078.416l-.1.411-.1.411-.051.205-.065.2-.265.8c-.092.266-.21.523-.315.784l-.162.39-.189.377a15.355,15.355,0,0,1-1.8,2.847c-.178.217-.352.438-.533.652l-.574.616c-.185.211-.4.394-.6.589s-.4.391-.624.563l-.648.535c-.221.172-.451.332-.677.5l-.34.247-.353.227c-.237.15-.47.305-.709.45" transform="translate(-140.009 -33.957)" fill="#6f5a48"/>
              <path id="Tracé_27" data-name="Tracé 27" d="M116.364,30.62a33.3,33.3,0,0,0-3.963,1.154,28.677,28.677,0,0,0-3.684,1.682,29.9,29.9,0,0,1,3.731-1.639,32.825,32.825,0,0,1,4.078-1.132,37.44,37.44,0,0,1,10.959-.607,36.565,36.565,0,0,0-11.121.541" transform="translate(-99.448 -29.886)" fill="#6f5a48"/>
              <path id="Tracé_28" data-name="Tracé 28" d="M164.345,33.28c-.351-.132-.7-.275-1.054-.4l-1.073-.371a47.539,47.539,0,0,0-5.1-1.395,45.157,45.157,0,0,0-5.336-.786,44.969,44.969,0,0,1,5.644.917c.462.113.927.214,1.387.337l1.377.378,1.365.425c.456.14.9.31,1.356.465,0-.024.162.01.42.082s.61.2,1.013.346" transform="translate(-123.745 -30.136)" fill="#6f5a48"/>
            </g>
          </g>
        </g>
        <g id="Groupe_9" data-name="Groupe 9" transform="translate(38.054)" opacity="0.8">
          <g id="Groupe_8" data-name="Groupe 8">
            <g id="Groupe_7" data-name="Groupe 7" clip-path="url(#clip-path-4)">
              <path id="Tracé_29" data-name="Tracé 29" d="M129.265,43.568a42.468,42.468,0,0,0,6.37-3.239,39.4,39.4,0,0,0,5.5-4.091,35.79,35.79,0,0,0,3.631-3.74,28.883,28.883,0,0,0,2.924-4.177A21.979,21.979,0,0,0,149.73,23.6a17.538,17.538,0,0,0,.716-5.289,15.008,15.008,0,0,0-3.827-9.618c-.149-.167-.288-.345-.448-.5l-.479-.483c-.081-.08-.159-.163-.242-.241l-.257-.228-.516-.458c-.176-.149-.363-.287-.544-.432l-.275-.215-.138-.108-.144-.1-.579-.4c-.1-.066-.192-.137-.292-.2l-.3-.185a24.646,24.646,0,0,0-5.259-2.434A34.53,34.53,0,0,0,125.1,1.165c-.112,0-.251,0-.408.011l-.516.031c-.368.026-.774.041-1.141.083-.736.081-1.327.16-1.2.2a46.1,46.1,0,0,0-11.585,2.881,44.5,44.5,0,0,0-5.348,2.5,40.429,40.429,0,0,0-4.917,3.208,43.685,43.685,0,0,0-3.8,3.231,29.749,29.749,0,0,0-3.312,3.73,32.437,32.437,0,0,0-2.14,3.355A23.946,23.946,0,0,0,89.145,24l-.154.467c-.051.156-.106.31-.144.47l-.252.948-.193.96c-.037.16-.054.322-.076.483l-.065.485a16.073,16.073,0,0,0,0,3.891,14.141,14.141,0,0,0,.3,1.453c.118.542.309,1.047.388,1.337a14.446,14.446,0,0,0,2.416,4.637,17.336,17.336,0,0,0,3.7,3.529,22.31,22.31,0,0,0,4.442,2.408,29.077,29.077,0,0,0,4.829,1.48c.653.128,1.265.263,1.867.345.3.044.593.1.887.132l.873.1c.288.038.578.06.869.081l.878.069.9.039c.305.013.615.03.934.027a4.414,4.414,0,0,1,.6-.034l.45,0c.163,0,.336-.014.516-.023l1.1-.033.792-.048c.286-.02.594-.029.916-.065,1.293-.1,2.839-.312,4.347-.577.749-.156,1.5-.285,2.19-.462l1.007-.239.909-.247c.573-.146,1.059-.3,1.437-.415s.644-.192.764-.223c.06-.016-.212.076-.732.249-.26.084-.58.2-.957.312l-1.28.373c-.473.133-.995.255-1.545.4s-1.142.251-1.75.386c-1.225.227-2.54.454-3.869.585-1.326.155-2.661.214-3.909.243-1.249.005-2.413-.023-3.4-.107l-.707-.054c-.224-.017-.434-.048-.632-.069-.395-.048-.738-.079-1.014-.121-.552-.085-.848-.127-.8-.113s.324.059.742.129c.208.04.458.064.74.1s.594.077.936.112a38.931,38.931,0,0,0,4.978.157,42.44,42.44,0,0,0,5.1-.47c.363-.045.7-.118,1.007-.168l.828-.146.973-.2a43.729,43.729,0,0,1-8.657,1.1,38.113,38.113,0,0,1-7.069-.506,30.223,30.223,0,0,1-5.379-1.44c-.376-.15-.741-.286-1.087-.432l-.989-.446c-.62-.314-1.194-.6-1.693-.9a19.129,19.129,0,0,1-3.7-2.758c-.575-.551-.652-.619-.351-.319.153.149.393.4.725.707.349.292.76.683,1.293,1.067A21.793,21.793,0,0,0,98.528,45.1a28.189,28.189,0,0,0,5.675,1.867,35.126,35.126,0,0,0,6.076.741c.305.014.626.031.964.039h1.064c.372.006.76-.02,1.165-.034l.621-.026c.211-.012.427-.032.646-.048a46.6,46.6,0,0,0,6.112-.871l-.546.124-.605.118c-.421.079-.869.181-1.341.25l-.716.117c-.242.041-.486.081-.733.109-.493.059-.988.136-1.474.179s-.961.093-1.412.124l-1.262.068c-.772.017-1.385.027-1.723.019l-1.091-.034c-.169,0-.332-.012-.489-.024L109,47.784c-.292-.021-.565-.035-.819-.058l-.716-.075-.637-.067-.578-.084c-.37-.058-.722-.094-1.073-.168s-.713-.134-1.108-.215-.821-.2-1.313-.321a28.052,28.052,0,0,1-3.853-1.368A22.891,22.891,0,0,1,94.524,42.9l-.56-.425-.141-.107-.135-.116-.271-.233c-.18-.158-.367-.309-.543-.474l-.521-.507-.261-.255-.245-.272-.492-.546c-.157-.189-.305-.385-.458-.577s-.308-.383-.44-.591a15.93,15.93,0,0,1-2.39-5.108,16.472,16.472,0,0,1-.517-4.592c-.011.165,0,.345.009.536s.014.4.021.61c0,.054,0,.108.006.163s.012.11.017.166l.036.344c.027.234.044.478.082.728a17.673,17.673,0,0,0,.809,3.216,18.046,18.046,0,0,0,1.561,3.167c.328.475.631.952.977,1.368.321.435.674.811.989,1.174A17.238,17.238,0,0,1,87.971,32.7a16.269,16.269,0,0,1-.326-3.893,18.153,18.153,0,0,1,1.029-5.27c.136-.385.3-.795.46-1.233l.286-.66c.1-.224.19-.46.308-.686l.337-.643c.057-.107.112-.215.17-.322l.187-.318.39-.66c.134-.227.292-.451.448-.694a31.852,31.852,0,0,1,3.208-4.152,36.513,36.513,0,0,1,3.661-3.5,41.7,41.7,0,0,1,8.586-5.5c-.272.134-.5.231-.73.33s-.455.21-.73.352c-.683.337-1.328.716-1.971,1.078-.318.187-.627.384-.938.574l-.464.288-.451.3-.893.606-.867.636c-.291.207-.569.433-.848.656l-.42.334c-.141.11-.279.223-.414.342a35.509,35.509,0,0,0-6.122,6.587,25.216,25.216,0,0,0-2.14,3.706,26.054,26.054,0,0,0-1.423,3.562,20.506,20.506,0,0,0-.75,3.642,19.553,19.553,0,0,1,.723-3.823A21.815,21.815,0,0,1,89.8,20.541c.157-.308.309-.62.488-.916s.341-.6.523-.9l.56-.876c.187-.292.4-.567.593-.852a31.273,31.273,0,0,1,2.59-3.16c.367-.418.8-.851,1.2-1.276.2-.215.4-.407.592-.595l.518-.51-.683.628c-.113.105-.23.207-.34.316l-.329.328-.658.658-.633.684-.316.343-.3.356-.6.713-.575.74c-.1.124-.194.245-.286.372l-.271.383-.476.677-.452.712-.228.36c-.075.122-.143.248-.214.373l-.428.755c-.136.257-.264.521-.4.784l-.2.4-.18.407c-.118.272-.241.544-.356.821l-.316.845c-.112.279-.193.572-.285.86s-.187.576-.253.873l-.218.885-.165.9c-.063.3-.086.6-.125.9l-.053.451c-.021.15-.02.3-.031.453-.014.3-.037.6-.041.9s.009.6.014.9a4.355,4.355,0,0,0,.025.446l.038.444c.013.147.025.294.037.441s.045.291.067.435l.068.432c.024.143.04.288.077.428l.194.839a4.11,4.11,0,0,0,.114.41q.062.2.125.4l.124.4c.04.133.1.259.146.388l.3.762.343.723.169.355.191.338.374.663.407.617.2.3c.065.1.142.19.211.285.284.373.55.742.843,1.063l.416.484c.141.153.285.3.422.439.139.128.267.265.553.513.068.066.164.154.272.252.455.415.993.822,1.54,1.239l.849.591c.285.192.579.365.859.546l-.726-.439c-.237-.153-.468-.318-.7-.476l-.35-.24-.337-.259c-.223-.175-.45-.344-.67-.523-.421-.36-.864-.7-1.261-1.108l-.306-.295-.153-.148-.144-.158-.577-.637A17.153,17.153,0,0,1,89.208,37.3a16.968,16.968,0,0,1-1.328-3.334,17.48,17.48,0,0,1-.55-3.606,18.733,18.733,0,0,1,.251-3.666l.174-.9c.067-.3.149-.6.224-.893.04-.148.072-.3.119-.445l.14-.438.14-.438.07-.219.082-.214.328-.857c.114-.283.245-.559.367-.838l.186-.417.207-.407c.139-.27.271-.544.417-.811.3-.525.59-1.06.924-1.562.165-.253.317-.513.491-.759l.516-.737c.147-.222.326-.446.512-.686s.379-.5.594-.747l.665-.771c.112-.133.231-.261.352-.387l.362-.383.362-.383c.122-.126.249-.245.372-.367l.726-.712.7-.642.323-.3.31-.271a37.571,37.571,0,0,1,3.709-2.89,40.389,40.389,0,0,1,4.061-2.465,46.193,46.193,0,0,1,8.747-3.555l1.015-.282.507-.14.512-.123,1.023-.246,1.031-.211c.685-.151,1.38-.248,2.07-.368.346-.054.695-.094,1.042-.141s.694-.1,1.043-.123l1.046-.1c.349-.03.7-.044,1.048-.066.7-.053,1.4-.048,2.1-.068l1.049.014.524.009.524.027c.35.021.7.032,1.047.061l1.044.1c.349.025.694.085,1.041.126s.693.087,1.037.153l1.032.18,1.024.222a30.578,30.578,0,0,1,4.005,1.21A22.589,22.589,0,0,1,145.652,6.7a16.408,16.408,0,0,1,4.578,6.845,15.841,15.841,0,0,1,.8,4.045,17.214,17.214,0,0,1-.236,4.1,19.747,19.747,0,0,1-1.146,3.924l-.189.475c-.067.156-.142.309-.212.464l-.214.463-.107.231-.119.226-.476.9-.519.876a30.084,30.084,0,0,1-2.367,3.3c-.214.262-.442.512-.662.768l-.334.381-.349.367c-.234.243-.46.494-.7.73l-.726.7c-.174.181-.363.348-.546.519l-.55.509.495-.415-.529.468c-.176.156-.363.3-.542.449a37.3,37.3,0,0,1-6.75,4.621c-.487.26-.064.016.569-.351l.5-.292c.172-.1.343-.215.507-.319.328-.208.621-.4.8-.518l-1.044.638.173-.161c-.2.128-.355.227-.506.305l-.434.221.487-.281.477-.3c.316-.2.638-.393.95-.6l.932-.631c.313-.207.608-.44.913-.658a36.809,36.809,0,0,0,3.466-2.879,34.985,34.985,0,0,0,3.088-3.29,29.5,29.5,0,0,0,2.573-3.708c-.1.14-.222.349-.379.577s-.329.491-.5.758c-.085.135-.177.267-.271.394l-.269.375c-.175.24-.324.465-.461.628a30.518,30.518,0,0,1-3.9,4.307,35.6,35.6,0,0,1-2.941,2.463l-.783.563-.392.281-.4.267-.8.533-.821.5c-.542.343-1.107.644-1.661.959-.275.161-.563.3-.843.445s-.562.293-.845.433c-1.138.547-2.274,1.066-3.414,1.515l-.634.241-.316.119-.319.109-1.259.422c-.265.082-.329.092-.248.053s.308-.129.613-.252.7-.274,1.125-.432.865-.354,1.289-.519M119.7,1.105A43.833,43.833,0,0,1,124.731.66l.9-.021c.3-.006.6-.019.9-.01l1.16.012,1.222.046a36.489,36.489,0,0,1,4.782.645c.392.088.786.167,1.175.264l1.164.309,1.15.36c.381.126.756.271,1.134.407a28.109,28.109,0,0,0-4.787-1.435,33.591,33.591,0,0,0-5.6-.669,33.641,33.641,0,0,1,7.551,1.079c.6.146,1.185.344,1.77.524.29.1.575.207.862.309l.428.156c.141.055.28.117.42.175l.834.354.813.392c.273.125.533.275.8.418l.393.216.2.109.19.118.758.472c.248.163.487.339.731.509.12.086.244.168.361.258l.347.277.347.276.173.138c.057.048.11.1.165.147l.657.593c.213.2.414.42.621.629.1.107.21.207.3.32l.287.336c.189.226.39.441.558.682l.525.709.475.743.119.186.105.194.211.388.211.388.183.4.183.4.092.2c.03.068.052.138.078.207l.306.833a16.535,16.535,0,0,1,.452,1.723,15.919,15.919,0,0,1,.316,4.33,18.541,18.541,0,0,1-.814,4.349l-.241.75c-.087.247-.187.489-.278.733-.175.492-.4.959-.611,1.434-.1.237-.231.463-.344.694s-.227.463-.356.685l-.381.669c-.064.111-.126.224-.192.333l-.206.324a24.584,24.584,0,0,0,2.21-4.276,19.585,19.585,0,0,0,1.217-4.646,16.368,16.368,0,0,0-.071-4.8,15.262,15.262,0,0,0-1.528-4.559,16.469,16.469,0,0,0-2.843-3.9,19.77,19.77,0,0,0-3.8-3.009,27.629,27.629,0,0,0-9.066-3.433,36.832,36.832,0,0,0-4.846-.6c-.814-.056-1.63-.062-2.447-.071L124.94.467c-.409.007-.816.042-1.224.062a45.267,45.267,0,0,0-9.674,1.7,47.289,47.289,0,0,0-9.176,3.717,45.048,45.048,0,0,0-4.264,2.6,41.084,41.084,0,0,0-3.937,3.122,42.95,42.95,0,0,1,10.781-6.912,47.781,47.781,0,0,1,5.976-2.231,46.475,46.475,0,0,1,6.275-1.42m-3.066.684-1.252.309-1.237.35c-.414.111-.818.251-1.225.38s-.813.258-1.211.409a45.1,45.1,0,0,0-4.684,1.949,44.383,44.383,0,0,0-6.012,3.467,37.375,37.375,0,0,0-5.24,4.33,31.521,31.521,0,0,0-3.959,4.762,23.564,23.564,0,0,0-2.4,4.524,26.891,26.891,0,0,1,3-5.3,32.618,32.618,0,0,1,4.109-4.647,41.671,41.671,0,0,1,10.5-7.14c-1.855.885-2.857,1.495-3.227,1.705s-.1.057.7-.4c.4-.227.943-.5,1.6-.851.669-.321,1.449-.717,2.36-1.1a49.4,49.4,0,0,1,6.758-2.382c.242-.076.771-.2,1.42-.365" transform="translate(-87.32 -0.183)" fill="#6f5a48"/>
              <path id="Tracé_30" data-name="Tracé 30" d="M183.1,24.9a27.737,27.737,0,0,1-6.243,9.414l.75-.739c.241-.249.473-.5.714-.763s.475-.534.719-.824l.374-.447c.126-.155.246-.321.375-.489a25.278,25.278,0,0,0,1.929-2.952,23.966,23.966,0,0,0,1.522-3.337,20.393,20.393,0,0,0,.926-3.6,16.849,16.849,0,0,0,.187-3.682,15.95,15.95,0,0,0-1.154-5.133,16.513,16.513,0,0,0-2.838-4.519,19.028,19.028,0,0,0-4.105-3.5,24.934,24.934,0,0,0-4.883-2.39A33.841,33.841,0,0,0,160.6.013a43.412,43.412,0,0,0-11.033,1.215c-.717.163-2.294.567-3.448.972A47.5,47.5,0,0,1,152.934.594a42.013,42.013,0,0,1,6.9-.529,37.914,37.914,0,0,1,6.818.647,30.405,30.405,0,0,1,6.493,2.023,22,22,0,0,1,5.693,3.657l.317.282c.1.1.2.2.3.3.2.2.4.4.594.605.368.43.753.845,1.08,1.307.353.441.645.927.954,1.4.141.245.274.494.411.74.066.125.142.244.2.374l.176.384.176.384.088.192.075.2.295.792c.094.265.161.54.243.809l.117.405.088.413a15.325,15.325,0,0,1,.375,3.344c0,.281,0,.562-.01.842l-.064.839c-.013.28-.065.557-.1.835s-.07.557-.136.829l-.172.823c-.066.272-.146.541-.218.811l-.111.405-.135.4c-.092.265-.176.532-.273.794" transform="translate(-120.495 -0.001)" fill="#6f5a48"/>
              <path id="Tracé_31" data-name="Tracé 31" d="M94.77,25.116A33.28,33.28,0,0,0,92.4,28.491a28.69,28.69,0,0,0-1.828,3.614,29.95,29.95,0,0,1,1.892-3.61,32.79,32.79,0,0,1,2.479-3.43,37.442,37.442,0,0,1,8.182-7.315,36.583,36.583,0,0,0-8.35,7.366" transform="translate(-89.152 -10.015)" fill="#6f5a48"/>
              <path id="Tracé_32" data-name="Tracé 32" d="M131.029,5.047c-.357.115-.718.222-1.073.346l-1.069.38a47.656,47.656,0,0,0-4.854,2.093,45.2,45.2,0,0,0-4.659,2.717,45,45,0,0,1,4.982-2.806c.431-.2.857-.412,1.293-.6l1.312-.564,1.332-.52c.444-.175.9-.321,1.349-.484-.011-.021.133-.093.38-.2s.6-.222,1.008-.362" transform="translate(-105.405 -2.848)" fill="#6f5a48"/>
            </g>
          </g>
        </g>
        <g id="Groupe_12" data-name="Groupe 12" transform="translate(38.069 7.793)" opacity="0.8">
          <g id="Groupe_11" data-name="Groupe 11">
            <g id="Groupe_10" data-name="Groupe 10" clip-path="url(#clip-path-5)">
              <path id="Tracé_33" data-name="Tracé 33" d="M123.392,62.237a42.5,42.5,0,0,0,7.078-.99A39.394,39.394,0,0,0,137,59.169a35.756,35.756,0,0,0,4.651-2.354,28.836,28.836,0,0,0,4.123-3,21.969,21.969,0,0,0,3.464-3.8,17.543,17.543,0,0,0,2.4-4.768,15.013,15.013,0,0,0-.488-10.339c-.087-.207-.16-.421-.26-.623l-.3-.613c-.05-.1-.1-.206-.15-.308l-.169-.3-.339-.6c-.118-.2-.25-.389-.374-.585l-.19-.293-.1-.147-.1-.142-.417-.567c-.071-.094-.137-.192-.212-.283l-.226-.273a24.628,24.628,0,0,0-4.181-4.013,34.51,34.51,0,0,0-10.886-5.376c-.107-.034-.238-.079-.39-.123l-.5-.139c-.356-.1-.745-.213-1.107-.293-.722-.163-1.307-.28-1.2-.2a46.081,46.081,0,0,0-11.892-1.046,44.464,44.464,0,0,0-5.872.625,40.428,40.428,0,0,0-5.693,1.433,43.662,43.662,0,0,0-4.646,1.818,29.773,29.773,0,0,0-4.346,2.448A32.487,32.487,0,0,0,94.5,27.785a24,24,0,0,0-2.678,2.894l-.3.391c-.1.131-.2.259-.289.4l-.546.814-.5.845c-.086.139-.156.287-.229.432L89.747,34a16.076,16.076,0,0,0-1.263,3.68,14.047,14.047,0,0,0-.19,1.471c-.064.551-.048,1.091-.068,1.391A14.447,14.447,0,0,0,89,45.71a17.34,17.34,0,0,0,2.348,4.541,22.3,22.3,0,0,0,3.417,3.723,29.056,29.056,0,0,0,4.084,2.971c.576.333,1.111.66,1.653.933.27.139.529.287.8.414l.793.379c.261.13.527.245.8.36l.808.351.839.33c.284.112.572.229.874.33a4.426,4.426,0,0,1,.577.163l.427.142c.154.05.322.1.5.147l1.053.328.765.212c.277.074.571.166.888.237,1.256.323,2.786.628,4.3.869.759.1,1.508.217,2.221.276l1.03.1.94.063c.589.048,1.1.059,1.494.075s.671.028.795.037c.061,0-.225,0-.773,0-.274,0-.613,0-1.007-.016l-1.332-.064c-.491-.028-1.024-.082-1.59-.126s-1.161-.134-1.781-.2c-1.232-.183-2.549-.4-3.848-.706-1.3-.285-2.586-.664-3.775-1.043-1.182-.4-2.274-.807-3.179-1.207l-.651-.282c-.206-.088-.395-.187-.575-.271-.358-.174-.672-.316-.919-.445-.494-.26-.76-.4-.722-.368s.287.162.659.364c.184.105.413.209.666.336s.537.267.848.411a38.995,38.995,0,0,0,4.656,1.769,42.453,42.453,0,0,0,4.974,1.215c.358.076.7.116,1.006.169l.831.132.986.123a43.747,43.747,0,0,1-8.542-1.78,38.1,38.1,0,0,1-6.52-2.779A30.222,30.222,0,0,1,95.187,54.8c-.306-.264-.608-.512-.888-.762l-.79-.744c-.484-.5-.935-.952-1.307-1.405a19.118,19.118,0,0,1-2.6-3.814c-.364-.708-.416-.8-.228-.416.1.19.243.5.455.9.235.39.5.894.876,1.43a21.776,21.776,0,0,0,3.129,3.682,28.218,28.218,0,0,0,4.758,3.612,35.163,35.163,0,0,0,5.5,2.678c.284.112.582.233.9.351l1.006.346c.349.126.724.228,1.113.346l.6.178c.2.058.414.109.627.165a46.567,46.567,0,0,0,6.062,1.166l-.556-.06-.611-.085c-.424-.062-.881-.111-1.349-.2l-.716-.123c-.242-.04-.486-.082-.729-.136-.485-.105-.978-.193-1.452-.31s-.939-.225-1.375-.343l-1.215-.346c-.736-.235-1.319-.425-1.636-.543l-1.021-.387c-.159-.058-.31-.119-.455-.182l-.42-.177c-.27-.115-.523-.217-.756-.322l-.652-.3-.58-.271-.519-.267c-.332-.175-.652-.324-.96-.509s-.631-.359-.977-.564-.712-.452-1.137-.73a28.13,28.13,0,0,1-3.2-2.548A22.9,22.9,0,0,1,90.759,50.3l-.391-.584-.1-.147-.09-.153L90,49.108c-.119-.207-.247-.411-.36-.624l-.328-.649-.164-.327L89,47.17l-.287-.677c-.087-.229-.163-.463-.245-.695s-.166-.462-.224-.7a15.949,15.949,0,0,1-.6-5.608,16.47,16.47,0,0,1,1.005-4.51c-.064.153-.108.327-.166.51l-.178.584-.048.156c-.012.054-.025.108-.038.163l-.078.337c-.05.23-.114.466-.159.715a17.637,17.637,0,0,0-.282,3.3,18.052,18.052,0,0,0,.446,3.5c.155.557.287,1.106.478,1.612.161.516.373.987.553,1.432a17.224,17.224,0,0,1-1.3-8.777,16.265,16.265,0,0,1,.958-3.787,18.155,18.155,0,0,1,2.688-4.649c.255-.319.542-.655.837-1.017l.485-.53c.168-.179.329-.373.515-.549l.529-.5c.088-.082.175-.167.265-.248L94.442,27l.583-.5c.2-.171.423-.332.649-.51a31.88,31.88,0,0,1,4.385-2.882,36.566,36.566,0,0,1,4.6-2.121,41.707,41.707,0,0,1,9.909-2.406c-.3.038-.549.056-.8.075s-.5.051-.8.1c-.756.1-1.489.245-2.215.378-.362.073-.718.159-1.074.238l-.532.121-.525.139-1.042.283-1.026.319c-.343.1-.679.224-1.016.344l-.506.18c-.169.058-.337.12-.5.189A35.5,35.5,0,0,0,96.6,25.178a25.247,25.247,0,0,0-3.23,2.807,26.043,26.043,0,0,0-2.5,2.905,20.492,20.492,0,0,0-1.895,3.2A19.554,19.554,0,0,1,90.9,30.71a21.776,21.776,0,0,1,2.677-3.09c.249-.24.494-.485.759-.708s.519-.46.787-.68l.815-.646c.272-.215.559-.408.838-.612a31.207,31.207,0,0,1,3.477-2.145c.482-.276,1.032-.545,1.547-.818.256-.14.515-.253.753-.37l.656-.314-.85.371c-.141.063-.285.121-.424.189l-.418.2-.836.407-.821.441-.411.221-.4.238-.8.478-.785.512c-.13.087-.263.169-.391.259l-.381.274-.671.485-.659.526-.333.266c-.111.09-.216.188-.324.282l-.651.574c-.213.2-.419.407-.631.612l-.316.309-.3.326c-.2.22-.405.437-.6.661l-.574.7c-.2.228-.369.478-.549.721s-.365.484-.523.743l-.495.766-.448.795c-.156.261-.278.541-.412.812l-.2.41c-.069.135-.117.279-.176.418-.111.281-.231.558-.333.841l-.279.854a4.347,4.347,0,0,0-.122.43l-.109.431q-.054.215-.108.429c-.026.145-.052.289-.078.434s-.051.288-.077.431-.056.285-.066.43l-.089.857a4.094,4.094,0,0,0-.026.425q-.007.212-.014.422l-.013.418c-.006.139.008.277.011.414q.016.412.033.817.044.4.088.8l.044.39.071.382.138.748q.093.363.183.716l.089.35c.029.116.072.226.107.339.147.445.278.88.451,1.279l.236.594c.083.19.173.373.256.553s.166.337.356.665c.042.085.1.2.175.326.3.54.672,1.1,1.053,1.673l.611.835c.207.274.428.534.634.8l-.543-.651c-.174-.222-.339-.453-.509-.679l-.253-.34-.234-.355c-.154-.238-.313-.472-.463-.713-.281-.477-.587-.947-.831-1.458l-.193-.378-.1-.19-.085-.2-.339-.79a17.148,17.148,0,0,1-.935-3.375,16.935,16.935,0,0,1-.171-3.585,17.456,17.456,0,0,1,.654-3.589,18.716,18.716,0,0,1,1.43-3.385l.459-.8c.16-.261.335-.514.5-.771.086-.127.165-.259.257-.381l.275-.368.275-.368.137-.184.147-.176.589-.7c.2-.231.414-.448.621-.673l.312-.334.328-.317c.22-.21.434-.426.658-.631.458-.4.9-.81,1.382-1.176.238-.186.467-.382.711-.558l.728-.529c.211-.162.454-.315.707-.482s.519-.345.8-.513l.881-.513c.149-.089.3-.171.459-.251l.467-.245.467-.245c.156-.08.315-.151.471-.227l.918-.436.872-.379.4-.178.382-.155a37.464,37.464,0,0,1,4.447-1.526,40.487,40.487,0,0,1,4.642-1.01,46.187,46.187,0,0,1,9.428-.515l1.051.064.525.033.524.05,1.047.1,1.043.136c.7.08,1.385.215,2.077.326.345.061.687.137,1.031.205s.687.136,1.027.224l1.021.247c.339.085.675.186,1.012.278.678.177,1.339.41,2.006.618l.988.355.492.179.486.2c.323.133.65.258.971.4l.956.431c.321.138.628.306.943.458s.627.308.93.482l.917.506.9.543a30.524,30.524,0,0,1,3.394,2.447,22.592,22.592,0,0,1,5.348,6.365,16.408,16.408,0,0,1,2.1,7.962,15.847,15.847,0,0,1-.562,4.085,17.216,17.216,0,0,1-1.556,3.8,19.765,19.765,0,0,1-2.361,3.338l-.333.387c-.114.126-.234.246-.352.37l-.353.368-.176.184-.186.175-.744.7-.776.659a30.079,30.079,0,0,1-3.312,2.349c-.287.178-.584.339-.876.51l-.439.252-.449.234c-.3.153-.6.318-.9.462l-.916.43c-.224.115-.456.211-.685.314l-.685.3.6-.231-.652.271c-.217.09-.44.165-.659.248a37.288,37.288,0,0,1-7.887,2.173c-.545.088-.066-.006.652-.146l.571-.112c.2-.043.394-.092.584-.136.377-.091.717-.174.921-.231l-1.195.263.216-.1c-.228.057-.41.1-.577.124l-.483.067.552-.107.548-.127c.364-.087.732-.164,1.094-.259l1.086-.294c.363-.094.718-.217,1.078-.325a36.782,36.782,0,0,0,4.215-1.594,34.958,34.958,0,0,0,3.991-2.106,29.551,29.551,0,0,0,3.64-2.669c-.142.1-.323.257-.546.423s-.472.357-.723.552c-.124.1-.254.194-.384.285l-.376.268c-.244.17-.458.334-.64.443a30.544,30.544,0,0,1-5.087,2.8,35.733,35.733,0,0,1-3.582,1.372l-.924.278-.462.138-.467.121-.933.242-.94.209c-.624.148-1.257.248-1.883.366-.312.063-.629.1-.943.147s-.627.094-.94.135c-1.254.147-2.5.268-3.721.322l-.678.021-.337.01h-.336l-1.327-.01c-.278-.009-.342-.02-.252-.031s.333-.022.662-.039.752-.03,1.2-.042.934-.053,1.388-.071m4.771-43.266a43.833,43.833,0,0,1,4.905,1.217l.862.274c.286.093.575.178.858.285l1.093.389,1.141.441a36.558,36.558,0,0,1,4.311,2.166c.342.211.689.414,1.026.632l1,.671.97.714c.32.243.627.5.94.753a28.123,28.123,0,0,0-4.059-2.915,33.563,33.563,0,0,0-5.078-2.455,33.644,33.644,0,0,1,6.789,3.478c.522.334,1.009.711,1.5,1.072.243.185.476.383.714.573l.354.288c.115.1.227.2.34.3l.674.606.641.635c.218.207.414.434.616.654l.3.332.15.166.141.174.563.693c.182.235.35.48.526.719.086.121.176.238.258.362l.238.374.238.374.119.187c.038.063.072.129.109.193l.428.774c.135.261.255.532.382.8.061.134.131.263.183.4l.162.411c.1.275.225.543.305.827l.265.841.208.858.051.214.037.218.073.435.073.436.042.44.041.441.021.221c.006.073,0,.147.007.221l.018.887a16.547,16.547,0,0,1-.132,1.776,15.922,15.922,0,0,1-1.111,4.2,18.553,18.553,0,0,1-2.185,3.847l-.473.631c-.163.205-.335.4-.5.6-.326.408-.7.775-1.044,1.157-.175.191-.369.363-.551.545s-.365.364-.56.532l-.578.508c-.1.084-.191.17-.289.252l-.3.239a24.559,24.559,0,0,0,3.481-3.324,19.561,19.561,0,0,0,2.663-4,16.361,16.361,0,0,0,1.494-4.56,15.26,15.26,0,0,0,.038-4.808,16.483,16.483,0,0,0-1.419-4.612,19.8,19.8,0,0,0-2.61-4.081,27.642,27.642,0,0,0-7.455-6.2,36.815,36.815,0,0,0-4.386-2.146c-.751-.318-1.521-.589-2.29-.863l-1.167-.375c-.389-.126-.785-.225-1.178-.339a45.249,45.249,0,0,0-9.7-1.541,47.26,47.26,0,0,0-9.886.529,44.931,44.931,0,0,0-4.878,1.072,40.977,40.977,0,0,0-4.739,1.67,42.938,42.938,0,0,1,12.443-3.027,47.742,47.742,0,0,1,6.377-.165,46.471,46.471,0,0,1,6.4.7m-3.122-.351-1.285-.116-1.284-.071c-.427-.03-.855-.028-1.282-.039s-.853-.02-1.278-.007a45.1,45.1,0,0,0-5.063.318,44.446,44.446,0,0,0-6.813,1.322,37.407,37.407,0,0,0-6.364,2.389,31.5,31.5,0,0,0-5.293,3.214,23.578,23.578,0,0,0-3.74,3.5A26.87,26.87,0,0,1,97.2,25.094a32.642,32.642,0,0,1,5.4-3.057A41.68,41.68,0,0,1,114.851,18.7c-2.042.234-3.188.484-3.607.562s-.108.023.794-.149c.451-.085,1.055-.168,1.788-.285.737-.086,1.6-.206,2.591-.276a49.385,49.385,0,0,1,7.165-.052c.254.007.794.061,1.461.117" transform="translate(-87.355 -17.959)" fill="#6f5a48"/>
              <path id="Tracé_34" data-name="Tracé 34" d="M192.976,51.431a27.729,27.729,0,0,1-8.967,6.869l.95-.454c.309-.157.611-.323.924-.489s.623-.35.948-.545l.5-.3c.169-.106.337-.223.513-.34a25.249,25.249,0,0,0,2.785-2.164,23.872,23.872,0,0,0,2.525-2.66,20.374,20.374,0,0,0,2.048-3.106,16.833,16.833,0,0,0,1.375-3.421,15.941,15.941,0,0,0,.579-5.229,16.5,16.5,0,0,0-1.213-5.2,19.044,19.044,0,0,0-2.743-4.643,24.933,24.933,0,0,0-3.839-3.849,33.829,33.829,0,0,0-9.563-5.327,43.427,43.427,0,0,0-10.828-2.442c-.73-.08-2.354-.21-3.577-.2a47.464,47.464,0,0,1,6.967.7,42.025,42.025,0,0,1,6.692,1.744,37.974,37.974,0,0,1,6.237,2.83,30.413,30.413,0,0,1,5.481,4.026,22,22,0,0,1,4.193,5.311l.207.37c.068.124.125.254.187.381.122.255.247.509.365.765.208.526.437,1.044.6,1.587.191.533.309,1.086.448,1.633.053.277.1.556.147.834.021.139.054.277.066.418l.042.421.041.421.021.21.006.211.021.845c0,.282-.023.563-.034.844l-.021.422-.051.419a15.352,15.352,0,0,1-.734,3.284c-.1.264-.184.53-.283.793l-.333.773c-.1.261-.243.506-.368.756s-.248.5-.4.74l-.43.722c-.151.236-.314.464-.47.7l-.237.347-.257.333c-.173.221-.339.445-.516.662" transform="translate(-131.385 -17.91)" fill="#6f5a48"/>
              <path id="Tracé_35" data-name="Tracé 35" d="M104.261,25.487a33.255,33.255,0,0,0-3.344,2.419,28.6,28.6,0,0,0-2.9,2.822,29.875,29.875,0,0,1,2.963-2.8,32.8,32.8,0,0,1,3.461-2.437,37.447,37.447,0,0,1,10.117-4.254,36.578,36.578,0,0,0-10.293,4.247" transform="translate(-93.368 -19.777)" fill="#6f5a48"/>
              <path id="Tracé_36" data-name="Tracé 36" d="M148.793,17.9c-.375-.007-.751-.024-1.127-.022l-1.135.011a47.739,47.739,0,0,0-5.271.4,45.245,45.245,0,0,0-5.289,1.053,45.021,45.021,0,0,1,5.624-1.032c.473-.049.945-.111,1.419-.149l1.424-.106L145.866,18c.477-.021.955-.011,1.433-.018,0-.024.156-.045.423-.064s.643-.014,1.071-.014" transform="translate(-114.784 -17.882)" fill="#6f5a48"/>
            </g>
          </g>
        </g>
        <g id="Groupe_15" data-name="Groupe 15" transform="translate(2.735 13.326)" opacity="0.8">
          <g id="Groupe_14" data-name="Groupe 14">
            <g id="Groupe_13" data-name="Groupe 13" clip-path="url(#clip-path-6)">
              <path id="Tracé_37" data-name="Tracé 37" d="M43.076,77.168a46.878,46.878,0,0,1-7.23,1.439,43.305,43.305,0,0,1-7.09.268,33.8,33.8,0,0,1-5.381-.7,29.016,29.016,0,0,1-5.1-1.586,23.314,23.314,0,0,1-4.747-2.642,19.212,19.212,0,0,1-4.064-3.991,16.426,16.426,0,0,1-2.525-5.079A16.174,16.174,0,0,1,6.3,59.322c.018-.238.02-.478.051-.716l.09-.716c.016-.119.028-.24.047-.359l.068-.356.136-.715c.051-.238.117-.472.175-.71l.091-.355L7,55.218l.055-.175.223-.7c.038-.117.071-.236.115-.351l.131-.346A26.03,26.03,0,0,1,10.284,48.3a36.411,36.411,0,0,1,8.7-8.888c.093-.067.205-.153.337-.244l.435-.3c.312-.209.647-.453.964-.657.631-.41,1.133-.753,1-.728A47.982,47.982,0,0,1,32.84,32.573a46.559,46.559,0,0,1,11.783-1.978,36.321,36.321,0,0,1,10.084,1.143,28.5,28.5,0,0,1,3.855,1.307,23.425,23.425,0,0,1,3.565,1.918l.419.283c.139.095.281.186.412.291l.8.613.764.659c.13.106.247.227.368.345l.36.353a17.73,17.73,0,0,1,2.49,3.149c.191.319.518.811.767,1.331a11.225,11.225,0,0,1,.6,1.321,16.372,16.372,0,0,1,.982,5.343A19.115,19.115,0,0,1,69.44,53.9a23.593,23.593,0,0,1-1.908,4.846A28.656,28.656,0,0,1,64.7,63.1c-.434.527-.833,1.035-1.256,1.493-.209.231-.406.466-.617.684l-.627.649c-.2.218-.42.424-.638.629l-.655.623-.694.61c-.235.206-.473.418-.731.619a4.609,4.609,0,0,1-.453.414l-.355.3c-.129.105-.272.212-.418.327-.2.148-.51.383-.91.672l-.672.459c-.244.164-.5.35-.784.522-1.113.725-2.5,1.518-3.885,2.237-.7.338-1.391.694-2.063.977-.333.146-.655.292-.965.424l-.89.356c-.556.23-1.047.4-1.425.532s-.644.224-.764.262c-.06.019.211-.087.73-.286.259-.1.583-.218.953-.369l1.247-.525c.458-.2.948-.434,1.472-.673s1.061-.531,1.627-.813c1.111-.6,2.294-1.262,3.425-2.006,1.145-.724,2.236-1.53,3.239-2.306.989-.794,1.888-1.562,2.611-2.261l.521-.5c.166-.157.311-.317.453-.461.279-.292.527-.539.716-.751.376-.425.575-.654.538-.623s-.229.244-.518.562c-.142.162-.326.338-.526.545s-.424.437-.672.679a40.4,40.4,0,0,1-3.837,3.276,42.806,42.806,0,0,1-4.322,2.858c-.316.194-.626.349-.9.5l-.747.407-.9.448a44.006,44.006,0,0,0,7.425-4.741,38.238,38.238,0,0,0,5.141-4.948,30.182,30.182,0,0,0,3.218-4.57c.193-.357.386-.7.558-1.031l.472-.977c.274-.639.533-1.223.717-1.779a18.428,18.428,0,0,0,1.05-4.473c.079-.785.084-.886.034-.468-.027.208-.058.548-.118.994-.085.443-.155,1-.322,1.63a22.016,22.016,0,0,1-1.629,4.518A28.525,28.525,0,0,1,64.392,62.8a35.968,35.968,0,0,1-4.2,4.475l-.731.635-.826.676c-.284.242-.6.471-.922.721l-.5.38c-.171.127-.35.25-.53.379a40.86,40.86,0,0,1-5.305,3.225l.5-.261.539-.307c.373-.216.78-.434,1.183-.694l.619-.385c.209-.129.42-.261.625-.4.411-.282.833-.552,1.229-.84s.784-.565,1.143-.84l.993-.78c.592-.494,1.061-.886,1.317-1.106l.811-.726c.127-.111.245-.222.356-.333l.326-.316c.208-.2.406-.39.583-.573l.492-.519.436-.463.38-.438c.241-.284.481-.538.7-.82l.7-.872.8-1.072a30.559,30.559,0,0,0,2.116-3.435,21.092,21.092,0,0,0,1.784-4.638l.16-.669.04-.169.03-.172c.02-.114.04-.229.06-.344.037-.231.085-.461.115-.694s.051-.469.077-.706l.038-.354.014-.357q.015-.357.03-.715c0-.238-.011-.477-.016-.715s-.007-.477-.037-.713A15.348,15.348,0,0,0,68.14,42.6a16.176,16.176,0,0,0-2.427-3.713c.115.111.218.248.339.388l.377.45.1.12.094.13.2.27c.13.185.277.372.409.577a14.852,14.852,0,0,1,2.338,6.208,16.224,16.224,0,0,1,.122,1.651,14.352,14.352,0,0,1-.036,1.514,14.658,14.658,0,0,0-1.82-8.516,17.23,17.23,0,0,0-2.255-3.058A20.25,20.25,0,0,0,61.562,35.3c-.338-.209-.714-.417-1.106-.645l-.626-.313c-.216-.1-.429-.223-.661-.317l-.641-.3c-.107-.049-.214-.1-.322-.148l-.333-.135-.694-.282c-.239-.1-.5-.177-.76-.273a29.807,29.807,0,0,0-5-1.2,35.516,35.516,0,0,0-4.965-.406,44.106,44.106,0,0,0-9.986,1.066c.292-.067.532-.109.775-.149s.489-.064.789-.117c.736-.139,1.465-.227,2.182-.333.359-.047.717-.08,1.072-.121l.532-.059.531-.041,1.055-.081,1.052-.046c.35-.021.7-.02,1.05-.023l.525,0c.175,0,.351,0,.526,0a32.5,32.5,0,0,1,8.695,1.249,27.33,27.33,0,0,1,3.923,1.4A21.215,21.215,0,0,1,62.381,35.9a20.088,20.088,0,0,1,2.688,2.354A20.183,20.183,0,0,0,62.2,35.884a21.8,21.8,0,0,0-3.437-1.908c-.3-.136-.606-.279-.921-.394s-.622-.249-.938-.361l-.954-.322c-.318-.107-.644-.189-.964-.285A29.636,29.636,0,0,0,51.1,31.8c-.533-.088-1.13-.127-1.693-.175-.282-.028-.558-.029-.815-.041l-.706-.027.9.066c.149.012.3.019.449.036l.448.051.9.1.892.137.446.068.443.087.887.174.879.211c.146.036.294.068.439.108l.435.125.767.218.769.256.389.129c.13.044.257.1.386.146l.778.3c.258.107.512.225.771.338l.388.171.38.19c.253.129.51.255.764.387l.747.428c.254.137.49.3.733.458s.49.308.718.486l.7.514.666.556c.228.179.428.387.639.583l.314.3c.107.1.2.208.3.312.193.212.393.417.578.634l.534.664a3.967,3.967,0,0,1,.251.341l.241.346.239.345.214.359.211.357c.069.119.145.235.2.36l.363.732A3.658,3.658,0,0,1,68.2,43l.151.372.149.368c.051.122.083.25.126.373l.237.74.178.739.086.363.058.365.114.715q.03.356.059.7.014.173.028.343c.01.113,0,.226.008.338a12.853,12.853,0,0,1-.022,1.292q-.02.31-.04.607c-.02.2-.051.389-.076.576s-.026.357-.076.716c-.021.088-.047.21-.074.347a17.912,17.912,0,0,1-.421,1.843l-.3.944c-.109.312-.237.614-.353.91l.285-.761c.087-.256.163-.516.245-.774l.121-.388.1-.393c.064-.263.133-.524.193-.788.079-.522.188-1.044.226-1.578q.02-.2.041-.4l.02-.2.008-.2q.015-.4.031-.81a16.94,16.94,0,0,0-.3-3.268,16.39,16.39,0,0,0-1-3.191,16.712,16.712,0,0,0-1.71-2.936,17.7,17.7,0,0,0-2.332-2.531l-.66-.562c-.225-.181-.462-.35-.692-.525-.117-.085-.229-.177-.35-.257l-.363-.24-.363-.241-.181-.12-.188-.11-.752-.439c-.254-.142-.516-.268-.774-.4l-.387-.2-.4-.178c-.266-.117-.528-.241-.8-.352-.543-.207-1.076-.432-1.63-.6-.275-.088-.546-.19-.824-.267l-.832-.234c-.244-.073-.515-.131-.8-.2s-.581-.148-.893-.212l-.962-.2c-.163-.037-.33-.064-.5-.09l-.5-.082-.5-.082c-.168-.026-.336-.042-.5-.064l-.978-.116-.92-.068-.427-.03c-.138-.006-.272-.007-.4-.011a40.2,40.2,0,0,0-4.569.1,43,43,0,0,0-4.588.593,49.159,49.159,0,0,0-8.879,2.5l-.955.388-.477.194-.47.21-.94.421-.926.451c-.622.292-1.218.632-1.827.951-.3.165-.595.343-.893.513s-.6.341-.884.528l-.872.548c-.288.186-.569.384-.853.575-.575.376-1.116.8-1.672,1.2l-.807.638-.4.32-.39.335c-.259.224-.524.442-.778.672l-.754.7c-.256.228-.489.48-.733.719s-.487.482-.715.738l-.7.757-.663.783a30.139,30.139,0,0,0-2.392,3.329,22.177,22.177,0,0,0-2.994,7.568,16.136,16.136,0,0,0,.511,8.067,15.717,15.717,0,0,0,1.8,3.661,17.168,17.168,0,0,0,2.658,3.1,19.839,19.839,0,0,0,3.291,2.434l.439.265c.149.084.3.161.451.242l.452.241.227.12.232.108.929.433.949.387a30.541,30.541,0,0,0,3.91,1.21c.331.081.667.143,1,.215l.5.1.5.084c.337.053.672.118,1.01.161l1.014.126c.252.032.506.043.759.061l.755.052L28,78.279l.71.065c.237.021.474.027.709.042a46.836,46.836,0,0,0,8.257-.471c.556-.066.067.009-.666.12l-.583.089-.6.074c-.391.048-.742.093-.954.127L36.1,78.2l-.229.071c.237-.034.426-.048.6-.065l.492-.048-.566.085-.568.066c-.38.041-.758.093-1.139.126l-1.143.091c-.381.034-.764.038-1.146.058a37.584,37.584,0,0,1-4.6-.084,35.532,35.532,0,0,1-4.571-.656,29.979,29.979,0,0,1-4.443-1.33c.161.076.385.186.654.285s.574.207.884.316c.155.057.313.105.47.15l.457.134c.295.083.56.17.773.218a38.133,38.133,0,0,0,5.891.945c1.3.109,2.611.118,3.925.111l.986-.034.493-.017.492-.034.984-.068.98-.1c.654-.058,1.3-.163,1.947-.25.324-.04.642-.107.963-.16s.64-.11.957-.172c1.265-.261,2.512-.548,3.717-.9l.669-.186.334-.092.329-.1,1.3-.4c.265-.085.328-.1.247-.055s-.305.133-.627.25-.728.264-1.168.417-.922.282-1.372.411M23.862,37.026a47.672,47.672,0,0,0-4.293,2.593l-.724.533c-.24.179-.485.351-.718.543l-.9.722c-.3.259-.6.529-.913.8a36.549,36.549,0,0,0-3.4,3.394c-.258.307-.523.607-.775.919l-.739.949-.7.981c-.227.331-.437.674-.657,1.011a30.875,30.875,0,0,1,3.028-3.957A39.49,39.49,0,0,1,17.1,41.635a36.058,36.058,0,0,0-5.248,5.443c-.386.478-.726.984-1.08,1.478-.172.25-.33.509-.5.762l-.245.38c-.078.129-.152.261-.227.39l-.45.781-.411.8c-.143.262-.26.537-.383.808l-.184.407-.091.2-.081.207-.323.83c-.1.278-.187.563-.281.844-.044.141-.095.281-.135.423l-.113.429-.113.429-.057.215c-.017.072-.03.145-.045.217l-.173.871c-.05.292-.081.586-.123.879-.017.147-.045.293-.053.441l-.03.443c-.017.3-.05.592-.041.889s0,.594,0,.892l.063.892.017.223.032.222.064.445.064.445.1.44.1.441.048.221c.017.074.042.145.062.217l.259.869a16.608,16.608,0,0,0,.689,1.69,16.133,16.133,0,0,0,2.476,3.71,18.69,18.69,0,0,0,3.412,3l.672.448c.227.143.462.273.691.409.455.281.937.506,1.4.751.234.122.48.22.718.331s.477.221.722.314l.731.284c.122.047.243.1.365.139l.37.124a24.791,24.791,0,0,1-4.431-2.086,19.8,19.8,0,0,1-3.851-3A16.524,16.524,0,0,1,8.6,67.71a15.334,15.334,0,0,1-1.557-4.584,16.482,16.482,0,0,1-.1-4.821,19.681,19.681,0,0,1,1.193-4.663,27.414,27.414,0,0,1,5.079-8.135,36.565,36.565,0,0,1,3.442-3.373c.6-.532,1.24-1.025,1.874-1.521l.974-.713c.324-.239.664-.456,1-.685a45.339,45.339,0,0,1,8.568-4.478A47.53,47.53,0,0,1,38.421,32.1a45.3,45.3,0,0,1,4.851-.565,41.244,41.244,0,0,1,4.9.017,41.487,41.487,0,0,0-12.5,1.017,47.869,47.869,0,0,0-11.81,4.458M26.6,35.548l1.166-.529,1.18-.489c.39-.169.791-.308,1.188-.459s.792-.3,1.195-.43a46.453,46.453,0,0,1,4.841-1.389,41.975,41.975,0,0,1,13.542-.907,33.618,33.618,0,0,1,6.017,1.167,26.965,26.965,0,0,1,4.721,1.871,26.852,26.852,0,0,0-5.64-2.182,32.812,32.812,0,0,0-6.078-.994,42.438,42.438,0,0,0-12.562,1.044c1.989-.453,3.143-.6,3.56-.663s.108-.018-.793.116c-.45.068-1.043.189-1.768.32-.718.162-1.569.335-2.517.595a48.483,48.483,0,0,0-6.728,2.323c-.231.1-.718.332-1.324.607" transform="translate(-6.275 -30.579)" fill="#6f5a48"/>
              <path id="Tracé_38" data-name="Tracé 38" d="M16.053,79.278a24.849,24.849,0,0,0,5.125,2.481,31.523,31.523,0,0,0,5.543,1.392l-1.042-.209c-.341-.077-.678-.163-1.023-.245s-.7-.181-1.061-.283l-.562-.157c-.192-.056-.386-.124-.587-.187a29.565,29.565,0,0,1-3.292-1.234,25.323,25.323,0,0,1-3.2-1.726,20.084,20.084,0,0,1-2.882-2.266,15.837,15.837,0,0,1-4.415-7.405,16.056,16.056,0,0,1-.448-5.108,18.494,18.494,0,0,1,1.1-5.063,24.384,24.384,0,0,1,2.329-4.7,33.446,33.446,0,0,1,7.116-7.889,43.146,43.146,0,0,1,9.187-5.709c.652-.3,2.105-.933,3.22-1.359a46.408,46.408,0,0,0-6.219,2.838,41.137,41.137,0,0,0-5.64,3.713,37.264,37.264,0,0,0-4.878,4.565,29.848,29.848,0,0,0-3.806,5.416,21.518,21.518,0,0,0-2.226,6.174l-.078.4c-.024.135-.037.271-.055.407-.034.272-.072.543-.1.815-.03.546-.083,1.093-.063,1.64-.014.549.048,1.093.085,1.64.035.271.079.542.118.813.023.135.034.272.066.406l.09.4.089.4.045.2.059.2.238.788c.083.261.193.514.288.771l.147.385.176.373A15.128,15.128,0,0,0,11.172,74.8c.169.218.333.441.506.656l.548.623c.177.214.382.4.577.6s.386.4.6.576l.626.55c.214.177.438.343.656.515l.33.256.344.237c.231.156.458.319.692.471" transform="translate(-7.295 -35.674)" fill="#6f5a48"/>
              <path id="Tracé_39" data-name="Tracé 39" d="M99.855,33.725a30.856,30.856,0,0,1,3.788,1.056,24.934,24.934,0,0,1,3.489,1.578,23.756,23.756,0,0,0-3.5-1.64,29.328,29.328,0,0,0-3.9-1.114,34.628,34.628,0,0,0-5.287-.665,39.774,39.774,0,0,0-5.308.107,37.681,37.681,0,0,1,10.713.678" transform="translate(-53.029 -31.886)" fill="#6f5a48"/>
              <path id="Tracé_40" data-name="Tracé 40" d="M61.023,36.018c.345-.124.686-.258,1.035-.375l1.052-.346a50.312,50.312,0,0,1,4.981-1.307,46.233,46.233,0,0,1,5.187-.746A44.533,44.533,0,0,0,67.765,34c-.453.1-.91.185-1.361.294l-1.354.336-1.345.384c-.45.127-.891.284-1.337.425.011.022-.132.089-.374.186s-.58.241-.97.393" transform="translate(-37.164 -32.082)" fill="#6f5a48"/>
            </g>
          </g>
        </g>
        <g id="Groupe_18" data-name="Groupe 18" transform="translate(2.57 0.143)" opacity="0.8">
          <g id="Groupe_17" data-name="Groupe 17">
            <g id="Groupe_16" data-name="Groupe 16" clip-path="url(#clip-path-7)">
              <path id="Tracé_41" data-name="Tracé 41" d="M27.66,44.9a46.892,46.892,0,0,1-6.546-3.39,43.3,43.3,0,0,1-5.706-4.217,33.744,33.744,0,0,1-3.765-3.908,29.033,29.033,0,0,1-3-4.424,23.32,23.32,0,0,1-2.059-5.027A19.223,19.223,0,0,1,5.9,18.277a16.439,16.439,0,0,1,1.2-5.544A16.183,16.183,0,0,1,10.071,8c.163-.174.314-.36.487-.526l.517-.5c.087-.083.172-.17.261-.251l.275-.236.553-.473c.188-.154.387-.3.58-.445l.292-.221.147-.111.153-.1.613-.41c.1-.067.2-.14.309-.2l.319-.189a26.024,26.024,0,0,1,5.488-2.454A36.411,36.411,0,0,1,32.41.362c.114.006.256.009.416.02l.526.04c.375.031.788.05,1.163.088.75.074,1.356.119,1.236.055A47.97,47.97,0,0,1,47.5,3.669,46.542,46.542,0,0,1,57.942,9.48a36.312,36.312,0,0,1,7.164,7.188A28.486,28.486,0,0,1,67.3,20.1a23.392,23.392,0,0,1,1.588,3.723l.151.482c.05.161.1.32.14.485l.244.98.185.991c.035.164.051.332.072.5l.061.5a17.72,17.72,0,0,1-.021,4.015c-.05.369-.1.957-.231,1.519a11.262,11.262,0,0,1-.36,1.4,16.385,16.385,0,0,1-2.569,4.787,19.137,19.137,0,0,1-3.779,3.7,23.584,23.584,0,0,1-4.517,2.595,28.687,28.687,0,0,1-4.931,1.641c-.669.141-1.3.288-1.913.382-.308.05-.608.111-.909.149l-.894.115c-.3.043-.593.069-.892.094l-.9.078-.923.044c-.312.014-.631.031-.957.027a4.668,4.668,0,0,1-.613.041l-.462.01c-.167,0-.345,0-.53-.006-.248-.009-.638-.018-1.131-.042l-.811-.061c-.293-.025-.608-.039-.938-.081-1.323-.129-2.9-.373-4.432-.678-.761-.176-1.52-.327-2.222-.524-.352-.094-.694-.18-1.018-.271l-.918-.278c-.578-.168-1.067-.343-1.445-.475s-.643-.227-.76-.272c-.058-.023.219.064.749.232.265.082.591.193.974.306l1.3.368c.482.132,1.011.253,1.57.394s1.161.248,1.778.38c1.244.224,2.58.446,3.929.571,1.346.149,2.7.2,3.97.221,1.268,0,2.45-.041,3.452-.136l.717-.063c.227-.02.441-.054.641-.078.4-.054.749-.092,1.028-.139.559-.1.858-.152.81-.15s-.331.048-.756.115c-.211.038-.465.061-.75.1s-.6.077-.949.112a40.437,40.437,0,0,1-5.043.163,42.763,42.763,0,0,1-5.16-.466c-.368-.045-.706-.118-1.018-.169l-.838-.148-.982-.212a44.019,44.019,0,0,0,8.76.932,38.183,38.183,0,0,0,7.106-.657,30.15,30.15,0,0,0,5.367-1.561c.373-.158.736-.3,1.079-.457l.979-.468c.613-.328,1.18-.624,1.671-.942a18.425,18.425,0,0,0,3.613-2.84c.552-.564.619-.639.319-.344-.151.146-.388.392-.713.7-.343.292-.746.685-1.269,1.072a22.019,22.019,0,0,1-4.093,2.512,28.5,28.5,0,0,1-5.63,1.969,35.93,35.93,0,0,1-6.073.875l-.967.04-1.068.013c-.373.012-.763-.006-1.17-.013l-.625-.013c-.212-.007-.429-.024-.65-.035a40.893,40.893,0,0,1-6.158-.792l.553.108.613.1c.426.064.88.148,1.357.2l.724.085c.244.03.491.059.74.075.5.036,1,.09,1.484.111s.965.048,1.417.058l1.263.011c.771-.016,1.382-.029,1.719-.042l1.086-.061c.168-.007.33-.021.486-.037l.452-.044c.29-.03.56-.052.813-.083l.709-.1.63-.089.57-.1c.365-.071.711-.12,1.057-.205l1.09-.244,1.292-.339a30.663,30.663,0,0,0,3.8-1.362,21.1,21.1,0,0,0,4.289-2.51l.543-.424.136-.107.13-.115.262-.231c.173-.157.354-.307.523-.471l.5-.5.251-.253.234-.269.469-.54c.149-.186.289-.38.434-.569s.292-.377.416-.58a15.358,15.358,0,0,0,2.21-4.972,16.187,16.187,0,0,0,.421-4.416c.02.158.016.33.022.514s.009.381.014.587l0,.157-.008.16c-.005.109-.01.22-.016.333-.014.226-.016.463-.04.706a16.3,16.3,0,0,1-.631,3.156,14.364,14.364,0,0,1-2.355,4.519,14.24,14.24,0,0,1-.974,1.161,14.662,14.662,0,0,0,3.895-7.79,17.268,17.268,0,0,0,.148-3.8,20.259,20.259,0,0,0-1.06-5.1c-.134-.374-.3-.771-.462-1.194l-.293-.636c-.1-.215-.2-.442-.318-.659l-.315-.634c-.053-.105-.1-.212-.16-.317l-.176-.314-.366-.652c-.126-.225-.276-.448-.424-.689a29.739,29.739,0,0,0-3.156-4.065,35.484,35.484,0,0,0-3.625-3.417,44.1,44.1,0,0,0-8.467-5.4c.269.13.484.247.7.367s.422.255.689.4c.662.351,1.286.737,1.912,1.1.309.188.61.385.913.575l.452.285.441.3.875.6.85.621c.287.2.56.421.835.638l.414.324c.139.107.276.216.408.331a32.517,32.517,0,0,1,6.013,6.4,27.34,27.34,0,0,1,2.188,3.546A21.259,21.259,0,0,1,68.5,24.713a20.09,20.09,0,0,1,.631,3.517,20.209,20.209,0,0,0-.758-3.645,21.779,21.779,0,0,0-1.494-3.636c-.153-.3-.3-.6-.474-.883s-.331-.583-.507-.868l-.544-.847c-.181-.282-.385-.549-.576-.824a29.628,29.628,0,0,0-2.525-3.064c-.362-.4-.8-.8-1.214-1.194-.2-.2-.418-.371-.611-.541l-.535-.461.661.612c.109.1.223.2.329.308l.318.319.637.639.611.664.306.333.292.344.584.69.555.714c.092.12.187.237.276.359l.261.369.464.649.441.68.223.344c.074.116.14.237.21.355l.421.719c.134.245.26.5.392.746l.2.376.178.387c.117.259.24.517.355.779l.316.8c.113.265.194.542.287.815s.19.546.258.828l.225.838.173.849c.066.282.093.57.136.855l.059.428c.024.143.024.286.037.429.018.286.046.572.056.856s0,.57,0,.852a3.8,3.8,0,0,1-.016.423c-.01.141-.019.281-.028.421s-.019.28-.028.419l-.058.414-.058.411c-.021.136-.034.274-.067.407q-.088.4-.173.8a3.705,3.705,0,0,1-.1.39l-.114.384-.113.381c-.037.127-.091.247-.135.37l-.277.726-.322.689-.16.338-.182.321-.357.63-.391.584-.192.285c-.062.1-.137.18-.2.269a12.771,12.771,0,0,1-.824,1l-.41.449c-.139.142-.283.272-.419.4s-.243.263-.506.512c-.072.055-.168.135-.275.224a18.035,18.035,0,0,1-1.479,1.177l-.826.548c-.279.175-.568.331-.844.491l.7-.416c.228-.146.449-.3.674-.452l.337-.227.322-.246c.214-.166.432-.326.642-.5.387-.359.8-.7,1.162-1.092l.282-.287.141-.144.132-.153.529-.614A16.937,16.937,0,0,0,67.32,36.8a16.378,16.378,0,0,0,1.208-3.119,16.665,16.665,0,0,0,.5-3.361,17.688,17.688,0,0,0-.241-3.433l-.165-.851c-.063-.282-.143-.561-.213-.842-.038-.14-.068-.282-.113-.42l-.134-.414-.133-.414-.067-.207-.078-.2-.314-.813c-.109-.269-.236-.531-.353-.8l-.179-.4-.2-.387c-.135-.257-.262-.518-.4-.772-.295-.5-.571-1.009-.9-1.488-.16-.241-.308-.489-.477-.723l-.5-.7c-.146-.21-.32-.424-.5-.655s-.362-.478-.566-.723l-.63-.754c-.1-.13-.217-.256-.332-.38l-.341-.378-.342-.378c-.115-.125-.236-.243-.353-.363l-.692-.7-.676-.628-.315-.289c-.1-.092-.208-.176-.306-.258a40.183,40.183,0,0,0-3.634-2.771,42.908,42.908,0,0,0-3.954-2.4,49.145,49.145,0,0,0-8.5-3.59L42.43,2.89l-.494-.146-.5-.129-1-.258-1-.225c-.669-.16-1.347-.267-2.021-.4-.338-.059-.679-.1-1.018-.157s-.679-.105-1.02-.139l-1.023-.116c-.341-.035-.684-.055-1.026-.084-.683-.065-1.37-.072-2.055-.106l-1.028-.005h-.515l-.514.017c-.342.014-.686.018-1.027.04l-1.025.075c-.343.018-.681.07-1.022.1s-.682.072-1.019.13l-1.015.157-1.007.2a30.125,30.125,0,0,0-3.947,1.107A22.174,22.174,0,0,0,12.09,7,16.14,16.14,0,0,0,7.453,13.62,15.7,15.7,0,0,0,6.573,17.6a17.179,17.179,0,0,0,.139,4.084,19.843,19.843,0,0,0,1.052,3.955l.178.481c.064.159.135.314.2.471l.2.471.1.235.114.23.456.918.5.894a30.552,30.552,0,0,0,2.3,3.387c.208.27.432.528.647.792l.327.394.342.38c.23.251.451.512.688.756l.713.732c.177.182.369.35.555.522l.557.512-.458-.464.514.494c.171.164.353.317.528.476a46.825,46.825,0,0,0,6.744,4.786c.475.3.047.048-.6-.322l-.511-.294-.516-.319c-.335-.206-.638-.39-.825-.5l1.045.67-.223-.088c.206.122.362.229.507.322l.414.27-.5-.286-.485-.3c-.322-.2-.65-.4-.968-.612l-.95-.643c-.319-.211-.62-.447-.931-.67A37.51,37.51,0,0,1,14.9,36.4a35.6,35.6,0,0,1-3.161-3.366A29.974,29.974,0,0,1,9.1,29.224c.078.159.184.386.333.63s.319.52.494.8c.085.141.178.278.273.41l.273.39c.178.249.331.482.467.652a38.074,38.074,0,0,0,4.012,4.416c.945.9,1.966,1.722,3,2.537l.792.589.4.295.406.28.811.561.828.533c.547.363,1.117.685,1.677,1.02.278.171.569.318.852.476s.568.313.855.463c1.152.586,2.3,1.14,3.468,1.615l.639.273.319.136.321.125,1.268.5c.26.1.316.13.228.111s-.322-.087-.645-.2-.734-.248-1.173-.4-.9-.356-1.328-.535M37.71,1.543A47.694,47.694,0,0,0,32.737.89l-.9-.035c-.3-.01-.6-.029-.9-.025l-1.154,0c-.4.015-.8.037-1.215.058a36.561,36.561,0,0,0-4.775.529c-.393.079-.788.147-1.179.234l-1.17.28-1.157.331c-.384.116-.762.254-1.144.38a30.921,30.921,0,0,1,4.836-1.2A39.479,39.479,0,0,1,29.551.924a36.038,36.038,0,0,0-7.5.975c-.6.132-1.182.316-1.767.48-.291.088-.575.191-.862.286l-.429.144c-.142.051-.281.109-.421.163l-.838.329-.82.367c-.275.116-.538.258-.8.392l-.4.2-.2.1-.193.112-.77.446c-.253.154-.5.323-.746.484-.123.082-.249.16-.37.246l-.356.265-.356.265-.178.132c-.058.045-.114.095-.171.142l-.679.572c-.221.2-.43.407-.645.61-.105.1-.218.2-.317.312l-.3.328c-.2.221-.409.431-.587.669s-.373.463-.555.7l-.508.736-.127.185-.113.193-.227.387-.228.388-.2.4-.2.4-.1.2c-.033.068-.058.139-.087.209l-.34.841a16.685,16.685,0,0,0-.517,1.75,16.161,16.161,0,0,0-.382,4.444,18.715,18.715,0,0,0,.795,4.47l.246.769c.089.253.19.5.285.751.18.5.416.98.628,1.463.106.242.238.472.355.707s.234.471.368.7l.394.678c.066.112.129.227.2.337l.212.328a24.805,24.805,0,0,1-2.159-4.4,19.783,19.783,0,0,1-1.135-4.748,16.539,16.539,0,0,1,.183-4.859,15.318,15.318,0,0,1,1.646-4.552,16.465,16.465,0,0,1,2.933-3.827,19.662,19.662,0,0,1,3.843-2.9A27.437,27.437,0,0,1,24.1,1.523a36.629,36.629,0,0,1,4.8-.486c.8-.038,1.609-.026,2.413-.018l1.207.051c.4.016.8.058,1.2.086a45.293,45.293,0,0,1,9.489,1.851,47.5,47.5,0,0,1,8.952,3.777A45.215,45.215,0,0,1,56.3,9.37a41.122,41.122,0,0,1,3.815,3.07,41.51,41.51,0,0,0-10.4-7.006A47.881,47.881,0,0,0,37.71,1.543m3.065.558,1.242.314,1.227.354c.41.112.811.253,1.214.383s.807.259,1.2.41A46.488,46.488,0,0,1,50.308,5.5a41.963,41.963,0,0,1,11.145,7.746,33.624,33.624,0,0,1,3.972,4.668,26.974,26.974,0,0,1,2.52,4.409A26.864,26.864,0,0,0,64.9,17.1a32.8,32.8,0,0,0-4.127-4.57A42.449,42.449,0,0,0,50.308,5.5c1.836.888,2.828,1.5,3.2,1.7s.1.053-.692-.4c-.394-.227-.933-.5-1.581-.853-.662-.322-1.436-.718-2.338-1.106a48.45,48.45,0,0,0-6.706-2.386c-.243-.065-.769-.189-1.413-.353" transform="translate(-5.896 -0.327)" fill="#6f5a48"/>
              <path id="Tracé_42" data-name="Tracé 42" d="M8.511,26.2a24.83,24.83,0,0,0,2.455,5.137,31.535,31.535,0,0,0,3.461,4.548l-.683-.814c-.218-.273-.428-.551-.646-.831s-.43-.575-.652-.884l-.341-.474c-.115-.163-.224-.337-.342-.513a29.627,29.627,0,0,1-1.8-3.019,25.333,25.333,0,0,1-1.423-3.346,20.118,20.118,0,0,1-.838-3.57A15.834,15.834,0,0,1,8.876,13.9a16.049,16.049,0,0,1,2.838-4.27,18.507,18.507,0,0,1,4.017-3.272,24.4,24.4,0,0,1,4.754-2.217A33.451,33.451,0,0,1,30.968,2.418,43.144,43.144,0,0,1,41.708,3.693c.7.173,2.227.585,3.363.948a46.438,46.438,0,0,0-6.63-1.666,41.187,41.187,0,0,0-6.724-.619,37.286,37.286,0,0,0-6.661.521A29.862,29.862,0,0,0,18.7,4.733a21.511,21.511,0,0,0-5.593,3.434l-.313.267c-.1.09-.2.189-.3.283-.2.191-.4.379-.588.573-.364.408-.747.8-1.073,1.242-.353.42-.645.883-.957,1.334-.142.234-.276.473-.415.709-.067.119-.143.234-.2.358l-.18.37-.18.37-.091.185-.077.19-.306.764c-.1.256-.17.522-.257.782l-.125.393-.1.4A15.11,15.11,0,0,0,7.5,19.655c0,.276-.015.552-.014.829l.039.829c0,.278.049.552.077.828s.053.553.11.825l.146.821c.057.272.128.541.191.812l.1.406.122.4c.083.266.159.535.247.8" transform="translate(-6.791 -1.471)" fill="#6f5a48"/>
              <path id="Tracé_43" data-name="Tracé 43" d="M127.625,27.4a30.8,30.8,0,0,1,2.3,3.19A24.934,24.934,0,0,1,131.666,34a23.8,23.8,0,0,0-1.707-3.464,29.32,29.32,0,0,0-2.35-3.3,34.59,34.59,0,0,0-3.715-3.819,39.677,39.677,0,0,0-4.214-3.231,37.663,37.663,0,0,1,7.946,7.217" transform="translate(-70.093 -11.529)" fill="#6f5a48"/>
              <path id="Tracé_44" data-name="Tracé 44" d="M93.738,7.6c.347.118.7.227,1.042.353l1.037.386a50.349,50.349,0,0,1,4.707,2.088,46.267,46.267,0,0,1,4.518,2.655,44.662,44.662,0,0,0-4.778-2.85c-.416-.206-.827-.423-1.247-.62l-1.268-.583-1.29-.54c-.431-.181-.872-.334-1.31-.5,0,.024-.159-.012-.409-.088s-.6-.174-1-.3" transform="translate(-55.457 -4.432)" fill="#6f5a48"/>
            </g>
          </g>
        </g>
        <g id="Groupe_21" data-name="Groupe 21" transform="translate(0.76 7.999)" opacity="0.8">
          <g id="Groupe_20" data-name="Groupe 20">
            <g id="Groupe_19" data-name="Groupe 19" clip-path="url(#clip-path-8)">
              <path id="Tracé_45" data-name="Tracé 45" d="M31.672,63.863a46.849,46.849,0,0,1-7.293-1.075,43.252,43.252,0,0,1-6.768-2.13,33.709,33.709,0,0,1-4.832-2.47A29,29,0,0,1,8.507,54.98,23.31,23.31,0,0,1,4.924,50.9a19.2,19.2,0,0,1-2.486-5.125,16.437,16.437,0,0,1-.672-5.632A16.18,16.18,0,0,1,3.031,34.7c.1-.218.18-.443.289-.656l.325-.644c.055-.107.107-.216.165-.322l.183-.313.369-.628c.128-.207.269-.405.4-.609l.2-.3.1-.153.111-.147.446-.587c.075-.1.146-.2.226-.292L6.1,29.76a26.033,26.033,0,0,1,4.39-4.106,36.418,36.418,0,0,1,11.181-5.448c.11-.031.245-.075.4-.117l.51-.133c.365-.092.761-.209,1.128-.295.733-.174,1.321-.329,1.186-.35a47.964,47.964,0,0,1,12.123-.89,46.548,46.548,0,0,1,11.762,2.1,36.323,36.323,0,0,1,9.113,4.465,28.524,28.524,0,0,1,3.192,2.527,23.418,23.418,0,0,1,2.713,3l.3.407c.1.136.2.269.291.413l.55.847.5.877c.087.144.156.3.231.448l.221.453a17.753,17.753,0,0,1,1.286,3.8c.073.365.216.939.276,1.512a11.273,11.273,0,0,1,.117,1.445,16.369,16.369,0,0,1-.871,5.362,19.114,19.114,0,0,1-2.37,4.724A23.582,23.582,0,0,1,60.9,54.727a28.665,28.665,0,0,1-4.128,3.157c-.587.35-1.133.695-1.684.984-.275.147-.539.3-.811.437l-.808.4c-.266.137-.539.258-.812.378l-.826.367-.859.341c-.291.115-.587.235-.9.338a4.71,4.71,0,0,1-.566.238l-.433.159c-.157.056-.328.108-.5.167-.237.073-.609.19-1.083.328l-.787.207c-.285.072-.588.161-.913.228-1.293.309-2.863.59-4.411.8-.777.081-1.544.186-2.271.227-.363.026-.715.055-1.051.075l-.958.036c-.6.03-1.12.023-1.521.022s-.682,0-.808-.01c-.063,0,.228-.011.784-.024.278-.008.622-.01,1.021-.027l1.351-.075c.5-.032,1.038-.09,1.613-.139s1.178-.143,1.805-.219c1.249-.193,2.584-.418,3.9-.739,1.321-.3,2.62-.689,3.825-1.083,1.2-.416,2.3-.837,3.219-1.252l.658-.294c.209-.092.4-.194.582-.282.361-.182.678-.331.926-.466.5-.274.762-.423.716-.406s-.3.153-.677.355c-.187.106-.42.21-.678.337s-.546.268-.862.414a40.27,40.27,0,0,1-4.715,1.8A42.8,42.8,0,0,1,43.2,62.743c-.362.077-.706.118-1.018.172l-.84.132-1,.119a44,44,0,0,0,8.586-1.97,38.242,38.242,0,0,0,6.506-2.933,30.185,30.185,0,0,0,4.567-3.223c.3-.271.6-.526.872-.783l.774-.762c.473-.51.913-.974,1.273-1.435A18.445,18.445,0,0,0,65.419,48.2c.338-.713.377-.806.19-.429-.1.187-.239.5-.446.9-.229.387-.482.89-.851,1.427A22.033,22.033,0,0,1,61.259,53.8a28.538,28.538,0,0,1-4.683,3.7,35.973,35.973,0,0,1-5.458,2.8l-.9.353-1.005.36c-.349.132-.723.242-1.111.369l-.595.19c-.2.063-.413.118-.626.179A40.831,40.831,0,0,1,40.8,63.006l.557-.078.611-.107c.423-.079.88-.147,1.347-.256l.713-.155c.241-.051.483-.1.724-.17.482-.127.97-.239,1.439-.378s.929-.269,1.358-.407l1.2-.4c.724-.266,1.3-.477,1.612-.6l1.007-.411c.157-.062.305-.127.448-.193l.413-.189c.265-.123.513-.231.742-.343l.638-.325.566-.289.5-.284c.322-.186.634-.346.933-.538l.952-.586,1.111-.741a30.684,30.684,0,0,0,3.148-2.525,21.112,21.112,0,0,0,3.238-3.769l.375-.577.094-.145.085-.151.172-.3c.113-.2.235-.405.342-.616l.309-.638.155-.321.133-.331.268-.663c.08-.224.149-.453.225-.679a7.119,7.119,0,0,0,.2-.684,15.351,15.351,0,0,0,.472-5.42,16.179,16.179,0,0,0-1.038-4.313c.071.143.122.307.188.479l.2.551.054.148.045.154.093.319c.061.218.136.443.192.68a14.857,14.857,0,0,1,.115,6.633,16.39,16.39,0,0,1-.441,1.6,14.446,14.446,0,0,1-.543,1.414,14.661,14.661,0,0,0,1.147-8.633,17.254,17.254,0,0,0-1.1-3.638,20.242,20.242,0,0,0-2.663-4.48c-.248-.31-.532-.633-.825-.979l-.484-.506c-.168-.17-.329-.354-.516-.52l-.5-.5c-.085-.082-.167-.166-.254-.248l-.269-.24-.559-.5c-.193-.172-.407-.333-.625-.513a29.778,29.778,0,0,0-4.307-2.816,35.462,35.462,0,0,0-4.54-2.051,44.11,44.11,0,0,0-9.764-2.352c.3.035.538.076.78.12s.482.1.782.155c.74.116,1.456.278,2.167.419.354.077.7.166,1.051.246l.52.123.514.139,1.021.278,1.006.31c.337.1.666.217,1,.331l.5.172c.166.056.331.115.494.18A32.525,32.525,0,0,1,58.1,26a27.33,27.33,0,0,1,3.223,2.641,21.225,21.225,0,0,1,2.393,2.848,20.025,20.025,0,0,1,1.741,3.12,20.2,20.2,0,0,0-1.9-3.2,21.816,21.816,0,0,0-2.6-2.952c-.241-.231-.478-.467-.735-.681s-.5-.444-.762-.656l-.79-.623c-.264-.208-.543-.394-.813-.592a29.688,29.688,0,0,0-3.385-2.075c-.472-.263-1.021-.5-1.536-.734-.256-.121-.516-.214-.754-.312l-.656-.262.824.364c.137.062.276.119.411.184l.4.2.81.4.794.429.4.215.388.231.777.462.757.495c.126.083.254.163.377.249L57.84,26l.649.463.638.5.323.252c.107.085.209.178.314.267l.632.543c.207.188.407.384.613.577l.308.292.295.307c.2.207.4.411.589.622l.56.654c.193.214.36.449.537.678s.358.455.513.7l.486.719.441.747c.155.245.273.508.407.764l.2.385c.068.127.116.263.175.394.11.265.23.526.332.791l.28.805a3.9,3.9,0,0,1,.122.405l.11.407.11.406q.04.205.08.41l.079.407c.025.136.058.27.069.407q.048.409.1.811a3.567,3.567,0,0,1,.029.4l.017.4.017.4c.007.132-.006.263-.007.394q-.013.392-.026.777-.041.382-.081.756-.021.187-.041.372l-.068.363-.133.712-.18.68-.088.332c-.028.11-.071.215-.106.321a12.881,12.881,0,0,1-.455,1.209l-.241.557c-.085.18-.179.35-.265.517s-.144.328-.312.648c-.05.076-.115.182-.187.3a18.129,18.129,0,0,1-1.015,1.594l-.6.787c-.207.257-.429.5-.638.739l.525-.621c.168-.212.326-.432.491-.647l.244-.324.225-.338c.148-.225.3-.448.446-.676.25-.465.528-.92.743-1.412l.173-.363.087-.182.075-.188.3-.752a16.968,16.968,0,0,0,.819-3.177,16.406,16.406,0,0,0,.126-3.343,16.714,16.714,0,0,0-.624-3.339,17.733,17.733,0,0,0-1.346-3.167l-.433-.751c-.152-.247-.317-.485-.475-.727-.081-.12-.156-.244-.243-.36l-.261-.348-.261-.348-.13-.174-.141-.166-.561-.667c-.191-.218-.4-.425-.593-.638l-.3-.317-.315-.3c-.211-.2-.416-.4-.631-.6-.441-.377-.869-.769-1.332-1.116-.23-.176-.451-.362-.687-.528l-.705-.5c-.206-.15-.441-.3-.685-.456s-.5-.334-.77-.5l-.841-.508c-.142-.089-.289-.171-.438-.252l-.446-.246L54,23.7c-.149-.08-.3-.153-.451-.228l-.883-.438-.843-.374-.392-.171c-.128-.052-.253-.1-.373-.145A40.069,40.069,0,0,0,46.72,20.9a43.108,43.108,0,0,0-4.52-.984,49.138,49.138,0,0,0-9.2-.628l-1.029.044-.515.023-.513.04-1.027.08-1.024.114c-.684.066-1.36.186-2.04.282-.339.054-.675.122-1.013.183s-.676.121-1.01.2l-1,.223c-.334.078-.665.17-1,.255-.668.161-1.319.377-1.978.569l-.974.33-.486.167-.48.184c-.319.124-.642.24-.959.372l-.945.4c-.318.129-.621.288-.933.431s-.621.29-.921.455l-.909.479-.888.515a30.042,30.042,0,0,0-3.372,2.332,22.184,22.184,0,0,0-5.363,6.121,16.142,16.142,0,0,0-2.23,7.771,15.7,15.7,0,0,0,.465,4.052,17.168,17.168,0,0,0,1.46,3.817,19.862,19.862,0,0,0,2.281,3.4l.325.4c.112.129.23.253.344.38l.346.379.173.189.182.18.73.719.764.683a30.579,30.579,0,0,0,3.276,2.454c.285.187.58.358.87.539l.437.266.447.248c.3.163.593.337.9.491l.913.46c.227.115.462.21.694.313l.694.3-.584-.289.647.3c.216.1.437.186.654.278a46.806,46.806,0,0,0,7.935,2.331c.546.125.06.031-.668-.11l-.579-.112-.592-.133c-.384-.087-.73-.162-.942-.2l1.206.294-.239-.01c.234.048.417.1.584.139l.48.12-.562-.109-.557-.129c-.371-.088-.745-.167-1.115-.264l-1.107-.3c-.37-.1-.732-.221-1.1-.331a37.585,37.585,0,0,1-4.3-1.624,35.461,35.461,0,0,1-4.084-2.154A29.9,29.9,0,0,1,9.02,55.083c.126.126.3.305.52.488s.471.388.727.594c.127.105.259.2.392.3l.385.28c.249.177.47.348.654.465a38.114,38.114,0,0,0,5.231,2.87c1.185.539,2.42.989,3.66,1.424l.94.3.471.149.475.133.95.267.956.235c.635.165,1.279.284,1.917.419.319.071.641.115.961.172s.639.112.959.16c1.279.18,2.551.328,3.8.4l.693.05.345.025.344.014,1.361.058c.278.008.341.02.251.031s-.333.023-.674.024-.774,0-1.241,0-.963-.045-1.43-.074M27.065,19.6a47.667,47.667,0,0,0-4.915,1l-.861.259c-.286.088-.575.168-.858.269L19.34,21.5c-.37.144-.747.3-1.13.451a36.6,36.6,0,0,0-4.344,2.054c-.346.2-.7.4-1.038.606l-1.015.645-.987.69c-.325.235-.638.488-.958.731a30.979,30.979,0,0,1,4.182-2.709,39.453,39.453,0,0,1,5.1-2.3,36.037,36.037,0,0,0-6.772,3.362c-.524.32-1.015.683-1.514,1.029-.246.178-.482.368-.723.551l-.359.276c-.117.095-.23.194-.345.291l-.686.584-.655.613c-.223.2-.425.419-.633.633l-.31.321L7,29.49l-.146.169-.584.673c-.189.228-.365.467-.548.7-.09.118-.184.233-.27.353l-.251.367-.251.366-.126.183c-.041.062-.077.126-.115.19l-.456.762c-.145.258-.274.525-.412.787-.065.132-.141.261-.2.4l-.177.408c-.115.273-.247.54-.338.823s-.2.56-.3.842l-.24.861-.06.216-.044.22-.089.44-.089.441-.058.447-.057.448-.028.224c-.009.075-.009.15-.014.226q-.024.452-.048.906a16.594,16.594,0,0,0,.08,1.823,16.144,16.144,0,0,0,1.086,4.326,18.731,18.731,0,0,0,2.206,3.969l.483.647c.166.211.343.412.513.618.334.417.712.791,1.071,1.179.18.194.378.369.565.553s.375.369.574.539l.593.512c.1.085.2.173.3.255l.307.241A24.794,24.794,0,0,1,6.4,52.143a19.8,19.8,0,0,1-2.618-4.12,16.525,16.525,0,0,1-1.408-4.654,15.331,15.331,0,0,1,.075-4.84A16.462,16.462,0,0,1,3.98,33.955a19.685,19.685,0,0,1,2.69-3.991,27.418,27.418,0,0,1,7.517-5.955,36.583,36.583,0,0,1,4.376-2.021c.747-.3,1.513-.548,2.276-.8L22,20.841c.386-.116.779-.206,1.167-.311a45.349,45.349,0,0,1,9.574-1.338,47.508,47.508,0,0,1,9.694.658,45.092,45.092,0,0,1,4.758,1.1A41.144,41.144,0,0,1,51.8,22.61a41.507,41.507,0,0,0-12.111-3.241,47.668,47.668,0,0,0-6.282-.3,47.173,47.173,0,0,0-6.339.533m3.079-.47,1.276-.107,1.276-.064c.424-.027.849-.024,1.273-.033s.847-.018,1.269,0a46.453,46.453,0,0,1,5.026.318,41.957,41.957,0,0,1,13.059,3.7A33.57,33.57,0,0,1,58.6,26.056a26.981,26.981,0,0,1,3.818,3.349,26.843,26.843,0,0,0-4.579-3.95,32.763,32.763,0,0,0-5.39-2.978,42.432,42.432,0,0,0-12.183-3.239c2.026.242,3.161.494,3.577.572s.108.019-.785-.158c-.447-.086-1.046-.173-1.772-.292-.731-.088-1.591-.212-2.571-.285A48.473,48.473,0,0,0,31.595,19c-.251.017-.788.071-1.45.126" transform="translate(-1.743 -18.356)" fill="#6f5a48"/>
              <path id="Tracé_46" data-name="Tracé 46" d="M7.211,52.9A24.837,24.837,0,0,0,11.2,56.962a31.528,31.528,0,0,0,4.753,3.174l-.91-.547c-.3-.187-.584-.381-.882-.575s-.594-.4-.9-.624l-.477-.337c-.161-.117-.322-.246-.49-.374a29.55,29.55,0,0,1-2.686-2.268,25.286,25.286,0,0,1-2.435-2.7,20.117,20.117,0,0,1-1.954-3.1,15.833,15.833,0,0,1-1.67-8.459,16.042,16.042,0,0,1,1.294-4.961,18.491,18.491,0,0,1,2.734-4.4,24.42,24.42,0,0,1,3.773-3.644A33.462,33.462,0,0,1,20.7,23.1a43.15,43.15,0,0,1,10.571-2.29c.714-.062,2.3-.171,3.489-.2a46.382,46.382,0,0,0-6.811.583,41.18,41.18,0,0,0-6.56,1.6,37.261,37.261,0,0,0-6.129,2.661,29.879,29.879,0,0,0-5.4,3.821,21.521,21.521,0,0,0-4.171,5.067l-.209.354c-.068.119-.126.243-.189.364-.123.244-.251.487-.37.733-.211.5-.445,1-.611,1.524-.2.512-.322,1.045-.471,1.573-.058.268-.108.537-.162.805-.024.135-.06.268-.074.4l-.051.407-.051.408-.025.2-.01.205-.041.822c-.01.275.009.549.011.824l.01.412.04.41a15.124,15.124,0,0,0,.633,3.238c.086.263.166.527.257.789l.307.771c.095.261.225.506.342.757s.23.506.372.744l.4.729c.143.239.3.47.445.706l.225.352.245.339c.165.225.324.454.493.676" transform="translate(-2.691 -19.632)" fill="#6f5a48"/>
              <path id="Tracé_47" data-name="Tracé 47" d="M113.824,28.306a30.885,30.885,0,0,1,3.214,2.267,24.919,24.919,0,0,1,2.755,2.659,23.713,23.713,0,0,0-2.742-2.719,29.371,29.371,0,0,0-3.3-2.359,34.613,34.613,0,0,0-4.756-2.4,39.668,39.668,0,0,0-5.036-1.683,37.667,37.667,0,0,1,9.862,4.238" transform="translate(-59.416 -21.579)" fill="#6f5a48"/>
              <path id="Tracé_48" data-name="Tracé 48" d="M75.339,20.5c.367,0,.733-.013,1.1-.006l1.107.027a50.188,50.188,0,0,1,5.13.443A46.2,46.2,0,0,1,87.813,22a44.6,44.6,0,0,0-5.446-1.14c-.46-.059-.919-.131-1.381-.18L79.6,20.543l-1.4-.091c-.466-.031-.934-.032-1.4-.049,0,.024-.153.04-.415.049s-.628.032-1.045.044" transform="translate(-43.266 -19.511)" fill="#6f5a48"/>
            </g>
          </g>
        </g>
        <path id="Tracé_49" data-name="Tracé 49" d="M120.338,70.576h0v0h0" transform="translate(-67.895 -39.819)" fill="#00667f"/>
        <path id="Tracé_50" data-name="Tracé 50" d="M116.815,77.791a3.143,3.143,0,0,1-2.723,1.574,3.144,3.144,0,0,0,5.445,0,3.142,3.142,0,0,1-2.722-1.574" transform="translate(-64.371 -43.89)" fill="#00667f"/>
        <path id="Tracé_51" data-name="Tracé 51" d="M116.814,59.29a3.143,3.143,0,0,1,2.724-1.574,3.144,3.144,0,0,0-5.447,0,3.143,3.143,0,0,1,2.724,1.574" transform="translate(-64.37 -31.676)" fill="#00667f"/>
        <path id="Tracé_52" data-name="Tracé 52" d="M120.339,70.575h0" transform="translate(-67.896 -39.819)" fill="#00667f"/>
        <path id="Tracé_53" data-name="Tracé 53" d="M126.587,62.9h0a3.144,3.144,0,0,1,2.723,1.572,3.144,3.144,0,0,0-2.723-4.717h0a3.143,3.143,0,0,1,0,3.145" transform="translate(-71.421 -33.713)" fill="#00667f"/>
        <path id="Tracé_54" data-name="Tracé 54" d="M120.341,70.576h0" transform="translate(-67.897 -39.819)" fill="#00667f"/>
        <path id="Tracé_55" data-name="Tracé 55" d="M120.337,70.576h0Z" transform="translate(-67.894 -39.819)" fill="#00667f"/>
        <path id="Tracé_56" data-name="Tracé 56" d="M110.017,62.9h0a3.142,3.142,0,0,1,0-3.145h0a3.144,3.144,0,0,0-2.723,4.717,3.143,3.143,0,0,1,2.723-1.572" transform="translate(-60.298 -33.713)" fill="#00667f"/>
        <path id="Tracé_57" data-name="Tracé 57" d="M119.795,63.365a3.141,3.141,0,0,0,0,3.142,3.141,3.141,0,0,0,0-3.142" transform="translate(-67.352 -35.751)" fill="#00667f"/>
        <path id="Tracé_58" data-name="Tracé 58" d="M126.589,72.15h0a3.141,3.141,0,0,1,0,3.145h0a3.144,3.144,0,0,0,2.723-4.717,3.143,3.143,0,0,1-2.723,1.572" transform="translate(-71.421 -39.821)" fill="#00667f"/>
        <path id="Tracé_59" data-name="Tracé 59" d="M120.342,70.576h0a3.144,3.144,0,0,0,2.723,1.573,3.144,3.144,0,0,0-2.722-1.574" transform="translate(-67.898 -39.819)" fill="#00667f"/>
        <path id="Tracé_60" data-name="Tracé 60" d="M123.064,66.97a3.143,3.143,0,0,0-2.721,1.571,3.143,3.143,0,0,0,2.721-1.571" transform="translate(-67.898 -37.785)" fill="#00667f"/>
        <path id="Tracé_61" data-name="Tracé 61" d="M110.017,72.15h0a3.144,3.144,0,0,1-2.723-1.572,3.145,3.145,0,0,0,2.723,4.717h0a3.141,3.141,0,0,1,0-3.145" transform="translate(-60.298 -39.821)" fill="#00667f"/>
        <path id="Tracé_62" data-name="Tracé 62" d="M114.089,72.149a3.143,3.143,0,0,0,2.723-1.572h0a3.144,3.144,0,0,0-2.722,1.574" transform="translate(-64.37 -39.819)" fill="#00667f"/>
        <path id="Tracé_63" data-name="Tracé 63" d="M114.092,66.97a3.143,3.143,0,0,0,2.721,1.571,3.143,3.143,0,0,0-2.721-1.571" transform="translate(-64.371 -37.785)" fill="#00667f"/>
        <path id="Tracé_64" data-name="Tracé 64" d="M119.795,73.724a3.141,3.141,0,0,0,0-3.142,3.141,3.141,0,0,0,0,3.142" transform="translate(-67.352 -39.823)" fill="#00667f"/>
      </g>
    </g>
  </g>
</svg>
