<svg xmlns="http://www.w3.org/2000/svg" xmlns:xlink="http://www.w3.org/1999/xlink" width="213.04" height="206.334" viewBox="0 0 213.04 206.334">
  <defs>
    <clipPath id="clip-path">
      <rect id="Rectangle_11" data-name="Rectangle 11" width="213.04" height="206.334" fill="none"/>
    </clipPath>
    <clipPath id="clip-path-2">
      <rect id="Rectangle_4" data-name="Rectangle 4" width="130.983" height="95.292" fill="none"/>
    </clipPath>
    <clipPath id="clip-path-3">
      <rect id="Rectangle_5" data-name="Rectangle 5" width="131.042" height="95.178" fill="none"/>
    </clipPath>
    <clipPath id="clip-path-4">
      <rect id="Rectangle_6" data-name="Rectangle 6" width="134.957" height="89.274" fill="none"/>
    </clipPath>
    <clipPath id="clip-path-5">
      <rect id="Rectangle_7" data-name="Rectangle 7" width="130.889" height="96.466" fill="none"/>
    </clipPath>
    <clipPath id="clip-path-6">
      <rect id="Rectangle_8" data-name="Rectangle 8" width="131.17" height="95.838" fill="none"/>
    </clipPath>
    <clipPath id="clip-path-7">
      <rect id="Rectangle_9" data-name="Rectangle 9" width="135.009" height="90.966" fill="none"/>
    </clipPath>
  </defs>
  <g id="Logo" clip-path="url(#clip-path)">
    <path id="Tracé_6" data-name="Tracé 6" d="M7.833,167.273H23.2v1.471H12.307V177.4h9.769v1.471H12.307v10.123H7.833Z" transform="translate(-0.831 -21.8)" fill="#00667f"/>
    <g id="Groupe_23" data-name="Groupe 23">
      <g id="Groupe_660" data-name="Groupe 660">
        <path id="Tracé_7" data-name="Tracé 7" d="M38.39,180.426h-3.6v8.562H30.436V167.273h8.589c5.232,0,8.951,1.794,8.951,6.532,0,3.178-1.9,5.267-5.019,6.149l5.261,9.033H43.38Zm.393-1.531c3.356,0,4.718-1.295,4.718-5.12s-1.391-5.032-4.838-5.032H34.791V178.9Z" transform="translate(-3.23 -21.8)" fill="#00667f"/>
        <path id="Tracé_8" data-name="Tracé 8" d="M62.434,167.273h3.993l8.256,21.715H70l-2.36-6.326H58.442l-2.329,6.326H54.36ZM58.957,181.22h8.135L63.01,170.273Z" transform="translate(-5.77 -21.8)" fill="#00667f"/>
        <path id="Tracé_9" data-name="Tracé 9" d="M77.472,167.273h18.54v1.471H88.995v20.244H84.519V168.745H77.472Z" transform="translate(-8.223 -21.8)" fill="#00667f"/>
        <path id="Tracé_10" data-name="Tracé 10" d="M103.427,167.273H118.94v1.471H107.9V177.1h9.92v1.471H107.9v8.945h11.19v1.472H103.427Z" transform="translate(-10.978 -21.8)" fill="#00667f"/>
        <path id="Tracé_11" data-name="Tracé 11" d="M135,180.426h-3.6v8.562h-4.355V167.273h8.589c5.232,0,8.951,1.794,8.951,6.532,0,3.178-1.9,5.267-5.019,6.149l5.261,9.033h-4.838Zm.393-1.531c3.356,0,4.718-1.295,4.718-5.12s-1.391-5.032-4.839-5.032H131.4V178.9Z" transform="translate(-13.484 -21.8)" fill="#00667f"/>
        <path id="Tracé_12" data-name="Tracé 12" d="M154.825,172.981v16.007H153.1V167.273h2.722l13.066,15.389V167.273h1.723v21.715h-2.449Z" transform="translate(-16.25 -21.8)" fill="#00667f"/>
        <rect id="Rectangle_3" data-name="Rectangle 3" width="4.506" height="21.716" transform="translate(160.988 145.473)" fill="#00667f"/>
        <path id="Tracé_13" data-name="Tracé 13" d="M190.56,167.273H209.1v1.471h-7.017v20.244h-4.476V168.745H190.56Z" transform="translate(-20.226 -21.8)" fill="#00667f"/>
        <path id="Tracé_14" data-name="Tracé 14" d="M216.515,166.277h15.514v1.471H220.99V176.1h9.92v1.471h-9.92v8.945h11.19v1.471H216.515Zm8.407-6.65h4.2l-4.114,5.326h-1.452Z" transform="translate(-22.981 -20.804)" fill="#00667f"/>
        <path id="Tracé_15" data-name="Tracé 15" d="M88.874,228.269h-9.74v-.425l1.374-.364c1.28-.335,1.467-.517,1.467-3.129V211.684c0-2.612-.187-2.855-1.467-3.129l-1.374-.3v-.425c2-.03,6.868-.213,10.209-.213,6.244,0,12.02,2.308,12.02,9.9,0,7.108-6.4,10.753-12.488,10.753m-.437-19.409c-1.186,0-2.623.09-3.278.121v14.944c0,2.855.437,3.129,1.717,3.129h1c6.118,0,9.8-3.038,9.8-9.143,0-5.953-3.216-9.052-9.242-9.052" transform="translate(-8.399 -27.058)" fill="#00667f"/>
        <path id="Tracé_16" data-name="Tracé 16" d="M108.149,228.291v-.425l1.373-.364c1.281-.334,1.468-.517,1.468-3.129V211.706c0-2.612-.187-2.794-1.468-3.128l-1.373-.364v-.425h14.735v4.04h-.5l-.375-1.366c-.312-1.124-1-1.428-4.5-1.428h-3.34v7.806h3.31c2.872,0,3.309-.091,3.621-1.155l.343-1.123h.468v5.953h-.468l-.375-1.276c-.312-1.063-.718-1.154-3.59-1.154h-3.31v5.831c0,2.856.438,3.129,1.718,3.129h2.4c3.215,0,4.121-.486,4.746-1.732l.686-1.4.532.123-.937,4.252Z" transform="translate(-11.479 -27.081)" fill="#00667f"/>
        <path id="Tracé_17" data-name="Tracé 17" d="M149.365,228.291v-.425l1.374-.364c1.28-.334,1.529-.517,1.467-3.129l-.281-11.572c-.031-1.094-.031-1.913-.031-2.764h-.063c-.218.577-.624,1.639-1.03,2.642l-6.338,15.612h-1.185l-6.37-15.278c-.375-.942-.811-1.944-1.03-2.642h-.063c.031.273.031,1.4,0,2.764l-.124,6.986c-.126,6.348.218,7.016,1.561,7.35l1.529.395v.425h-7.649v-.425l1.374-.364c1.217-.334,1.374-.972,1.467-5.862l.219-9.933c.063-2.581-.5-2.794-1.779-3.128l-1.468-.364v-.425h7.118l5.4,13.425a17.2,17.2,0,0,1,1.031,3.1h.063a24.226,24.226,0,0,1,1.185-3.128l5.5-13.395h6.618v.425l-1.374.364c-1.28.334-1.529.517-1.467,3.128l.312,12.666c.063,2.613.187,2.8,1.468,3.129l1.373.364v.425Z" transform="translate(-13.898 -27.081)" fill="#00667f"/>
        <path id="Tracé_18" data-name="Tracé 18" d="M178.143,228.25v-.425l1.373-.364c1.281-.335,1.593-.7.656-3.129l-1.311-3.463h-7.774l-.811,2.005c-1.5,3.706-1.249,4.191.156,4.587l1.311.364v.425H164.5v-.425l.874-.3c1.218-.425,1.467-.759,2.809-3.857l6.026-13.972a1.891,1.891,0,0,0,0-2.1l.063-.122h2.654l6.681,16.858c1,2.521,1.311,2.764,2.53,3.189l.873.3v.425ZM176.051,213.4c-.437-1.185-.781-2.218-.874-2.612h-.063c-.124.456-.53,1.519-.967,2.612l-2.529,6.2h6.774Z" transform="translate(-17.46 -27.04)" fill="#00667f"/>
        <path id="Tracé_19" data-name="Tracé 19" d="M192.921,228.291v-.425l1.373-.364c1.281-.334,1.468-.517,1.468-3.129V211.706c0-2.612-.187-2.794-1.468-3.128l-1.373-.364v-.425h8.866v.425l-1.374.364c-1.28.334-1.468.517-1.468,3.128v12.666c0,2.613.188,2.8,1.468,3.129l1.374.364v.425Z" transform="translate(-20.476 -27.081)" fill="#00667f"/>
        <path id="Tracé_20" data-name="Tracé 20" d="M226.358,228.655,214.214,213.71a15.144,15.144,0,0,1-1.842-2.52h-.063c0,.364.031,1.245.031,1.823v7.107c0,6.5.406,7.047,1.78,7.35l1.842.395v.425h-8.148v-.425l1.373-.364c1.218-.334,1.436-.972,1.436-5.862v-9.932c0-2.613-.5-2.856-1.78-3.129l-1.685-.364v-.425h6.493l10.583,13.243a12.616,12.616,0,0,1,1.841,2.672h.063c0-.759-.032-1.822-.032-2.187v-5.558c0-6.5-.4-7.047-1.779-7.35l-1.841-.395v-.425h8.148v.425l-1.374.364c-1.217.334-1.436.972-1.436,5.862v14.215Z" transform="translate(-21.987 -27.081)" fill="#00667f"/>
        <path id="Tracé_21" data-name="Tracé 21" d="M6.886,227.458a5.775,5.775,0,0,1-1.36-.168l-.752,3.6c-.4,1.886-.174,2,.723,2.2l1.446.337-.029.31H0l.029-.31,1.041-.252c.984-.226,1.158-.394,1.562-2.28l3.5-15.907a16.731,16.731,0,0,0-3.125,1.6l-.348-.646a14.93,14.93,0,0,1,3.646-1.773l.781-3.6,2-.31.173.083-.78,3.491a10.089,10.089,0,0,1,1.591-.111c2.951,0,5.122,1.491,5.122,4.475,0,4.5-3.849,9.262-8.306,9.262m2.634-12.893a8.4,8.4,0,0,0-1.187.055L5.9,225.657a3.378,3.378,0,0,0,1.91.619c3.356,0,5.006-4.2,5.006-7.658,0-2.138-1.07-4.053-3.3-4.053" transform="translate(0 -27.403)" fill="#6f5a48"/>
        <path id="Tracé_22" data-name="Tracé 22" d="M19.36,223.487c0-4.2,2.923-9.573,7.437-9.573,2.923,0,4.138,2.113,4.138,4.928,0,4.138-3.1,9.43-7.524,9.43-2.662,0-4.051-1.829-4.051-4.786m9.086-4.757c0-1.633-.2-4.027-2.17-4.027-3.3,0-4.427,6.222-4.427,8.84,0,2.28.55,3.941,2,3.941,3.356,0,4.6-6.109,4.6-8.755" transform="translate(-2.055 -27.879)" fill="#6f5a48"/>
        <path id="Tracé_23" data-name="Tracé 23" d="M35.563,225.957a12.035,12.035,0,0,1,.463-2.675l1.418-5.911c.261-1.071.261-1.944-.665-1.944a4.217,4.217,0,0,0-1.679.676l-.231-.395a8.117,8.117,0,0,1,3.558-1.632c1.91,0,1.592,1.632,1.273,2.928l-1.476,6.109c-.26,1.128-.781,3.266,1.042,3.266a5.185,5.185,0,0,0,2.922-1.718,5.673,5.673,0,0,0,2-3.52l1.476-6.587H47.8l-2.257,10.191c-.232.985-.232,1.943.694,1.943a4.223,4.223,0,0,0,1.679-.675l.232.394a8.112,8.112,0,0,1-3.559,1.633c-1.909,0-1.216-2.451-1.128-2.928l.2-1.015h-.058c-2.2,2.619-4.254,4.083-5.961,4.083a1.992,1.992,0,0,1-2.084-2.224" transform="translate(-3.701 -27.9)" fill="#6f5a48"/>
        <path id="Tracé_24" data-name="Tracé 24" d="M55.175,218.4c.232-1.014.695-2.985-.752-2.985a4.222,4.222,0,0,0-1.679.675l-.232-.394a8.127,8.127,0,0,1,3.559-1.633c1.91,0,1.533,2.2,1.388,2.928l-.232,1.155h.058c2.055-2.647,3.154-4.138,4.6-4.138a1.348,1.348,0,0,1,1.389,1.407,1.907,1.907,0,0,1-.955,1.689h-.29a1.56,1.56,0,0,0-1.274-.817,2.987,2.987,0,0,0-2.026,1.127,8.565,8.565,0,0,0-2.286,4.842l-1.216,5.518H53.091Z" transform="translate(-5.574 -27.892)" fill="#6f5a48"/>
        <g id="Groupe_6" data-name="Groupe 6" transform="translate(78.165 25.991)" opacity="0.8">
          <g id="Groupe_5" data-name="Groupe 5">
            <g id="Groupe_4" data-name="Groupe 4" clip-path="url(#clip-path-2)">
              <path id="Tracé_25" data-name="Tracé 25" d="M144.137,120.734a89.413,89.413,0,0,0,14.356,2.886,83.066,83.066,0,0,0,14.051.473,75.38,75.38,0,0,0,10.608-1.305,60.588,60.588,0,0,0,10.033-2.869,45.622,45.622,0,0,0,9.31-4.819,35.581,35.581,0,0,0,7.92-7.354,29.711,29.711,0,0,0,4.916-9.4A29.139,29.139,0,0,0,216.6,87.986c-.026-.447-.019-.9-.072-1.345s-.1-.9-.148-1.351c-.027-.225-.046-.452-.079-.677l-.12-.676q-.119-.676-.24-1.357c-.091-.451-.214-.9-.319-1.351l-.164-.678-.082-.339-.1-.336-.415-1.345c-.072-.224-.132-.452-.215-.673l-.248-.666a48.65,48.65,0,0,0-5.311-10.346,69.762,69.762,0,0,0-17.324-17.4c-.183-.135-.406-.309-.668-.492l-.866-.595c-.623-.418-1.293-.9-1.936-1.292-1.282-.79-2.331-1.4-2.17-1.181a95.8,95.8,0,0,0-22.252-9.941,93.471,93.471,0,0,0-11.775-2.762,85.149,85.149,0,0,0-11.986-1.124,92.168,92.168,0,0,0-10.229.3A62.641,62.641,0,0,0,119.8,34.042a67.594,67.594,0,0,0-7.725,2.565,49.616,49.616,0,0,0-7.168,3.642l-.844.537c-.282.179-.567.351-.831.552L101.609,42.5l-1.538,1.257c-.263.2-.5.434-.741.658l-.725.675a32.275,32.275,0,0,0-4.977,6.069A28.3,28.3,0,0,0,92.247,53.8c-.505.992-.846,2.019-1.091,2.569a28.159,28.159,0,0,0-2.067,10.239A33.708,33.708,0,0,0,90.5,76.718a43.834,43.834,0,0,0,4.035,9.289,57.974,57.974,0,0,0,5.842,8.323c.882,1.013,1.691,1.985,2.55,2.863.425.443.824.894,1.251,1.311l1.27,1.244c.414.419.85.814,1.29,1.21l1.318,1.2,1.394,1.183c.472.4.948.813,1.461,1.206a9.145,9.145,0,0,1,1,.692l.727.554c.264.2.556.4.856.608l1.808,1.323,1.332.911c.484.325.989.7,1.551,1.041,2.205,1.449,4.95,3.049,7.7,4.516,1.4.69,2.764,1.419,4.1,2.008l1.919.882,1.773.748c1.106.485,2.085.849,2.834,1.142s1.276.5,1.51.6c.115.05-.437-.145-1.491-.524-.526-.193-1.183-.417-1.933-.706l-2.53-1.013c-.929-.382-1.921-.841-2.985-1.3s-2.152-1.031-3.3-1.578c-2.253-1.171-4.652-2.457-6.947-3.907-2.323-1.411-4.538-2.981-6.574-4.493-2.008-1.547-3.836-3.041-5.31-4.4l-1.063-.965c-.338-.305-.635-.616-.925-.895-.571-.567-1.081-1.044-1.469-1.452-.775-.819-1.2-1.254-1.141-1.176.08.1.443.5,1.023,1.126.282.322.653.67,1.056,1.078s.854.862,1.356,1.34a79.419,79.419,0,0,0,7.775,6.448,87.5,87.5,0,0,0,8.771,5.619c.64.382,1.27.686,1.829.991l1.514.8,1.82.893a90.192,90.192,0,0,1-15.276-9.073,77.356,77.356,0,0,1-10.68-9.6,60.413,60.413,0,0,1-6.774-8.945c-.41-.7-.821-1.37-1.19-2.028q-.526-1-1.013-1.927c-.592-1.261-1.149-2.418-1.556-3.518a37.334,37.334,0,0,1-2.4-8.914c-.216-1.575-.253-1.778-.154-.935.054.421.123,1.106.257,2.005.185.891.344,2.013.706,3.276a42.772,42.772,0,0,0,3.508,9.019,56.127,56.127,0,0,0,6.7,9.98,71.032,71.032,0,0,0,8.788,8.725c.471.4.964.828,1.494,1.262l1.7,1.325c.588.471,1.242.915,1.91,1.4l1.029.734c.353.245.725.481,1.1.73a96.261,96.261,0,0,0,10.908,6.256l-1.033-.486-1.122-.57c-.775-.4-1.625-.8-2.469-1.28l-1.3-.711c-.439-.237-.882-.48-1.313-.744-.865-.523-1.756-1.019-2.591-1.557s-1.66-1.052-2.421-1.566l-2.109-1.466c-1.259-.934-2.254-1.682-2.785-2.117l-1.7-1.412c-.267-.216-.517-.432-.753-.647l-.688-.615c-.442-.4-.861-.757-1.239-1.111l-1.05-1.009-.935-.9-.819-.85c-.52-.551-1.035-1.046-1.5-1.6s-.971-1.1-1.5-1.716c-.507-.636-1.064-1.328-1.692-2.135a55.9,55.9,0,0,1-4.422-6.934,44.972,44.972,0,0,1-3.791-9.4q-.174-.674-.353-1.359l-.089-.344-.067-.349c-.046-.233-.091-.466-.137-.7-.087-.469-.193-.938-.265-1.415s-.123-.958-.185-1.44l-.092-.724-.045-.731q-.044-.732-.088-1.465c-.01-.489,0-.979.006-1.47a14.62,14.62,0,0,1,.051-1.468,31.107,31.107,0,0,1,2.711-10.94,32.759,32.759,0,0,1,5.05-7.8c-.228.244-.434.543-.672.847l-.747.978-.2.261-.185.282-.383.58c-.256.4-.542.8-.8,1.237a34.756,34.756,0,0,0-2.822,6.021A35.194,35.194,0,0,0,88.458,63.3c-.084,1.151-.209,2.271-.188,3.35-.044,1.078.04,2.1.082,3.063a33.585,33.585,0,0,1,3.539-17.37,32.383,32.383,0,0,1,4.461-6.476,36.991,36.991,0,0,1,8.4-6.935c.712-.43,1.5-.867,2.317-1.35l1.3-.672c.448-.224.892-.481,1.372-.686l1.365-.582c.227-.1.453-.2.684-.289l.707-.262,1.469-.544c.507-.187,1.047-.34,1.607-.524a66.853,66.853,0,0,1,10.457-2.478,77.087,77.087,0,0,1,10.351-.9,87.858,87.858,0,0,1,20.8,2.123c-.608-.129-1.1-.263-1.593-.395s-1-.238-1.62-.359c-1.527-.326-3.045-.539-4.538-.776-.749-.105-1.5-.183-2.238-.273l-1.111-.129-1.109-.09-2.209-.168-2.2-.089c-.733-.04-1.466-.033-2.2-.035l-1.1,0c-.366,0-.734,0-1.1.017a74.689,74.689,0,0,0-18.244,2.643,52.614,52.614,0,0,0-8.174,3.111A53.858,53.858,0,0,0,102.9,40a41.791,41.791,0,0,0-5.866,4.743,39.806,39.806,0,0,1,6.053-5.06,45.008,45.008,0,0,1,7.3-4.013c.645-.284,1.288-.581,1.954-.822s1.32-.517,1.989-.751l2.02-.668c.673-.221,1.361-.391,2.04-.589a65.639,65.639,0,0,1,8.2-1.7c1.123-.195,2.37-.332,3.552-.5.591-.091,1.17-.13,1.71-.19l1.484-.15-1.9.127c-.316.024-.634.037-.95.07l-.947.1-1.9.2-1.89.277-.946.141-.941.177-1.882.359-1.869.437c-.311.075-.625.141-.934.224l-.926.259-1.63.463-1.635.546-.827.277c-.276.1-.546.209-.821.313l-1.652.644c-.548.231-1.091.484-1.64.727l-.824.37-.81.41c-.539.278-1.084.549-1.622.837l-1.587.923c-.538.3-1.041.651-1.558.986s-1.038.665-1.523,1.047l-1.483,1.107-1.413,1.194c-.482.385-.908.831-1.355,1.251l-.663.637c-.226.207-.418.447-.628.668-.409.454-.831.894-1.224,1.357l-1.128,1.418a8.68,8.68,0,0,0-.532.727l-.507.737-.5.735-.451.763-.445.758c-.145.254-.3.5-.424.764q-.385.78-.763,1.551a7.768,7.768,0,0,0-.342.781q-.16.394-.316.784l-.315.777c-.106.257-.175.526-.264.787l-.5,1.557q-.192.787-.378,1.554-.093.384-.183.764-.064.385-.127.765-.126.759-.249,1.5-.07.746-.139,1.469c-.023.242-.046.481-.069.717s-.017.474-.027.708c-.023.937-.069,1.841-.01,2.707q.024.651.047,1.273c.029.414.078.817.114,1.211.06.372.088.744.228,1.489.024.188.065.444.114.731.2,1.214.539,2.519.881,3.85.2.657.4,1.321.6,1.979s.46,1.291.678,1.92l-.6-1.588c-.183-.536-.343-1.078-.516-1.618l-.254-.81-.207-.824c-.134-.55-.28-1.1-.4-1.65-.213-1.085-.483-2.174-.6-3.3-.038-.279-.075-.56-.114-.841l-.055-.422-.029-.425q-.055-.853-.11-1.712A31.1,31.1,0,0,1,90.119,54.2,34.623,34.623,0,0,1,93.856,47.9a37.7,37.7,0,0,1,5.1-5.4l1.437-1.193c.49-.384,1-.741,1.5-1.113.254-.18.5-.376.76-.544l.785-.508.785-.508.393-.254.4-.232,1.623-.927c.545-.3,1.108-.565,1.662-.849l.834-.419.852-.377c.569-.247,1.133-.51,1.705-.744,1.159-.44,2.3-.917,3.481-1.285.587-.189,1.166-.405,1.757-.571l1.772-.507c.519-.162,1.093-.288,1.7-.431s1.242-.3,1.907-.425l2.054-.373c.349-.069.7-.118,1.059-.165l1.072-.147,1.07-.148c.357-.044.713-.072,1.066-.11l2.075-.2,1.946-.128.9-.064.845-.036a79.223,79.223,0,0,1,9.643.114A85.362,85.362,0,0,1,153.7,31.56a96.767,96.767,0,0,1,18.568,5.355l1.986.825.992.414.977.445,1.954.891,1.922.954c1.291.618,2.529,1.333,3.789,2.005.624.346,1.233.719,1.849,1.078s1.234.717,1.83,1.108l1.8,1.148c.6.389,1.176.8,1.765,1.2,1.186.788,2.3,1.668,3.45,2.507l1.663,1.33.829.667.8.7c.533.467,1.078.92,1.6,1.4l1.55,1.451c.526.474,1,1,1.506,1.493s1,1,1.465,1.53l1.423,1.567,1.356,1.621a61.2,61.2,0,0,1,4.87,6.876,44.328,44.328,0,0,1,5.945,15.55,31.888,31.888,0,0,1-1.431,16.373,31.277,31.277,0,0,1-3.9,7.3,34.65,34.65,0,0,1-5.624,6.094,40.529,40.529,0,0,1-6.86,4.691l-.911.5c-.307.16-.623.306-.934.459l-.937.455-.467.228-.479.2-1.917.811-1.954.718a63.006,63.006,0,0,1-8.018,2.193c-.678.143-1.363.247-2.044.372l-1.023.178-1.029.138c-.686.087-1.369.2-2.058.264l-2.065.195c-.511.066-1.027.091-1.539.13l-1.532.109,1.324-.03-1.446.071c-.482.023-.964.015-1.444.024a78.585,78.585,0,0,1-16.733-1.205c-1.113-.2-.122-.055,1.361.163l1.182.173c.408.051.825.091,1.22.135.792.083,1.506.154,1.939.183l-2.489-.307.484-.034c-.479-.046-.859-.09-1.2-.154l-.978-.2,1.14.169,1.145.129c.764.081,1.527.183,2.293.246l2.3.177c.767.066,1.537.072,2.306.112a77.47,77.47,0,0,0,9.241-.17,73.4,73.4,0,0,0,9.16-1.282,61.621,61.621,0,0,0,8.871-2.575c-.342.091-.8.267-1.347.428s-1.158.355-1.778.553c-.309.1-.626.195-.939.277l-.912.25c-.587.157-1.115.321-1.541.4a64.255,64.255,0,0,1-11.76,1.858,75.154,75.154,0,0,1-7.866.176l-1.975-.1-.989-.05-.985-.085-1.97-.171-1.959-.237c-1.308-.141-2.6-.377-3.89-.576-.646-.091-1.283-.238-1.922-.357s-1.276-.243-1.908-.377c-2.524-.564-5.008-1.17-7.411-1.891l-1.324-.415-.659-.206-.649-.229-2.557-.91c-.53-.2-.645-.266-.464-.226s.659.181,1.306.37,1.473.447,2.354.728c.89.255,1.84.527,2.729.8m39.039-78.122a90,90,0,0,1,8.637,5.578l1.477,1.092c.489.366.989.72,1.461,1.111l1.842,1.464,1.9,1.593a73.736,73.736,0,0,1,6.834,6.963c.515.626,1.046,1.239,1.546,1.875l1.471,1.932,1.382,1.993c.451.671.863,1.365,1.3,2.046a56.19,56.19,0,0,0-5.832-8.2,67.871,67.871,0,0,0-8.119-8.018,67.9,67.9,0,0,1,10.719,11.089c.778.977,1.459,2.012,2.165,3.021.343.511.657,1.039.985,1.556l.485.777c.155.263.3.53.449.8l.884,1.591.8,1.625c.279.534.5,1.092.74,1.642l.353.826.175.413.153.421.611,1.68c.19.563.346,1.137.519,1.7.082.284.175.566.248.853l.2.864.2.863.1.43c.03.144.051.29.077.436l.293,1.742c.081.583.125,1.17.189,1.754.024.292.072.583.077.877l.03.881c.013.586.061,1.172.021,1.759l-.067,1.758-.189,1.752-.049.437-.08.434-.158.868-.159.868-.222.856-.223.856-.112.428c-.038.143-.093.281-.139.421l-.576,1.68a32.6,32.6,0,0,1-1.48,3.25,31.779,31.779,0,0,1-5.04,7.144,37.84,37.84,0,0,1-6.873,5.766l-1.349.869c-.456.277-.925.531-1.385.8-.91.55-1.877.991-2.815,1.475-.468.242-.962.435-1.44.654s-.956.44-1.447.625l-1.468.567c-.244.093-.486.192-.733.28l-.744.248a51.045,51.045,0,0,0,9.016-3.914,40.1,40.1,0,0,0,7.9-5.725,32.794,32.794,0,0,0,6.029-7.57,29.919,29.919,0,0,0,3.389-9.012,32.033,32.033,0,0,0,.436-9.619,38.624,38.624,0,0,0-2.229-9.42,54.848,54.848,0,0,0-10.131-16.645,74.386,74.386,0,0,0-7-6.976c-1.232-1.1-2.532-2.127-3.829-3.159l-2-1.485c-.664-.5-1.361-.951-2.042-1.428a93.612,93.612,0,0,0-17.676-9.4,98.941,98.941,0,0,0-19.462-5.636,94.775,94.775,0,0,0-10.163-1.257,86.7,86.7,0,0,0-10.307-.038,90.438,90.438,0,0,1,26.126,2.654A99.989,99.989,0,0,1,171.3,37.01a96.424,96.424,0,0,1,11.872,5.6m-5.788-2.753-2.4-1.079-2.431-1c-.8-.343-1.631-.626-2.448-.932s-1.634-.611-2.464-.871a94.491,94.491,0,0,0-10-2.8A93.449,93.449,0,0,0,143.568,31.1a78.759,78.759,0,0,0-13.942.223,66.255,66.255,0,0,0-12.442,2.492,49.1,49.1,0,0,0-9.634,4.065,56.086,56.086,0,0,1,11.587-4.521,68.6,68.6,0,0,1,12.534-2.126,87.81,87.81,0,0,1,25.969,1.952c-4.105-.93-6.492-1.228-7.356-1.362s-.224-.03,1.637.25c.93.144,2.153.392,3.65.664,1.482.333,3.239.689,5.2,1.218a103.056,103.056,0,0,1,13.878,4.707c.485.182,1.493.646,2.742,1.2" transform="translate(-87.446 -29.918)" fill="#6f5a48"/>
              <path id="Tracé_26" data-name="Tracé 26" d="M210.8,118.56a58.016,58.016,0,0,1-22.057,6.9l2.147-.217c.705-.088,1.4-.2,2.122-.3s1.445-.241,2.208-.389l1.172-.23c.4-.085.805-.193,1.226-.295a52.759,52.759,0,0,0,6.871-2.2,49.615,49.615,0,0,0,6.712-3.306,41.811,41.811,0,0,0,6.1-4.465,33.964,33.964,0,0,0,5.014-5.508,31.454,31.454,0,0,0,4.723-9.439,32.076,32.076,0,0,0,1.238-10.58,37.032,37.032,0,0,0-2.1-10.567,49.083,49.083,0,0,0-4.763-9.809,68.137,68.137,0,0,0-14.8-16.425,89.45,89.45,0,0,0-19.235-11.85c-1.356-.64-4.4-1.974-6.769-2.779a98.642,98.642,0,0,1,12.976,5.987,86.261,86.261,0,0,1,11.726,7.765,76.838,76.838,0,0,1,10.1,9.5A60.632,60.632,0,0,1,223.22,71.6a43.11,43.11,0,0,1,4.44,12.793l.146.834c.046.278.066.561.1.841.058.562.127,1.122.177,1.683.038,1.129.124,2.254.056,3.382,0,1.129-.153,2.25-.261,3.37-.088.557-.194,1.111-.29,1.666-.055.277-.087.557-.161.83l-.209.819-.21.819-.105.41-.134.4-.543,1.6c-.189.531-.432,1.043-.645,1.565l-.332.778-.388.753a30.534,30.534,0,0,1-3.682,5.681c-.366.433-.721.874-1.093,1.3l-1.177,1.229c-.38.421-.817.787-1.232,1.175s-.824.78-1.279,1.124l-1.328,1.068c-.454.343-.926.663-1.388.994l-.7.493-.725.453c-.485.3-.964.609-1.454.9" transform="translate(-97.334 -30.826)" fill="#6f5a48"/>
              <path id="Tracé_27" data-name="Tracé 27" d="M124.4,31.351a69.765,69.765,0,0,0-8.128,2.3,59.618,59.618,0,0,0-7.556,3.357,62.223,62.223,0,0,1,7.652-3.271,68.8,68.8,0,0,1,8.365-2.259,78.888,78.888,0,0,1,22.478-1.211,77.047,77.047,0,0,0-22.811,1.08" transform="translate(-89.704 -29.886)" fill="#6f5a48"/>
              <path id="Tracé_28" data-name="Tracé 28" d="M177.549,36.218c-.72-.264-1.434-.548-2.162-.8l-2.2-.74A99.653,99.653,0,0,0,162.727,31.9a95.03,95.03,0,0,0-10.944-1.568,94.6,94.6,0,0,1,11.576,1.831c.948.226,1.9.426,2.844.672l2.824.755,2.8.849c.935.28,1.852.619,2.781.927.01-.048.333.02.862.164s1.251.405,2.078.691" transform="translate(-94.275 -29.944)" fill="#6f5a48"/>
            </g>
          </g>
        </g>
        <g id="Groupe_9" data-name="Groupe 9" transform="translate(78.052)" opacity="0.8">
          <g id="Groupe_8" data-name="Groupe 8">
            <g id="Groupe_7" data-name="Groupe 7" clip-path="url(#clip-path-3)">
              <path id="Tracé_29" data-name="Tracé 29" d="M173.355,86.622a88.052,88.052,0,0,0,13.066-6.464A80.709,80.709,0,0,0,197.7,71.993a72.362,72.362,0,0,0,7.449-7.463,57.648,57.648,0,0,0,6-8.335,43.251,43.251,0,0,0,4.181-9.42A34.115,34.115,0,0,0,216.8,36.22a29.322,29.322,0,0,0-2.193-10.331,29.808,29.808,0,0,0-5.656-8.862c-.307-.333-.59-.689-.92-1.007l-.982-.964c-.165-.16-.326-.325-.5-.482l-.526-.455-1.058-.914c-.361-.3-.744-.573-1.116-.862l-.564-.43-.282-.216-.295-.2-1.187-.8c-.2-.131-.393-.273-.6-.4l-.62-.369a51.218,51.218,0,0,0-10.787-4.857A72.67,72.67,0,0,0,164.815,2c-.229.007-.515.006-.837.022l-1.059.062c-.755.051-1.587.082-2.341.166-1.509.162-2.721.32-2.454.395A96.721,96.721,0,0,0,134.363,8.4a92.465,92.465,0,0,0-10.97,4.994,83.2,83.2,0,0,0-10.085,6.4,89.02,89.02,0,0,0-7.8,6.448,59.928,59.928,0,0,0-6.793,7.443,64.528,64.528,0,0,0-4.389,6.695,47.139,47.139,0,0,0-3.262,7.2l-.316.931c-.1.311-.217.619-.295.938l-.517,1.892-.4,1.916c-.075.318-.112.642-.156.964l-.134.967a31.214,31.214,0,0,0,.007,7.764,27.548,27.548,0,0,0,.613,2.9c.242,1.081.634,2.09.8,2.669a28.564,28.564,0,0,0,4.955,9.254,35.16,35.16,0,0,0,7.586,7.043,46.175,46.175,0,0,0,9.112,4.806,60.872,60.872,0,0,0,9.9,2.953c1.339.256,2.595.524,3.829.688.616.088,1.217.2,1.819.264l1.79.2c.592.076,1.186.119,1.783.162l1.8.137,1.847.077c.626.026,1.262.06,1.916.055a9.3,9.3,0,0,1,1.227-.067l.922-.009c.333-.006.689-.029,1.059-.045l2.261-.065,1.625-.1c.587-.04,1.219-.057,1.88-.13,2.652-.206,5.823-.624,8.916-1.151,1.536-.312,3.07-.57,4.492-.921l2.065-.477,1.865-.492c1.175-.292,2.173-.6,2.947-.829s1.32-.383,1.567-.445c.122-.031-.434.151-1.5.5-.534.168-1.191.392-1.963.623l-2.626.744c-.971.266-2.041.51-3.169.794-1.133.269-2.343.5-3.59.77-2.512.454-5.21.906-7.935,1.167-2.719.31-5.457.427-8.018.484-2.561.01-4.948-.046-6.972-.213l-1.45-.109c-.459-.033-.891-.1-1.3-.137-.81-.1-1.513-.158-2.079-.242-1.132-.169-1.739-.254-1.646-.226.123.027.665.118,1.521.258.427.08.94.127,1.517.2s1.219.154,1.919.223a82.062,82.062,0,0,0,10.211.314,89.409,89.409,0,0,0,10.457-.937c.745-.09,1.433-.236,2.065-.336l1.7-.291,2-.408a92.063,92.063,0,0,1-17.756,2.19,80.305,80.305,0,0,1-14.5-1.01,63.364,63.364,0,0,1-11.032-2.873c-.771-.3-1.52-.571-2.23-.863l-2.028-.89c-1.271-.626-2.449-1.19-3.473-1.8a39.146,39.146,0,0,1-7.6-5.5c-1.179-1.1-1.338-1.236-.72-.637.313.3.806.79,1.487,1.411.716.584,1.56,1.364,2.653,2.13a44.977,44.977,0,0,0,8.527,4.915,58.952,58.952,0,0,0,11.64,3.727,73.957,73.957,0,0,0,12.463,1.479c.626.027,1.284.062,1.976.078h2.182c.762.011,1.558-.04,2.389-.069l1.275-.051c.434-.023.875-.064,1.326-.1A98.075,98.075,0,0,0,156.1,93l-1.119.248-1.242.236c-.863.157-1.783.362-2.75.5l-1.47.233c-.5.081-1,.161-1.5.217-1.012.117-2.026.27-3.024.357s-1.971.186-2.9.247l-2.589.137c-1.583.035-2.841.054-3.534.037l-2.238-.068c-.347-.006-.681-.024-1-.049l-.932-.062c-.6-.043-1.158-.07-1.68-.117l-1.469-.15-1.306-.134-1.185-.167c-.76-.115-1.48-.188-2.2-.336s-1.463-.267-2.273-.429c-.8-.19-1.683-.391-2.692-.641a58.615,58.615,0,0,1-7.9-2.731,47.3,47.3,0,0,1-8.989-5.037l-1.149-.848-.289-.214L100.383,84l-.556-.464c-.369-.315-.754-.616-1.115-.945l-1.069-1.012-.536-.51-.5-.544-1.009-1.091c-.322-.377-.626-.769-.939-1.152s-.631-.764-.9-1.178a31.406,31.406,0,0,1-4.9-10.193,32.023,32.023,0,0,1-1.061-9.165c-.022.33.009.689.018,1.071s.029.79.044,1.218c0,.108.008.216.012.325s.024.22.036.332q.036.337.073.686c.056.467.089.954.169,1.452A34.489,34.489,0,0,0,89.8,69.249a35.622,35.622,0,0,0,3.2,6.32c.673.949,1.294,1.9,2,2.731.658.869,1.382,1.619,2.029,2.343a34.84,34.84,0,0,1-5.845-8.5,34.081,34.081,0,0,1-2.536-7.219,31.613,31.613,0,0,1-.669-7.769A35.361,35.361,0,0,1,90.1,46.637c.28-.768.613-1.586.944-2.461l.586-1.317c.206-.446.389-.918.632-1.37l.692-1.283c.116-.213.229-.429.349-.642l.384-.634.8-1.317c.275-.453.6-.9.919-1.385a63.814,63.814,0,0,1,6.58-8.286,74.045,74.045,0,0,1,7.508-6.992A85.866,85.866,0,0,1,127.1,9.977c-.558.268-1.027.461-1.5.658s-.932.419-1.5.7c-1.4.673-2.724,1.429-4.043,2.151-.653.372-1.286.766-1.924,1.146l-.951.574-.925.6-1.832,1.21-1.778,1.269c-.6.414-1.166.864-1.74,1.309l-.861.667c-.289.22-.573.445-.849.683A71.672,71.672,0,0,0,96.649,34.094a50,50,0,0,0-4.39,7.395A51.178,51.178,0,0,0,89.341,48.6,39.958,39.958,0,0,0,87.8,55.866a38.08,38.08,0,0,1,1.482-7.63,42.858,42.858,0,0,1,3.129-7.569c.323-.614.634-1.237,1-1.829s.7-1.205,1.072-1.8L95.634,35.3c.384-.582.813-1.132,1.216-1.7a62.8,62.8,0,0,1,5.312-6.306c.752-.834,1.638-1.7,2.455-2.547.4-.43.83-.812,1.214-1.187l1.063-1.018-1.4,1.253c-.232.21-.471.414-.7.631l-.676.654-1.351,1.312-1.3,1.365-.648.684-.621.711-1.24,1.424-1.18,1.476c-.2.248-.4.49-.586.742l-.557.765-.977,1.351-.927,1.42-.468.718c-.154.243-.292.495-.44.744l-.879,1.506c-.28.513-.542,1.04-.814,1.565q-.2.393-.407.789-.185.406-.369.813c-.242.544-.5,1.086-.73,1.638q-.323.84-.648,1.685c-.231.557-.4,1.141-.585,1.717s-.384,1.15-.518,1.743l-.448,1.765L88.089,52.8c-.13.594-.177,1.2-.257,1.8l-.109.9c-.043.3-.04.6-.063.9-.028.6-.075,1.2-.085,1.8q.015.9.029,1.794a8.457,8.457,0,0,0,.051.89l.078.885c.026.294.051.587.077.88q.07.436.138.869l.139.863c.05.286.082.575.158.854q.2.844.4,1.675a8.029,8.029,0,0,0,.234.818c.085.27.171.537.256.805l.254.8c.081.266.2.517.3.775q.307.768.609,1.52l.7,1.443.346.708c.131.227.263.451.392.675l.767,1.323.834,1.231.407.6c.133.2.291.38.433.569.583.745,1.128,1.48,1.73,2.121l.854.966c.289.306.585.59.866.877.286.255.547.528,1.133,1.024.139.132.336.308.559.5.934.828,2.037,1.641,3.159,2.472l1.741,1.18c.585.383,1.188.729,1.761,1.089l-1.488-.876c-.486-.306-.96-.634-1.441-.95l-.718-.478-.691-.517c-.458-.349-.922-.687-1.374-1.044-.863-.718-1.772-1.405-2.586-2.211l-.627-.588-.315-.3-.3-.315-1.184-1.271a34.212,34.212,0,0,1-4.066-5.762,33.332,33.332,0,0,1-2.724-6.654,34.011,34.011,0,0,1-1.127-7.2,36.39,36.39,0,0,1,.514-7.317l.358-1.8c.137-.6.307-1.188.459-1.782.082-.295.147-.6.244-.887L89.2,47.6l.287-.874.144-.437.168-.428.673-1.71c.234-.565.5-1.115.754-1.673l.382-.833.425-.812c.286-.539.557-1.086.855-1.618.623-1.047,1.21-2.115,1.895-3.117.338-.5.651-1.024,1.006-1.514l1.058-1.471c.3-.443.669-.89,1.049-1.369s.777-.99,1.217-1.491l1.365-1.538c.229-.265.474-.52.722-.773l.742-.765.743-.765c.249-.251.51-.49.762-.733l1.489-1.42,1.438-1.282.663-.6.636-.541a76.822,76.822,0,0,1,7.607-5.768,83.316,83.316,0,0,1,8.33-4.92,96.271,96.271,0,0,1,17.941-7.095l2.081-.562,1.04-.279,1.049-.245,2.1-.49,2.114-.422c1.4-.3,2.831-.495,4.246-.735.71-.109,1.425-.187,2.136-.282s1.424-.19,2.14-.245l2.145-.2c.715-.059,1.434-.087,2.15-.132,1.432-.105,2.87-.1,4.3-.137l2.152.029,1.075.018,1.074.055c.717.042,1.433.064,2.148.121l2.142.192c.715.05,1.423.169,2.134.252s1.422.174,2.127.3l2.117.36,2.1.444a64.03,64.03,0,0,1,8.215,2.414,46.6,46.6,0,0,1,14.621,8.536,32.7,32.7,0,0,1,9.389,13.661,30.86,30.86,0,0,1,1.637,8.072,33.439,33.439,0,0,1-.484,8.177,38.6,38.6,0,0,1-2.35,7.831l-.388.947c-.138.311-.291.617-.435.926l-.44.924-.22.461-.244.45-.977,1.8-1.065,1.748a60.1,60.1,0,0,1-4.855,6.583c-.438.523-.907,1.021-1.359,1.532l-.685.76-.715.733c-.48.485-.943.986-1.437,1.457l-1.488,1.406c-.357.362-.744.694-1.119,1.037L198.6,72.571l1.015-.829-1.084.935c-.362.31-.744.6-1.112.9A76.639,76.639,0,0,1,183.575,82.8c-1,.519-.132.031,1.167-.7l1.033-.583c.352-.208.7-.429,1.04-.636.672-.416,1.275-.794,1.632-1.034l-2.142,1.272.356-.321c-.4.256-.729.452-1.037.609l-.891.44,1-.561.978-.595c.649-.4,1.309-.784,1.949-1.2l1.911-1.259c.642-.414,1.248-.877,1.873-1.313a75.072,75.072,0,0,0,7.11-5.745,70.64,70.64,0,0,0,6.334-6.565,58.854,58.854,0,0,0,5.277-7.4c-.209.28-.456.7-.778,1.152s-.676.98-1.034,1.512c-.174.269-.363.532-.555.786l-.552.749c-.358.479-.665.929-.945,1.252a61.531,61.531,0,0,1-7.995,8.594,72.591,72.591,0,0,1-6.032,4.915l-1.605,1.124-.8.561-.824.532-1.649,1.063-1.684,1c-1.111.684-2.271,1.285-3.407,1.913-.564.321-1.155.592-1.73.889s-1.153.584-1.732.864c-2.334,1.091-4.663,2.127-7,3.023l-1.3.481-.647.238-.653.217-2.582.842c-.544.163-.675.184-.508.105s.631-.258,1.258-.5,1.438-.546,2.307-.862c.858-.341,1.775-.706,2.643-1.035M153.728,1.882A92.345,92.345,0,0,1,164.054.993L165.908.95c.618-.011,1.234-.038,1.855-.019l2.379.023,2.506.091a76.812,76.812,0,0,1,9.807,1.287c.8.177,1.612.333,2.411.526l2.388.616,2.359.717c.782.25,1.551.542,2.327.811a58.86,58.86,0,0,0-9.818-2.864A70.729,70.729,0,0,0,170.634.806a70.8,70.8,0,0,1,15.489,2.153c1.234.29,2.431.686,3.631,1.045.6.191,1.179.413,1.767.617l.878.312c.29.11.575.233.862.349l1.711.707,1.668.783c.56.249,1.093.548,1.632.834l.805.43.4.217.39.236,1.555.942c.51.324,1,.677,1.5,1.015.247.172.5.336.741.515l.712.552.711.551.355.275c.116.095.226.2.339.294l1.348,1.183c.437.406.848.837,1.273,1.255.206.214.431.412.623.638l.588.67c.387.45.8.879,1.145,1.362l1.076,1.415.975,1.484.243.371.216.387.433.774.433.775.376.8.374.8.188.4c.061.135.106.276.161.413l.628,1.663a32.277,32.277,0,0,1,.928,3.438,30.929,30.929,0,0,1,.647,8.642,36.11,36.11,0,0,1-1.67,8.679q-.248.75-.5,1.5c-.179.493-.383.977-.57,1.464-.358.982-.83,1.914-1.252,2.862-.212.473-.473.924-.705,1.385s-.465.924-.73,1.367l-.782,1.334c-.131.222-.257.446-.393.664l-.422.646a48.59,48.59,0,0,0,4.533-8.534,38.242,38.242,0,0,0,2.5-9.271,31.791,31.791,0,0,0-.147-9.576,29.894,29.894,0,0,0-3.135-9.1,32.921,32.921,0,0,0-5.832-7.779,40.394,40.394,0,0,0-7.786-6.005,57.645,57.645,0,0,0-18.6-6.85,77.549,77.549,0,0,0-9.94-1.2c-1.67-.112-3.343-.123-5.018-.141l-2.512.05c-.838.015-1.673.084-2.511.124A95.187,95.187,0,0,0,142.13,4.124a98.559,98.559,0,0,0-18.82,7.417,92.911,92.911,0,0,0-8.746,5.192,83.947,83.947,0,0,0-8.076,6.229A88.43,88.43,0,0,1,128.6,9.169a99.74,99.74,0,0,1,12.258-4.453,97.589,97.589,0,0,1,12.87-2.834m-6.288,1.365-2.569.616-2.538.7c-.848.221-1.677.5-2.512.759s-1.668.515-2.484.816a93.944,93.944,0,0,0-9.607,3.889A91.7,91.7,0,0,0,115.4,16.944a76.243,76.243,0,0,0-10.749,8.642,63.326,63.326,0,0,0-8.12,9.5,46.6,46.6,0,0,0-4.918,9.027,53.29,53.29,0,0,1,6.151-10.57,65.7,65.7,0,0,1,8.427-9.273,85.621,85.621,0,0,1,21.54-14.248c-3.8,1.766-5.86,2.983-6.62,3.4s-.195.113,1.439-.8c.818-.452,1.933-1,3.277-1.7,1.372-.641,2.972-1.431,4.84-2.2a103.2,103.2,0,0,1,13.861-4.753c.5-.151,1.581-.4,2.912-.728" transform="translate(-87.32 -0.042)" fill="#6f5a48"/>
              <path id="Tracé_30" data-name="Tracé 30" d="M221.975,49.685a55.262,55.262,0,0,1-12.805,18.787L210.709,67c.493-.5.97-1.007,1.465-1.523s.975-1.065,1.476-1.645l.768-.891c.257-.31.505-.64.77-.975a50.331,50.331,0,0,0,3.957-5.891,47.218,47.218,0,0,0,3.121-6.66,39.8,39.8,0,0,0,1.9-7.191,32.725,32.725,0,0,0,.383-7.348,31.1,31.1,0,0,0-2.367-10.243,32.837,32.837,0,0,0-5.821-9.018,38.769,38.769,0,0,0-8.42-6.979,51.748,51.748,0,0,0-10.016-4.77,71.141,71.141,0,0,0-22.1-3.84,91.412,91.412,0,0,0-22.63,2.425c-1.47.324-4.705,1.131-7.071,1.94a99.7,99.7,0,0,1,13.978-3.2A88.522,88.522,0,0,1,174.24.129a79.864,79.864,0,0,1,13.984,1.291,63.636,63.636,0,0,1,13.318,4.038,45.294,45.294,0,0,1,11.677,7.3l.65.563c.215.19.411.4.617.6.407.4.82.8,1.218,1.208.754.857,1.544,1.685,2.215,2.607.725.881,1.323,1.851,1.958,2.792.289.489.561.986.842,1.478.135.25.29.488.407.746l.362.767.362.767.181.384.153.4.6,1.581c.193.529.331,1.077.5,1.614l.24.809.18.824a29.792,29.792,0,0,1,.769,6.674c-.007.56,0,1.121-.02,1.68l-.131,1.675c-.027.559-.134,1.111-.208,1.665s-.144,1.111-.278,1.655l-.352,1.642c-.135.544-.3,1.08-.447,1.619l-.228.809-.276.794c-.188.529-.361,1.061-.56,1.585" transform="translate(-93.561 0)" fill="#6f5a48"/>
              <path id="Tracé_31" data-name="Tracé 31" d="M99.188,32.449a66.436,66.436,0,0,0-4.872,6.736,56.666,56.666,0,0,0-3.75,7.212,59.21,59.21,0,0,1,3.88-7.2,65.525,65.525,0,0,1,5.085-6.845,76.141,76.141,0,0,1,16.783-14.6,74.437,74.437,0,0,0-17.127,14.7" transform="translate(-87.665 -2.313)" fill="#6f5a48"/>
              <path id="Tracé_32" data-name="Tracé 32" d="M143.28,5.047c-.733.23-1.472.443-2.2.691l-2.194.758a99.207,99.207,0,0,0-9.957,4.177,93.357,93.357,0,0,0-9.555,5.422,93.043,93.043,0,0,1,10.219-5.6c.885-.4,1.758-.823,2.653-1.2l2.691-1.125,2.732-1.038c.911-.35,1.845-.641,2.767-.965-.022-.043.273-.186.779-.395s1.237-.444,2.067-.722" transform="translate(-90.722 -0.658)" fill="#6f5a48"/>
            </g>
          </g>
        </g>
        <g id="Groupe_12" data-name="Groupe 12" transform="translate(78.083 15.551)" opacity="0.8">
          <g id="Groupe_11" data-name="Groupe 11">
            <g id="Groupe_10" data-name="Groupe 10" clip-path="url(#clip-path-4)">
              <path id="Tracé_33" data-name="Tracé 33" d="M161.272,106.261a89.453,89.453,0,0,0,14.517-1.975,82.43,82.43,0,0,0,13.4-4.148,74.147,74.147,0,0,0,9.54-4.7,59.112,59.112,0,0,0,8.458-5.982,44.3,44.3,0,0,0,7.105-7.583,34.652,34.652,0,0,0,4.92-9.515,29.205,29.205,0,0,0-1-20.633c-.179-.412-.328-.839-.533-1.244l-.607-1.223c-.1-.2-.2-.411-.308-.614l-.346-.6-.695-1.2c-.242-.4-.512-.777-.767-1.168l-.39-.584-.195-.293-.212-.283-.855-1.131c-.145-.187-.281-.383-.434-.564l-.464-.545a49.937,49.937,0,0,0-8.575-8.008A71.59,71.59,0,0,0,181.5,23.544c-.219-.067-.489-.158-.8-.245l-1.022-.277c-.731-.19-1.529-.425-2.27-.584-1.48-.325-2.68-.558-2.453-.4a97.066,97.066,0,0,0-24.391-2.087,93.647,93.647,0,0,0-12.044,1.248,84.817,84.817,0,0,0-11.677,2.859,91.068,91.068,0,0,0-9.53,3.627,61.555,61.555,0,0,0-8.914,4.886,66.374,66.374,0,0,0-6.389,4.941,48.429,48.429,0,0,0-5.493,5.775l-.61.78c-.2.261-.412.517-.593.793L94.2,46.482l-1.016,1.686c-.177.277-.319.572-.47.863l-.45.872a31.5,31.5,0,0,0-2.59,7.344,27.312,27.312,0,0,0-.391,2.936c-.132,1.1-.1,2.178-.14,2.777a28.115,28.115,0,0,0,1.59,10.319,34.277,34.277,0,0,0,4.817,9.063,44.99,44.99,0,0,0,7.009,7.429,59.562,59.562,0,0,0,8.377,5.929c1.181.665,2.278,1.318,3.39,1.863.553.278,1.085.572,1.632.825l1.626.757c.535.259,1.082.489,1.632.717l1.657.7,1.721.658c.583.223,1.173.457,1.792.658a9.276,9.276,0,0,1,1.183.325l.875.284c.316.1.661.192,1.016.293l2.16.654,1.569.424c.569.148,1.171.332,1.821.473,2.577.644,5.714,1.253,8.815,1.735,1.557.191,3.094.433,4.555.551l2.112.2,1.928.126c1.209.095,2.256.117,3.064.149s1.376.057,1.63.075c.126.01-.461.007-1.585-.005-.561-.01-1.258-.006-2.065-.032L148.733,107c-1.007-.056-2.1-.164-3.262-.252-1.161-.1-2.382-.268-3.652-.409-2.526-.366-5.229-.792-7.893-1.408-2.674-.57-5.3-1.324-7.744-2.082-2.425-.8-4.663-1.61-6.521-2.409l-1.335-.562c-.423-.177-.81-.372-1.18-.54-.734-.348-1.378-.63-1.885-.887-1.014-.518-1.56-.791-1.48-.735.108.064.589.323,1.352.726.377.21.846.417,1.367.67s1.1.532,1.739.819a81.369,81.369,0,0,0,9.55,3.53,89.094,89.094,0,0,0,10.2,2.425c.734.151,1.433.231,2.064.337l1.7.263,2.022.246a91.9,91.9,0,0,1-17.521-3.552,79.321,79.321,0,0,1-13.373-5.546,62.115,62.115,0,0,1-9.47-6.21c-.628-.526-1.247-1.022-1.821-1.521l-1.62-1.485c-.993-.994-1.918-1.9-2.681-2.8a38.1,38.1,0,0,1-5.342-7.61c-.747-1.413-.853-1.591-.467-.83.2.378.5,1,.934,1.8.482.778,1.019,1.784,1.8,2.854a43.779,43.779,0,0,0,6.418,7.348,57.749,57.749,0,0,0,9.76,7.209,72.99,72.99,0,0,0,11.289,5.345c.583.224,1.193.464,1.843.7l2.063.691c.716.251,1.486.456,2.282.691l1.222.355c.417.116.848.217,1.286.329a97.88,97.88,0,0,0,12.434,2.326l-1.141-.12-1.253-.17c-.869-.124-1.807-.222-2.767-.4l-1.468-.245c-.5-.08-1-.164-1.495-.271-.995-.21-2.006-.386-2.978-.619s-1.926-.449-2.82-.684l-2.493-.691c-1.509-.469-2.7-.848-3.355-1.084l-2.093-.773c-.326-.116-.636-.238-.932-.364l-.861-.354c-.553-.23-1.073-.432-1.551-.642l-1.337-.606-1.191-.541-1.065-.532c-.68-.35-1.337-.647-1.97-1.015s-1.293-.716-2-1.125c-.7-.433-1.461-.9-2.331-1.458a57.484,57.484,0,0,1-6.56-5.085,46.114,46.114,0,0,1-6.815-7.61l-.8-1.165-.2-.294-.184-.306-.371-.616c-.243-.414-.506-.82-.737-1.246l-.672-1.3-.337-.652-.294-.673-.589-1.351c-.178-.457-.334-.924-.5-1.386s-.341-.923-.459-1.4a31.008,31.008,0,0,1-1.226-11.191,32.118,32.118,0,0,1,2.062-9c-.131.3-.222.653-.341,1.018l-.366,1.165c-.032.1-.064.206-.1.31s-.051.216-.078.325q-.078.329-.16.672c-.1.459-.234.93-.325,1.426a34.269,34.269,0,0,0-.578,6.593,35.1,35.1,0,0,0,.914,6.99c.318,1.111.588,2.207.981,3.216.331,1.03.765,1.97,1.135,2.858a33.524,33.524,0,0,1-2.666-17.516,31.744,31.744,0,0,1,1.966-7.558,35.993,35.993,0,0,1,5.513-9.277c.522-.637,1.111-1.306,1.717-2.029L98.632,39c.344-.357.674-.744,1.056-1.1l1.084-.994c.181-.164.359-.333.544-.5l.576-.477,1.2-.992c.412-.342.868-.662,1.332-1.018a65.59,65.59,0,0,1,8.994-5.752,76,76,0,0,1,9.437-4.234,87.515,87.515,0,0,1,20.324-4.8c-.617.077-1.125.111-1.637.149s-1.022.1-1.649.19c-1.55.193-3.054.489-4.543.754-.742.145-1.472.317-2.2.474l-1.091.242-1.076.277-2.138.564-2.105.637c-.7.2-1.393.448-2.084.686l-1.037.358c-.347.117-.692.24-1.032.377a73.52,73.52,0,0,0-16.27,8.454,51.4,51.4,0,0,0-6.624,5.6,52.4,52.4,0,0,0-5.137,5.8,40.666,40.666,0,0,0-3.887,6.385,38.758,38.758,0,0,1,3.954-6.745,43.822,43.822,0,0,1,5.49-6.166c.51-.478,1.013-.969,1.557-1.413s1.065-.918,1.614-1.358l1.672-1.289c.558-.429,1.147-.814,1.718-1.222a64.342,64.342,0,0,1,7.132-4.281c.99-.551,2.117-1.088,3.173-1.632.525-.279,1.057-.505,1.545-.738l1.345-.626-1.744.741c-.29.126-.585.242-.871.377l-.858.4-1.715.813-1.685.879-.842.442-.825.475-1.648.953-1.61,1.022c-.267.173-.539.337-.8.517l-.782.547-1.376.969-1.352,1.049-.683.531c-.227.18-.442.375-.665.564l-1.335,1.146c-.436.4-.86.812-1.293,1.221l-.649.617-.62.651c-.411.438-.831.871-1.239,1.318l-1.176,1.388c-.4.455-.756.954-1.126,1.438s-.748.965-1.074,1.484L92.879,45.7l-.918,1.586c-.321.52-.569,1.079-.845,1.621l-.4.817c-.141.27-.24.557-.361.835-.228.561-.474,1.113-.684,1.678l-.573,1.7a8.5,8.5,0,0,0-.249.858l-.223.861q-.111.429-.222.857c-.054.29-.106.577-.16.865s-.1.574-.157.86-.114.57-.136.857q-.093.861-.183,1.71a7.954,7.954,0,0,0-.053.848q-.013.423-.028.843l-.027.835c-.012.277.017.552.023.827q.033.823.068,1.63.091.8.181,1.587.046.391.091.779.072.384.145.762l.283,1.493q.19.725.376,1.429.093.352.183.7c.059.231.147.451.219.676.3.889.571,1.756.926,2.552q.247.605.484,1.184c.17.38.356.744.526,1.1.185.331.341.672.729,1.328.087.169.215.4.359.651.606,1.078,1.378,2.2,2.16,3.338l1.252,1.667c.425.547.879,1.065,1.3,1.587l-1.115-1.3c-.358-.444-.7-.9-1.044-1.355l-.519-.679-.48-.708c-.316-.474-.643-.942-.95-1.422-.576-.952-1.2-1.889-1.706-2.909l-.4-.755-.2-.379-.175-.391-.695-1.577a33.5,33.5,0,0,1-1.917-6.735,32.893,32.893,0,0,1-.35-7.154A33.989,33.989,0,0,1,88.758,54.1a36.809,36.809,0,0,1,2.933-6.755l.942-1.594c.329-.522.686-1.025,1.03-1.539.177-.253.339-.517.527-.761l.564-.735.564-.735.282-.368.3-.351,1.208-1.4c.411-.46.849-.895,1.273-1.344l.64-.667.672-.633c.451-.419.89-.851,1.35-1.259.939-.793,1.851-1.617,2.834-2.347.488-.37.957-.763,1.458-1.113l1.493-1.057c.433-.323.931-.629,1.451-.962s1.065-.689,1.649-1.024l1.807-1.024c.3-.178.621-.341.941-.5l.957-.489.958-.489c.32-.159.646-.3.966-.452l1.883-.871,1.789-.757.827-.356.783-.31a78.311,78.311,0,0,1,9.122-3.045,85.039,85.039,0,0,1,9.521-2.015,97.333,97.333,0,0,1,19.338-1.027l2.156.127,1.077.066,1.074.1,2.148.2,2.14.27c1.428.16,2.842.429,4.261.65.707.122,1.41.274,2.114.41s1.41.272,2.106.446l2.094.492c.7.17,1.385.371,2.076.556,1.39.354,2.746.818,4.115,1.233l2.026.709,1.01.357,1,.393c.663.265,1.334.514,1.991.794l1.961.859c.659.275,1.289.611,1.934.914s1.285.615,1.908.962l1.881,1.011,1.838,1.084a62.592,62.592,0,0,1,6.961,4.884,45.412,45.412,0,0,1,10.97,12.7,32.058,32.058,0,0,1,4.308,15.889,30.824,30.824,0,0,1-1.153,8.151,33.839,33.839,0,0,1-3.192,7.579,39.465,39.465,0,0,1-4.842,6.661l-.684.772c-.234.25-.481.491-.721.737l-.725.735-.362.367-.381.349-1.526,1.391-1.592,1.316A61.72,61.72,0,0,1,200,95.972c-.588.356-1.2.677-1.8,1.018l-.9.5-.922.466c-.617.306-1.222.634-1.847.922l-1.878.858c-.459.23-.935.422-1.4.626l-1.405.6,1.235-.462-1.337.54c-.446.179-.9.33-1.352.495a78.156,78.156,0,0,1-16.176,4.336c-1.118.176-.135-.012,1.338-.292l1.172-.223c.4-.085.809-.183,1.2-.271.774-.181,1.471-.348,1.889-.461l-2.45.524.443-.19c-.467.113-.84.2-1.183.247l-.99.134,1.132-.214,1.124-.253c.747-.174,1.5-.328,2.244-.517l2.228-.586c.745-.188,1.473-.434,2.211-.648a76.761,76.761,0,0,0,8.645-3.181,72.412,72.412,0,0,0,8.185-4.2,60.561,60.561,0,0,0,7.466-5.326c-.291.2-.663.513-1.121.844s-.967.712-1.484,1.1c-.255.2-.521.388-.788.568l-.771.534c-.5.339-.94.667-1.312.884a63.192,63.192,0,0,1-10.434,5.595,74.558,74.558,0,0,1-7.348,2.738l-1.9.555-.947.276-.958.242-1.914.483-1.928.417c-1.28.295-2.578.5-3.862.73-.641.125-1.291.195-1.933.293s-1.285.188-1.927.269c-2.572.294-5.12.535-7.633.642l-1.39.043-.692.021-.69,0-2.722-.021c-.57-.018-.7-.04-.517-.062s.684-.044,1.359-.078,1.542-.06,2.469-.084c.926-.05,1.916-.105,2.846-.141m9.787-86.342a91.975,91.975,0,0,1,10.061,2.429l1.768.547c.587.185,1.18.355,1.76.569l2.241.777,2.34.879a75.83,75.83,0,0,1,8.842,4.322c.7.422,1.412.825,2.1,1.261l2.052,1.338,1.99,1.425c.656.484,1.285,1,1.929,1.5a57.675,57.675,0,0,0-8.326-5.816,69.674,69.674,0,0,0-10.415-4.9A69.74,69.74,0,0,1,201.33,31.2c1.07.666,2.069,1.419,3.083,2.139.5.37.977.764,1.464,1.143l.726.574c.237.2.466.4.7.6l1.382,1.21L210,38.131c.447.413.85.865,1.264,1.305l.618.663.307.331.29.347,1.155,1.383c.374.469.719.958,1.078,1.434.176.241.36.476.529.722l.489.747.488.747.243.372c.079.126.148.257.223.385l.879,1.545c.277.522.522,1.061.784,1.59.124.268.269.525.375.8l.333.819c.214.549.462,1.084.627,1.651l.544,1.678.426,1.712.105.428.075.435.15.869.15.87.087.878.085.879.043.44c.012.146.009.294.014.442q.019.883.038,1.771a32.139,32.139,0,0,1-.272,3.545,31.091,31.091,0,0,1-2.279,8.377,36.77,36.77,0,0,1-4.482,7.677l-.97,1.259c-.333.41-.687.8-1.029,1.2-.668.815-1.426,1.547-2.141,2.309-.358.381-.756.724-1.131,1.087s-.748.727-1.148,1.062l-1.186,1.014c-.2.168-.391.34-.593.5l-.615.477a49.807,49.807,0,0,0,7.14-6.634,38.975,38.975,0,0,0,5.461-7.976,32.036,32.036,0,0,0,3.065-9.1,29.641,29.641,0,0,0,.079-9.6,32.247,32.247,0,0,0-2.911-9.2,39.4,39.4,0,0,0-5.353-8.144,56.372,56.372,0,0,0-15.291-12.365,76.411,76.411,0,0,0-9-4.282c-1.541-.635-3.12-1.176-4.7-1.723l-2.393-.748c-.8-.25-1.611-.45-2.416-.677a95.19,95.19,0,0,0-19.9-3.076,99.594,99.594,0,0,0-20.276,1.055,94.368,94.368,0,0,0-10.006,2.139,85.619,85.619,0,0,0-9.721,3.333,90.092,90.092,0,0,1,25.522-6.042,100.636,100.636,0,0,1,13.08-.329,97.869,97.869,0,0,1,13.117,1.395m-6.4-.7-2.635-.231-2.633-.143c-.876-.06-1.754-.057-2.629-.078s-1.749-.041-2.622-.015a95.037,95.037,0,0,0-10.385.635,93.42,93.42,0,0,0-13.975,2.638,78.074,78.074,0,0,0-13.054,4.768,64.98,64.98,0,0,0-10.857,6.415,47.852,47.852,0,0,0-7.67,6.978,54.665,54.665,0,0,1,9.352-8.046,67.475,67.475,0,0,1,11.07-6.1,87.358,87.358,0,0,1,25.134-6.652c-4.188.466-6.539.965-7.4,1.122s-.222.045,1.628-.3c.925-.169,2.164-.336,3.667-.569,1.512-.171,3.289-.41,5.314-.551a104.1,104.1,0,0,1,14.7-.1c.52.013,1.629.121,3,.233" transform="translate(-87.355 -17.9)" fill="#6f5a48"/>
              <path id="Tracé_34" data-name="Tracé 34" d="M221.968,84.782a56.724,56.724,0,0,1-18.392,13.709l1.948-.906c.634-.314,1.254-.645,1.9-.976s1.278-.7,1.945-1.088l1.025-.6c.347-.211.691-.445,1.053-.678a51.632,51.632,0,0,0,5.713-4.318,48.219,48.219,0,0,0,5.179-5.308,40.579,40.579,0,0,0,4.2-6.2,33.073,33.073,0,0,0,2.82-6.826,30.994,30.994,0,0,0,1.188-10.435,32.185,32.185,0,0,0-2.488-10.37,37.793,37.793,0,0,0-5.627-9.265,50.467,50.467,0,0,0-7.875-7.681,69.954,69.954,0,0,0-19.615-10.63,91.177,91.177,0,0,0-22.21-4.873c-1.5-.159-4.828-.42-7.336-.4a99.974,99.974,0,0,1,14.29,1.4,88.136,88.136,0,0,1,13.725,3.48A78.957,78.957,0,0,1,206.2,28.457a62.321,62.321,0,0,1,11.241,8.035,44.116,44.116,0,0,1,8.6,10.6l.425.737c.139.248.256.507.384.76.249.51.507,1.015.748,1.527.426,1.05.9,2.083,1.221,3.167.392,1.063.633,2.168.918,3.26.109.553.2,1.11.3,1.664.044.278.111.553.135.834l.086.84.085.84.043.42.012.422.043,1.686c.005.562-.047,1.123-.069,1.684l-.043.842-.105.837a29.933,29.933,0,0,1-1.505,6.554c-.195.527-.377,1.058-.581,1.582l-.684,1.542c-.212.521-.5,1.009-.754,1.509s-.508,1-.816,1.478L225,80.715c-.309.471-.644.926-.964,1.39l-.486.692-.526.664c-.354.44-.7.889-1.059,1.322" transform="translate(-95.638 -17.889)" fill="#6f5a48"/>
              <path id="Tracé_35" data-name="Tracé 35" d="M110.829,29.716a68.188,68.188,0,0,0-6.859,4.827,57.951,57.951,0,0,0-5.958,5.632,60.613,60.613,0,0,1,6.078-5.582,67.312,67.312,0,0,1,7.1-4.863A77.98,77.98,0,0,1,131.94,21.24a76.2,76.2,0,0,0-21.111,8.476" transform="translate(-88.486 -18.32)" fill="#6f5a48"/>
              <path id="Tracé_36" data-name="Tracé 36" d="M162.271,17.926c-.77-.014-1.54-.047-2.312-.044l-2.329.023a100.592,100.592,0,0,0-10.811.8,95.091,95.091,0,0,0-10.849,2.1,94.661,94.661,0,0,1,11.535-2.059c.971-.1,1.938-.221,2.91-.3l2.92-.212,2.931-.117c.978-.043,1.958-.022,2.94-.037-.007-.048.32-.09.868-.127s1.318-.028,2.2-.028" transform="translate(-92.515 -17.882)" fill="#6f5a48"/>
            </g>
          </g>
        </g>
        <g id="Groupe_15" data-name="Groupe 15" transform="translate(5.609 26.594)" opacity="0.8">
          <g id="Groupe_14" data-name="Groupe 14">
            <g id="Groupe_13" data-name="Groupe 13" clip-path="url(#clip-path-5)">
              <path id="Tracé_37" data-name="Tracé 37" d="M81.757,123.552a98.52,98.52,0,0,1-14.83,2.871,91.276,91.276,0,0,1-14.542.536,71.152,71.152,0,0,1-11.037-1.4,60.733,60.733,0,0,1-10.464-3.166,48.218,48.218,0,0,1-9.736-5.273,38.921,38.921,0,0,1-8.335-7.965A32.434,32.434,0,0,1,7.633,99.016,31.45,31.45,0,0,1,6.326,87.939c.037-.475.041-.954.105-1.428s.123-.951.185-1.428c.032-.238.058-.478.1-.716l.139-.711q.139-.711.28-1.426c.1-.475.24-.943.359-1.417l.186-.709.093-.356.114-.35L8.342,78c.079-.233.147-.471.236-.7l.269-.691A51.445,51.445,0,0,1,14.5,65.942,73.638,73.638,0,0,1,32.344,48.2c.19-.133.421-.305.692-.487l.893-.593c.641-.417,1.326-.9,1.976-1.311,1.3-.818,2.325-1.5,2.051-1.453a99.82,99.82,0,0,1,22.807-9.8A97.917,97.917,0,0,1,84.929,30.61a76.474,76.474,0,0,1,20.683,2.281A59.575,59.575,0,0,1,113.52,35.5a48.5,48.5,0,0,1,7.312,3.827l.86.564c.286.189.576.37.846.581l1.646,1.223,1.566,1.316c.266.212.507.454.754.688l.737.7a35.552,35.552,0,0,1,5.108,6.285c.392.637,1.063,1.619,1.574,2.656a22.1,22.1,0,0,1,1.221,2.637,31.886,31.886,0,0,1,2.014,10.662,37.17,37.17,0,0,1-1.324,10.468,46.335,46.335,0,0,1-3.914,9.672,57.041,57.041,0,0,1-5.8,8.7c-.89,1.052-1.708,2.065-2.575,2.979-.429.461-.833.931-1.266,1.365l-1.285,1.295c-.42.436-.862.846-1.309,1.256l-1.343,1.244-1.424,1.218c-.483.411-.971.834-1.5,1.235a9.36,9.36,0,0,1-.929.827l-.728.59c-.265.21-.559.423-.857.652-.408.295-1.046.765-1.866,1.342l-1.377.917c-.5.327-1.025.7-1.607,1.042-2.284,1.447-5.124,3.03-7.969,4.464-1.445.674-2.854,1.385-4.231,1.951-.684.292-1.343.584-1.98.846l-1.826.711c-1.14.458-2.148.795-2.923,1.061s-1.32.448-1.567.523c-.122.037.434-.174,1.5-.571.531-.2,1.2-.436,1.954-.736l2.558-1.048c.94-.394,1.944-.865,3.019-1.343s2.177-1.059,3.337-1.622c2.279-1.2,4.7-2.519,7.026-4,2.348-1.445,4.587-3.053,6.643-4.6,2.028-1.585,3.872-3.117,5.356-4.513l1.069-.991c.34-.314.638-.633.93-.92.573-.584,1.082-1.075,1.469-1.5.771-.848,1.18-1.305,1.1-1.244-.092.089-.469.488-1.063,1.122-.291.324-.668.675-1.078,1.087s-.869.871-1.378,1.356a82.31,82.31,0,0,1-7.87,6.537,88.058,88.058,0,0,1-8.864,5.7c-.647.387-1.284.7-1.849,1l-1.532.812-1.846.893a90.613,90.613,0,0,0,15.23-9.461,77.516,77.516,0,0,0,10.545-9.875,60.247,60.247,0,0,0,6.6-9.12c.4-.712.791-1.391,1.145-2.058l.969-1.951c.562-1.275,1.092-2.441,1.471-3.55a35.932,35.932,0,0,0,2.153-8.927c.162-1.567.173-1.768.071-.934-.055.416-.12,1.094-.242,1.985-.175.884-.318,2-.661,3.253A43.163,43.163,0,0,1,131.98,84.8a56.71,56.71,0,0,1-6.5,10.085,72.62,72.62,0,0,1-8.611,8.93l-1.5,1.268-1.695,1.35c-.583.484-1.23.94-1.891,1.438l-1.017.758c-.35.253-.718.5-1.087.756A84.269,84.269,0,0,1,98.8,115.822l1.023-.52,1.106-.613c.764-.431,1.6-.866,2.426-1.385l1.269-.769c.429-.257.862-.52,1.282-.8.843-.564,1.709-1.1,2.52-1.677s1.608-1.128,2.345-1.676l2.037-1.556c1.215-.986,2.177-1.767,2.7-2.207l1.663-1.448c.26-.221.5-.444.731-.664l.668-.631c.426-.408.832-.778,1.2-1.143l1.008-1.037c.315-.326.611-.632.895-.924l.779-.873c.5-.566.986-1.074,1.432-1.637l1.435-1.739,1.636-2.139a60.736,60.736,0,0,0,4.341-6.856,41.41,41.41,0,0,0,3.659-9.256l.327-1.336.081-.337.062-.343c.04-.228.081-.457.122-.687.077-.46.174-.919.236-1.385s.1-.937.157-1.408l.078-.706.029-.712q.031-.712.061-1.426c0-.476-.022-.951-.033-1.427a13.966,13.966,0,0,0-.077-1.422,29.974,29.974,0,0,0-2.824-10.5,32.219,32.219,0,0,0-4.979-7.41c.235.222.448.5.695.775l.774.9.207.24.193.26.4.538c.267.37.568.742.838,1.151a32.168,32.168,0,0,1,3.029,5.706,31.732,31.732,0,0,1,1.765,6.683,31.521,31.521,0,0,1,.249,3.3,27.871,27.871,0,0,1-.074,3.021,29.22,29.22,0,0,0-.852-10.053,29.525,29.525,0,0,0-2.882-6.942,34.453,34.453,0,0,0-4.626-6.1A41.29,41.29,0,0,0,119.676,40c-.694-.417-1.464-.832-2.27-1.286l-1.284-.625c-.442-.207-.88-.445-1.355-.632l-1.316-.595c-.22-.1-.438-.2-.661-.3l-.684-.27-1.423-.562c-.49-.193-1.015-.353-1.56-.545a62.557,62.557,0,0,0-10.263-2.4,74.829,74.829,0,0,0-10.183-.811A92.884,92.884,0,0,0,68.195,34.1c.6-.133,1.091-.218,1.589-.3s1-.128,1.618-.233c1.51-.277,3.005-.454,4.475-.664.737-.093,1.471-.16,2.2-.242l1.091-.118,1.089-.083L82.42,32.3l2.158-.092c.718-.042,1.436-.04,2.154-.046l1.077-.01c.359-.007.72-.007,1.079.008a68.39,68.39,0,0,1,17.833,2.492,57.093,57.093,0,0,1,8.046,2.8,43.811,43.811,0,0,1,6.587,3.749,40.884,40.884,0,0,1,5.513,4.7,41.168,41.168,0,0,0-5.882-4.739,45.084,45.084,0,0,0-7.05-3.808c-.624-.27-1.243-.557-1.89-.786s-1.276-.5-1.924-.721l-1.957-.642c-.652-.214-1.32-.377-1.978-.568a62.263,62.263,0,0,0-7.97-1.63c-1.093-.177-2.317-.253-3.474-.35-.577-.057-1.145-.058-1.672-.083l-1.448-.053,1.843.131c.307.024.615.038.922.071l.918.1,1.839.2,1.83.273.915.137.909.174,1.819.347,1.8.422c.3.072.6.136.9.215l.892.25,1.574.435,1.577.511.8.258c.266.089.526.195.791.291l1.6.6c.528.214,1.051.449,1.582.674l.8.342.78.38c.519.257,1.047.508,1.566.773l1.533.855c.521.273,1,.6,1.5.913s1,.615,1.472.97l1.435,1.026,1.366,1.109c.467.357.879.772,1.311,1.164l.644.593c.219.192.4.416.609.622.4.424.806.833,1.186,1.265l1.1,1.325a7.931,7.931,0,0,1,.516.68l.493.691c.164.23.328.459.491.689l.438.716.434.713c.141.238.3.469.414.717l.744,1.461a7.2,7.2,0,0,1,.334.737l.309.742c.1.246.2.491.306.735s.171.5.257.745l.485,1.477q.184.745.365,1.475l.176.725q.06.367.12.728.118.723.233,1.426.062.71.122,1.4.029.344.058.684c.021.226.01.451.017.674a24.952,24.952,0,0,1-.046,2.578q-.042.618-.081,1.211c-.042.393-.105.776-.156,1.149-.043.357-.053.712-.156,1.428-.044.177-.1.419-.152.692a34.925,34.925,0,0,1-.863,3.677l-.622,1.884c-.223.622-.486,1.224-.724,1.817l.585-1.519c.179-.511.334-1.031.5-1.545l.249-.774.2-.784c.13-.524.274-1.046.4-1.572.162-1.042.385-2.084.464-3.15q.042-.4.084-.8l.042-.4.016-.4q.031-.8.063-1.617a32.919,32.919,0,0,0-.609-6.521,32.071,32.071,0,0,0-2.059-6.368,33.149,33.149,0,0,0-3.508-5.858,35.721,35.721,0,0,0-4.783-5.05l-1.354-1.122c-.462-.361-.947-.7-1.419-1.048-.24-.17-.469-.354-.718-.513l-.745-.479-.745-.48-.372-.239-.386-.219-1.543-.877c-.52-.283-1.058-.534-1.587-.8l-.795-.4-.816-.356c-.545-.233-1.082-.481-1.632-.7-1.113-.412-2.208-.862-3.343-1.2-.565-.177-1.119-.379-1.69-.532l-1.707-.467c-.5-.145-1.056-.261-1.638-.4s-1.192-.295-1.832-.423l-1.974-.391c-.335-.073-.677-.128-1.02-.18L98.24,33.25l-1.032-.164c-.344-.051-.689-.084-1.031-.127l-2.007-.231-1.887-.137-.875-.059c-.283-.012-.558-.015-.821-.022a84.732,84.732,0,0,0-9.371.207,90.524,90.524,0,0,0-9.41,1.184A103.016,103.016,0,0,0,53.6,38.89l-1.958.774-.978.388-.964.42-1.929.839-1.9.9c-1.276.583-2.5,1.262-3.747,1.9-.618.329-1.22.684-1.832,1.024s-1.222.681-1.813,1.054L36.687,47.28c-.592.37-1.166.766-1.75,1.148-1.179.751-2.288,1.593-3.429,2.4L29.853,52.1l-.825.639-.8.668c-.531.448-1.074.883-1.6,1.342l-1.546,1.393c-.526.456-1,.958-1.5,1.436s-1,.962-1.466,1.472l-1.426,1.51-1.36,1.563a60.212,60.212,0,0,0-4.906,6.643,43.568,43.568,0,0,0-6.141,15.1,31.369,31.369,0,0,0,1.049,16.1,31.024,31.024,0,0,0,3.69,7.305,34.536,34.536,0,0,0,5.452,6.194,40.643,40.643,0,0,0,6.75,4.857l.9.528c.3.168.618.322.926.484l.928.48.465.24.476.216,1.906.864,1.946.771a63.934,63.934,0,0,0,8.021,2.415c.679.162,1.368.285,2.051.429l1.028.207,1.034.168c.691.105,1.378.235,2.072.322l2.08.252c.518.064,1.039.085,1.557.123l1.548.1-1.328-.152,1.456.13c.485.043.972.055,1.455.084a98.7,98.7,0,0,0,16.935-.94c1.14-.132.138.017-1.366.24l-1.2.178-1.235.148c-.8.095-1.522.186-1.958.254l2.531-.257-.469.142c.485-.067.873-.095,1.225-.13l1.01-.1-1.16.17-1.166.131c-.779.083-1.554.186-2.336.251l-2.345.181c-.781.068-1.567.076-2.35.116a79.226,79.226,0,0,1-9.431-.167,74.781,74.781,0,0,1-9.375-1.31,62.78,62.78,0,0,1-9.114-2.655c.33.151.789.371,1.341.568s1.176.413,1.814.63c.317.113.642.21.964.3L37,124c.6.166,1.149.339,1.585.435a80.223,80.223,0,0,0,12.083,1.886c2.661.218,5.355.236,8.051.222l2.022-.069,1.012-.035,1.009-.068,2.018-.136,2.009-.2c1.342-.116,2.667-.324,3.994-.5.664-.08,1.318-.214,1.975-.32s1.312-.22,1.963-.343c2.595-.521,5.153-1.093,7.624-1.8l1.373-.37.685-.184.675-.2,2.668-.806c.543-.17.673-.191.507-.11s-.627.265-1.285.5-1.494.527-2.4.832c-.913.279-1.891.562-2.814.82M42.349,43.444a98.353,98.353,0,0,0-8.805,5.175l-1.485,1.064c-.493.357-1,.7-1.473,1.083l-1.847,1.44c-.615.517-1.238,1.057-1.873,1.605a73.992,73.992,0,0,0-6.975,6.774c-.528.612-1.074,1.211-1.589,1.834l-1.516,1.894-1.43,1.958c-.467.66-.9,1.345-1.347,2.018a61.829,61.829,0,0,1,6.211-7.9,80.054,80.054,0,0,1,8.263-7.752A72.881,72.881,0,0,0,17.717,63.5c-.792.954-1.49,1.965-2.216,2.95-.353.5-.678,1.015-1.016,1.52l-.5.759c-.161.257-.311.52-.467.778l-.923,1.558-.843,1.592c-.294.524-.533,1.071-.787,1.612l-.378.812-.187.406-.166.414-.663,1.657c-.208.556-.383,1.123-.577,1.684-.091.282-.194.56-.277.844l-.232.857-.232.857-.116.429c-.036.144-.061.289-.092.433L7.686,84.4c-.1.583-.167,1.17-.253,1.755-.035.294-.093.585-.108.881l-.062.884c-.035.591-.1,1.182-.084,1.775,0,.592,0,1.186.005,1.78l.13,1.78.034.445.065.443.131.887.131.888.2.878.2.879.1.44c.035.147.086.289.128.434l.532,1.734a32.635,32.635,0,0,0,1.412,3.373,32.146,32.146,0,0,0,5.078,7.4,38.035,38.035,0,0,0,7,5.979l1.378.893c.467.284.947.544,1.417.817.933.56,1.921,1.01,2.882,1.5.48.244.984.439,1.473.66s.978.442,1.48.627l1.5.566c.25.093.5.191.749.278l.76.247a51.5,51.5,0,0,1-9.089-4.163,40.485,40.485,0,0,1-7.9-5.989,33.049,33.049,0,0,1-5.928-7.8A30.041,30.041,0,0,1,7.848,95.53a32.012,32.012,0,0,1-.2-9.621A38.418,38.418,0,0,1,10.094,76.6,54.5,54.5,0,0,1,20.512,60.37a74.08,74.08,0,0,1,7.061-6.732c1.239-1.061,2.544-2.045,3.844-3.035l2-1.424c.665-.477,1.362-.91,2.042-1.366a93.934,93.934,0,0,1,17.574-8.936A99.6,99.6,0,0,1,72.21,33.612a95.384,95.384,0,0,1,9.95-1.128,86.945,86.945,0,0,1,10.043.035,87.388,87.388,0,0,0-25.63,2.029A99.644,99.644,0,0,0,54.227,38.19a98.252,98.252,0,0,0-11.879,5.254M47.974,40.5l2.392-1.057,2.42-.977c.8-.337,1.623-.615,2.436-.916s1.624-.6,2.45-.858A97.334,97.334,0,0,1,67.6,33.915a88.428,88.428,0,0,1,27.777-1.81,70.657,70.657,0,0,1,12.342,2.33A56.219,56.219,0,0,1,117.4,38.17a56.011,56.011,0,0,0-11.569-4.354,69.019,69.019,0,0,0-12.466-1.984A89.391,89.391,0,0,0,67.6,33.915c4.079-.9,6.447-1.191,7.3-1.324s.222-.036-1.626.231c-.923.137-2.139.377-3.625.639-1.473.324-3.219.669-5.163,1.187a101.343,101.343,0,0,0-13.8,4.635c-.473.2-1.473.663-2.715,1.211" transform="translate(-6.275 -30.579)" fill="#6f5a48"/>
              <path id="Tracé_38" data-name="Tracé 38" d="M24.43,118.771a51.585,51.585,0,0,0,10.512,4.95,66.136,66.136,0,0,0,11.37,2.779l-2.136-.417c-.7-.153-1.39-.326-2.1-.49s-1.426-.361-2.177-.565l-1.152-.314c-.393-.112-.791-.247-1.2-.374a61.711,61.711,0,0,1-6.752-2.462,52.421,52.421,0,0,1-6.565-3.445,41.051,41.051,0,0,1-5.912-4.521,31.659,31.659,0,0,1-4.761-5.508,30.813,30.813,0,0,1-4.3-9.271A31.206,31.206,0,0,1,8.338,88.94a36.053,36.053,0,0,1,2.247-10.1,48.141,48.141,0,0,1,4.778-9.379A67.42,67.42,0,0,1,29.958,53.714,88.927,88.927,0,0,1,48.8,42.322c1.337-.6,4.318-1.863,6.6-2.712a96.484,96.484,0,0,0-12.756,5.663,84.627,84.627,0,0,0-11.567,7.41,75.639,75.639,0,0,0-10.006,9.111A59.585,59.585,0,0,0,13.269,72.6,42.2,42.2,0,0,0,8.7,84.923l-.16.805c-.05.269-.075.541-.114.811-.069.543-.148,1.084-.209,1.627-.061,1.09-.171,2.18-.13,3.273-.029,1.095.1,2.181.174,3.273.072.541.163,1.081.242,1.622.046.27.07.544.136.81l.184.8.183.8.092.4.121.393.488,1.573c.17.522.4,1.025.59,1.539l.3.768.36.745a30.025,30.025,0,0,0,3.454,5.662c.347.436.684.879,1.039,1.31l1.124,1.244c.363.427.784.8,1.183,1.195s.792.8,1.232,1.149l1.284,1.1c.439.353.9.684,1.346,1.027l.678.511.706.472c.474.312.939.636,1.419.939" transform="translate(-6.467 -31.756)" fill="#6f5a48"/>
              <path id="Tracé_39" data-name="Tracé 39" d="M111.115,34.55a64.671,64.671,0,0,1,7.77,2.107,51.847,51.847,0,0,1,7.155,3.149,49.352,49.352,0,0,0-7.171-3.273,61.451,61.451,0,0,0-8-2.223,72.906,72.906,0,0,0-10.844-1.326,83.841,83.841,0,0,0-10.888.213,79.392,79.392,0,0,1,21.973,1.352" transform="translate(-15.07 -30.881)" fill="#6f5a48"/>
              <path id="Tracé_40" data-name="Tracé 40" d="M61.023,38.78c.707-.248,1.407-.515,2.122-.749l2.157-.691c3.322-1.019,6.731-1.911,10.216-2.609a97.3,97.3,0,0,1,10.64-1.489,93.737,93.737,0,0,0-11.306,1.511c-.93.2-1.866.369-2.792.587l-2.777.671-2.758.766c-.922.253-1.827.566-2.743.848.022.043-.27.177-.768.37s-1.191.482-1.989.784" transform="translate(-12.086 -30.926)" fill="#6f5a48"/>
            </g>
          </g>
        </g>
        <g id="Groupe_18" data-name="Groupe 18" transform="translate(5.27 0.284)" opacity="0.8">
          <g id="Groupe_17" data-name="Groupe 17">
            <g id="Groupe_16" data-name="Groupe 16" clip-path="url(#clip-path-6)">
              <path id="Tracé_41" data-name="Tracé 41" d="M50.536,89.272a97.177,97.177,0,0,1-13.428-6.764,88.717,88.717,0,0,1-11.7-8.415,68.2,68.2,0,0,1-7.723-7.8,57.88,57.88,0,0,1-6.144-8.828A45.836,45.836,0,0,1,7.315,47.433a37.38,37.38,0,0,1-1.4-11.286,32.068,32.068,0,0,1,8.544-20.512c.333-.348.644-.719,1-1.051l1.06-1c.178-.166.352-.338.535-.5l.565-.471,1.134-.944c.386-.307.793-.591,1.19-.888l.6-.441.3-.221.313-.205,1.257-.817c.212-.134.417-.279.635-.4l.654-.377a54.125,54.125,0,0,1,11.256-4.9A76.639,76.639,0,0,1,60.279.4c.234.012.525.017.853.039l1.078.08c.769.063,1.616.1,2.385.177,1.537.147,2.782.237,2.535.11A100.58,100.58,0,0,1,91.237,7a96.253,96.253,0,0,1,21.412,11.6,73.5,73.5,0,0,1,14.694,14.343,56.676,56.676,0,0,1,4.5,6.842,46.013,46.013,0,0,1,3.257,7.43l.309.963c.1.321.212.639.288.968l.5,1.955.379,1.979c.071.328.1.663.147.995l.125,1a34.413,34.413,0,0,1-.043,8.012,30.175,30.175,0,0,1-.475,3.031,21.985,21.985,0,0,1-.737,2.8,32.424,32.424,0,0,1-5.268,9.552,38.775,38.775,0,0,1-7.751,7.374,48.73,48.73,0,0,1-9.264,5.178A59.99,59.99,0,0,1,103.2,94.29c-1.371.281-2.659.575-3.923.763-.631.1-1.248.221-1.865.3l-1.834.23c-.608.085-1.217.137-1.829.187l-1.847.155-1.893.087c-.641.028-1.294.062-1.963.055a9.834,9.834,0,0,1-1.257.082l-.947.019c-.342,0-.707-.01-1.088-.011-.509-.017-1.309-.037-2.32-.084l-1.664-.121c-.6-.05-1.248-.077-1.924-.163-2.713-.257-5.947-.745-9.09-1.352-1.562-.351-3.118-.652-4.557-1.046-.721-.187-1.423-.36-2.089-.541l-1.882-.554c-1.185-.335-2.188-.684-2.964-.947s-1.319-.452-1.56-.543c-.12-.046.45.127,1.537.464.544.164,1.213.384,2,.611l2.671.735c.988.264,2.075.5,3.221.785,1.151.265,2.38.494,3.647.759,2.551.446,5.292.89,8.058,1.139,2.761.3,5.543.4,8.142.44,2.6-.006,5.025-.083,7.08-.272l1.471-.125c.467-.039.9-.107,1.316-.155.822-.108,1.536-.183,2.109-.278,1.147-.194,1.76-.3,1.661-.3-.129.013-.679.1-1.551.23-.434.077-.954.122-1.539.194s-1.238.153-1.947.223a85.236,85.236,0,0,1-10.343.326,90.086,90.086,0,0,1-10.583-.93c-.754-.09-1.449-.236-2.089-.337l-1.718-.3-2.015-.424A92.706,92.706,0,0,0,85.8,95.452a80.43,80.43,0,0,0,14.574-1.311,63.151,63.151,0,0,0,11.009-3.116c.766-.316,1.511-.6,2.214-.911l2.009-.935c1.258-.655,2.421-1.245,3.428-1.879a37.629,37.629,0,0,0,7.41-5.667c1.132-1.126,1.269-1.276.654-.687-.31.291-.8.782-1.463,1.4-.7.584-1.529,1.366-2.6,2.139a45.393,45.393,0,0,1-8.4,5.014,59.559,59.559,0,0,1-11.549,3.93A75.616,75.616,0,0,1,90.63,95.179l-1.983.08-2.191.025c-.765.023-1.564-.012-2.4-.025l-1.282-.025c-.435-.015-.88-.047-1.334-.07a86.094,86.094,0,0,1-12.631-1.581l1.133.215,1.258.193c.873.127,1.8.295,2.783.391l1.486.17c.5.06,1.007.117,1.517.15,1.02.072,2.042.179,3.044.221s1.98.1,2.906.115l2.59.022c1.582-.032,2.834-.058,3.525-.083l2.228-.122c.345-.015.678-.042,1-.075l.927-.087c.6-.06,1.15-.1,1.667-.166l1.453-.2,1.292-.178,1.169-.209c.749-.142,1.459-.24,2.168-.41l2.236-.487,2.65-.677a64.061,64.061,0,0,0,7.79-2.719,43.582,43.582,0,0,0,8.8-5.009l1.113-.845.28-.213.267-.23.537-.462c.355-.313.726-.612,1.074-.939l1.025-1,.514-.505.481-.537.962-1.077c.306-.371.594-.757.89-1.136s.6-.752.853-1.158a30.242,30.242,0,0,0,4.534-9.921,31.458,31.458,0,0,0,.864-8.812c.042.316.032.659.046,1.026s.019.76.029,1.172l.008.314c-.005.105-.011.212-.016.32-.011.217-.021.438-.033.664-.028.451-.032.924-.082,1.409a31.755,31.755,0,0,1-1.294,6.3,32.05,32.05,0,0,1-2.91,6.294,32.422,32.422,0,0,1-1.92,2.725,28.62,28.62,0,0,1-2,2.316,29.939,29.939,0,0,0,5.785-8.371,29.365,29.365,0,0,0,2.2-7.174,33.539,33.539,0,0,0,.3-7.577,39.475,39.475,0,0,0-2.174-10.182c-.274-.746-.61-1.539-.947-2.383l-.6-1.269c-.213-.43-.4-.882-.653-1.316-.217-.424-.432-.844-.646-1.265-.109-.21-.214-.423-.327-.632l-.361-.627-.752-1.3c-.258-.45-.566-.893-.869-1.374a59.592,59.592,0,0,0-6.474-8.111,72.006,72.006,0,0,0-7.435-6.818A90.807,90.807,0,0,0,97.334,11.155c.552.26.993.492,1.432.733s.866.51,1.414.8c1.357.7,2.639,1.471,3.922,2.2.635.375,1.251.769,1.874,1.147l.928.57.9.6L109.6,18.39l1.744,1.238c.588.4,1.148.841,1.713,1.272l.848.647c.285.213.566.431.838.661a65.663,65.663,0,0,1,12.333,12.778,54.329,54.329,0,0,1,4.487,7.077,41.731,41.731,0,0,1,2.74,6.929A39.114,39.114,0,0,1,135.6,56.01a39.38,39.38,0,0,0-1.554-7.275,42.807,42.807,0,0,0-3.064-7.257c-.314-.591-.615-1.191-.972-1.762s-.678-1.163-1.04-1.732l-1.116-1.69c-.372-.563-.789-1.1-1.182-1.645a59.506,59.506,0,0,0-5.179-6.114c-.742-.8-1.648-1.605-2.49-2.383-.415-.395-.857-.74-1.253-1.08l-1.1-.92,1.355,1.222c.224.205.457.4.675.615l.653.637,1.306,1.276,1.254,1.325.627.664.6.687,1.2,1.377,1.139,1.425c.188.239.383.472.566.716l.536.737.951,1.295.9,1.358.458.686c.151.231.287.472.432.709q.428.714.863,1.435c.275.489.534.99.8,1.488l.4.751.366.771c.24.517.492,1.031.728,1.555q.323.8.649,1.6c.232.53.4,1.082.589,1.627s.391,1.091.528,1.652l.462,1.673.356,1.695c.136.564.19,1.137.278,1.705l.122.854c.048.284.049.571.077.856.037.571.095,1.141.115,1.709q0,.854,0,1.7a7.385,7.385,0,0,1-.033.844c-.02.281-.038.561-.058.84s-.038.558-.058.836c-.039.276-.079.551-.118.825s-.079.548-.118.82-.069.547-.138.812q-.18.8-.356,1.593a7.24,7.24,0,0,1-.213.779q-.118.385-.234.767l-.232.76c-.075.254-.187.493-.277.738l-.568,1.448q-.334.7-.661,1.374c-.11.226-.219.451-.328.674l-.373.641-.733,1.257-.8,1.166-.393.569c-.128.19-.282.359-.419.537a25.653,25.653,0,0,1-1.689,1.986l-.84.9c-.285.283-.58.543-.859.8-.262.253-.5.524-1.038,1.021-.148.11-.345.269-.563.448a36.844,36.844,0,0,1-3.034,2.349l-1.695,1.093c-.573.35-1.166.661-1.731.979l1.432-.831c.467-.292.922-.6,1.383-.9l.691-.453.661-.49c.439-.33.886-.651,1.318-.988.795-.716,1.638-1.393,2.384-2.179l.578-.573.29-.287.271-.3q.54-.611,1.086-1.225a33.735,33.735,0,0,0,3.709-5.464,29.628,29.628,0,0,0,3.495-12.932,34.363,34.363,0,0,0-.5-6.85l-.339-1.7c-.129-.563-.292-1.12-.436-1.68-.079-.279-.139-.563-.231-.837l-.274-.827-.274-.826-.137-.414-.161-.405-.644-1.622c-.224-.537-.484-1.06-.724-1.591l-.367-.792-.409-.773c-.276-.513-.538-1.033-.825-1.54-.6-1-1.171-2.014-1.84-2.97-.328-.481-.631-.977-.979-1.443l-1.034-1.4c-.3-.418-.657-.845-1.023-1.306s-.743-.954-1.16-1.443l-1.292-1.505c-.215-.26-.446-.51-.681-.759l-.7-.755-.7-.755c-.236-.249-.484-.484-.723-.724l-1.42-1.4L117.124,24.6l-.645-.577c-.214-.183-.426-.351-.627-.516a82.23,82.23,0,0,0-7.454-5.53,88.51,88.51,0,0,0-8.11-4.791A102.343,102.343,0,0,0,82.857,6.028l-2.026-.585-1.014-.29L78.8,4.894,76.75,4.378l-2.061-.45c-1.371-.32-2.763-.532-4.146-.793-.693-.118-1.392-.207-2.087-.313s-1.392-.21-2.092-.277l-2.1-.231c-.7-.07-1.4-.11-2.1-.167-1.4-.13-2.809-.144-4.215-.211l-2.11-.01H54.781l-1.054.035c-.7.028-1.406.037-2.107.079l-2.1.149c-.7.037-1.4.14-2.1.209s-1.4.144-2.09.259l-2.082.314-2.066.395a63.135,63.135,0,0,0-8.1,2.21A45.815,45.815,0,0,0,18.6,13.641,32.223,32.223,0,0,0,9.09,26.855a30.617,30.617,0,0,0-1.8,7.948,33.365,33.365,0,0,0,.284,8.151,38.748,38.748,0,0,0,2.157,7.893l.365.959c.131.317.276.627.413.94l.417.939.209.47.233.458.935,1.832,1.025,1.785a60.913,60.913,0,0,0,4.716,6.758c.427.539.886,1.053,1.327,1.581l.67.786.7.759c.472.5.926,1.021,1.411,1.509l1.463,1.461c.364.364.757.7,1.138,1.042l1.142,1.022-.939-.926,1.055.986c.351.328.723.633,1.082.95a96.077,96.077,0,0,0,13.833,9.552c.975.589.1.1-1.221-.642l-1.049-.587L37.6,81.844c-.687-.411-1.309-.778-1.692-.991l2.143,1.338-.458-.175c.422.243.743.457,1.04.643l.85.539-1.015-.571-1-.606c-.661-.408-1.334-.8-1.985-1.222l-1.948-1.283c-.653-.421-1.272-.892-1.91-1.338a76.511,76.511,0,0,1-7.261-5.858A71.875,71.875,0,0,1,17.881,65.6a59.8,59.8,0,0,1-5.416-7.61c.16.318.378.77.683,1.258s.653,1.038,1.014,1.594c.175.281.366.555.56.818l.56.778c.365.5.679.963.958,1.3a76.775,76.775,0,0,0,8.23,8.812c1.939,1.787,4.032,3.437,6.147,5.063l1.624,1.175.813.588.832.559,1.663,1.12,1.7,1.064c1.122.725,2.292,1.367,3.44,2.036.569.342,1.166.634,1.748.951s1.166.624,1.753.924c2.362,1.169,4.728,2.275,7.112,3.222l1.31.544.653.272.658.25,2.6.991c.534.2.649.259.467.222s-.66-.174-1.324-.391-1.505-.5-2.406-.806c-.891-.336-1.838-.71-2.724-1.068M71.15,2.754a100.405,100.405,0,0,0-10.2-1.3l-1.843-.07c-.614-.021-1.227-.057-1.845-.05l-2.367,0c-.812.03-1.646.074-2.493.117a77,77,0,0,0-9.795,1.056c-.805.157-1.616.294-2.419.468l-2.4.559-2.374.661c-.788.232-1.563.506-2.347.757a64.878,64.878,0,0,1,9.918-2.4A83.164,83.164,0,0,1,54.415,1.519,75.861,75.861,0,0,0,39.037,3.466c-1.231.264-2.425.63-3.625.958-.6.176-1.18.382-1.769.571l-.88.288c-.291.1-.577.217-.864.324l-1.72.657L28.5,6.995c-.565.231-1.1.514-1.649.783l-.816.4-.407.2-.4.224-1.58.891c-.519.308-1.02.644-1.53.965-.253.164-.511.32-.759.491l-.731.528-.73.529-.366.264c-.12.09-.233.189-.35.283L17.79,13.7c-.453.392-.881.812-1.324,1.217-.215.209-.448.4-.65.623L15.2,16.2c-.406.44-.838.86-1.2,1.335s-.764.924-1.138,1.394l-1.041,1.469-.26.369-.232.386-.467.771-.467.774-.41.8-.409.808-.2.4c-.067.136-.119.277-.179.417q-.347.837-.7,1.678A32.617,32.617,0,0,0,7.429,30.3a31.407,31.407,0,0,0-.783,8.869,36.439,36.439,0,0,0,1.63,8.921q.253.77.5,1.535c.182.505.39,1,.584,1.5.368,1,.853,1.955,1.289,2.92.218.484.487.941.728,1.411s.48.939.754,1.39.539.9.808,1.352c.136.224.265.452.406.673l.435.654a48.96,48.96,0,0,1-4.429-8.773,38.593,38.593,0,0,1-2.328-9.475,32.125,32.125,0,0,1,.375-9.7,30.04,30.04,0,0,1,3.375-9.085,32.977,32.977,0,0,1,6.017-7.637,40.25,40.25,0,0,1,7.882-5.785A57.312,57.312,0,0,1,43.23,2.713a77.153,77.153,0,0,1,9.836-.971c1.648-.076,3.3-.051,4.949-.036l2.475.1c.825.031,1.647.117,2.472.172A95.19,95.19,0,0,1,82.424,5.675a98.908,98.908,0,0,1,18.362,7.537,93.183,93.183,0,0,1,8.5,5.162,83.977,83.977,0,0,1,7.824,6.126A85.32,85.32,0,0,0,95.782,10.518,100.154,100.154,0,0,0,71.15,2.754m6.287,1.113,2.547.627L82.5,5.2c.841.224,1.663.505,2.49.764s1.655.517,2.464.817a96.844,96.844,0,0,1,9.536,3.864A86.152,86.152,0,0,1,119.851,26.1,67.613,67.613,0,0,1,128,35.421a53.464,53.464,0,0,1,5.168,8.8,53.285,53.285,0,0,0-6.245-10.428,66.111,66.111,0,0,0-8.466-9.12A87.258,87.258,0,0,0,96.99,10.647c3.767,1.772,5.8,2.985,6.555,3.4s.2.106-1.419-.807c-.809-.454-1.913-1.005-3.242-1.7-1.359-.642-2.944-1.432-4.8-2.208A101.206,101.206,0,0,0,80.334,4.571c-.5-.13-1.577-.377-2.9-.7" transform="translate(-5.896 -0.327)" fill="#6f5a48"/>
              <path id="Tracé_42" data-name="Tracé 42" d="M9.593,49.947A48.976,48.976,0,0,0,14.629,60.2a63.139,63.139,0,0,0,7.1,9.077l-1.4-1.624c-.448-.544-.877-1.1-1.326-1.658s-.882-1.148-1.337-1.764l-.7-.945c-.235-.326-.459-.673-.7-1.024a58.809,58.809,0,0,1-3.7-6.025A49.829,49.829,0,0,1,9.65,49.559a39.237,39.237,0,0,1-1.718-7.123A30.813,30.813,0,0,1,10.34,25.39a31.975,31.975,0,0,1,5.821-8.521,37.773,37.773,0,0,1,8.24-6.529,50.7,50.7,0,0,1,9.75-4.425,70.349,70.349,0,0,1,21.5-3.433,90.834,90.834,0,0,1,22.03,2.545c1.427.346,4.569,1.167,6.9,1.892a97.427,97.427,0,0,0-13.6-3.324A86.763,86.763,0,0,0,57.192,2.358,78.559,78.559,0,0,0,43.53,3.4,62.55,62.55,0,0,0,30.5,7.1a44.35,44.35,0,0,0-11.471,6.853l-.642.532c-.212.179-.406.377-.611.564-.4.382-.811.757-1.207,1.144-.747.815-1.532,1.6-2.2,2.479-.724.837-1.324,1.763-1.963,2.662-.291.467-.567.944-.852,1.415-.137.238-.294.466-.413.714l-.37.737-.37.737-.186.369-.158.38-.627,1.525c-.2.51-.349,1.041-.527,1.561l-.257.784-.2.8a29.39,29.39,0,0,0-.934,6.522c-.009.551-.03,1.1-.029,1.654l.08,1.654c.01.554.1,1.1.157,1.652s.109,1.1.225,1.646l.3,1.638c.116.543.263,1.079.392,1.62l.2.811.249.8c.17.531.325,1.067.506,1.6" transform="translate(-6.065 -0.591)" fill="#6f5a48"/>
              <path id="Tracé_43" data-name="Tracé 43" d="M135.977,34.583a61.548,61.548,0,0,1,4.719,6.366,49.261,49.261,0,0,1,3.569,6.806,46.969,46.969,0,0,0-3.5-6.912,58.557,58.557,0,0,0-4.821-6.593,69.939,69.939,0,0,0-7.62-7.622,81.176,81.176,0,0,0-8.643-6.447,76.545,76.545,0,0,1,16.3,14.4" transform="translate(-17.973 -2.915)" fill="#6f5a48"/>
              <path id="Tracé_44" data-name="Tracé 44" d="M93.738,7.6c.712.236,1.429.452,2.138.7L98,9.076a104.748,104.748,0,0,1,9.655,4.167,95.537,95.537,0,0,1,9.267,5.3,92.182,92.182,0,0,0-9.8-5.687c-.854-.41-1.7-.844-2.558-1.237l-2.6-1.163L99.318,9.378c-.883-.362-1.79-.666-2.687-1-.01.048-.325-.024-.838-.177s-1.239-.347-2.055-.6" transform="translate(-15.22 -1.275)" fill="#6f5a48"/>
            </g>
          </g>
        </g>
        <g id="Groupe_21" data-name="Groupe 21" transform="translate(1.558 15.964)" opacity="0.8">
          <g id="Groupe_20" data-name="Groupe 20">
            <g id="Groupe_19" data-name="Groupe 19" clip-path="url(#clip-path-7)">
              <path id="Tracé_45" data-name="Tracé 45" d="M63.13,109.17a98.588,98.588,0,0,1-14.959-2.145,90.518,90.518,0,0,1-13.882-4.251,69.882,69.882,0,0,1-9.911-4.929,59.367,59.367,0,0,1-8.763-6.4,46.936,46.936,0,0,1-7.348-8.149,37.893,37.893,0,0,1-5.1-10.228A31.964,31.964,0,0,1,1.79,61.827,31.564,31.564,0,0,1,4.385,50.965c.2-.435.368-.884.594-1.31l.667-1.285c.113-.214.22-.431.339-.643l.376-.624.756-1.252c.262-.412.552-.809.828-1.216l.42-.607.21-.3.228-.293.915-1.171c.155-.193.3-.4.464-.584l.493-.563a52.842,52.842,0,0,1,9-8.194A75.577,75.577,0,0,1,42.614,22.048c.225-.063.5-.15.82-.233l1.046-.266c.748-.184,1.562-.417,2.314-.588,1.5-.348,2.709-.657,2.433-.7a101.051,101.051,0,0,1,24.866-1.777A97.869,97.869,0,0,1,98.218,22.67a75.379,75.379,0,0,1,18.692,8.911,58.287,58.287,0,0,1,6.547,5.043,47.208,47.208,0,0,1,5.564,5.995l.615.812c.2.271.415.537.6.824l1.127,1.69,1.021,1.751c.178.288.321.593.473.894l.452.9a34.773,34.773,0,0,1,2.639,7.589,30.273,30.273,0,0,1,.566,3.017,21.9,21.9,0,0,1,.24,2.883,31.864,31.864,0,0,1-1.787,10.7,37.752,37.752,0,0,1-4.862,9.426,47.475,47.475,0,0,1-7.028,7.83,58.651,58.651,0,0,1-8.468,6.3c-1.2.7-2.323,1.386-3.455,1.964-.563.293-1.106.6-1.663.871l-1.657.8c-.546.273-1.1.515-1.666.754l-1.695.732-1.761.681c-.6.23-1.2.469-1.839.674a9.808,9.808,0,0,1-1.161.476c-.269.1-.568.2-.888.317s-.672.216-1.033.334c-.486.145-1.249.379-2.221.655l-1.614.412c-.585.143-1.206.322-1.873.456-2.651.617-5.873,1.178-9.048,1.6-1.594.162-3.166.371-4.659.454-.745.052-1.466.11-2.156.15l-1.966.071c-1.232.059-2.3.046-3.12.043s-1.4-.01-1.656-.02c-.129,0,.468-.022,1.608-.048.569-.017,1.276-.02,2.094-.055l2.771-.15c1.022-.063,2.13-.18,3.308-.277,1.176-.114,2.415-.286,3.7-.437,2.562-.386,5.3-.834,8-1.474,2.71-.594,5.375-1.376,7.846-2.162,2.457-.83,4.723-1.67,6.6-2.5l1.35-.586c.428-.184.82-.388,1.193-.562.741-.363,1.39-.66,1.9-.931,1.02-.547,1.562-.844,1.47-.811-.117.053-.611.306-1.389.708-.384.211-.862.418-1.39.672s-1.12.536-1.767.825a84.024,84.024,0,0,1-9.671,3.586,89.822,89.822,0,0,1-10.319,2.472c-.743.154-1.449.235-2.087.343l-1.723.264-2.047.237a92.371,92.371,0,0,0,17.611-3.932,79.518,79.518,0,0,0,13.344-5.854,61.935,61.935,0,0,0,9.367-6.432c.619-.541,1.225-1.051,1.789-1.563s1.078-1.034,1.587-1.52c.97-1.018,1.872-1.943,2.612-2.863a36.683,36.683,0,0,0,5.112-7.7c.693-1.424.773-1.608.389-.857-.2.374-.491.991-.914,1.791-.469.773-.99,1.776-1.745,2.847a44.24,44.24,0,0,1-6.262,7.4,58.315,58.315,0,0,1-9.605,7.374,74.57,74.57,0,0,1-11.195,5.595l-1.849.7-2.062.717c-.716.264-1.484.484-2.278.737l-1.22.38c-.417.125-.847.236-1.284.357a85.785,85.785,0,0,1-12.472,2.5l1.143-.157,1.254-.214c.868-.157,1.8-.294,2.762-.511l1.461-.31c.493-.1.991-.209,1.485-.338.989-.254,1.99-.477,2.952-.755s1.9-.537,2.786-.811l2.457-.8c1.485-.53,2.66-.952,3.306-1.195.739-.295,1.426-.567,2.066-.821.322-.123.627-.253.918-.386l.846-.377c.543-.245,1.053-.461,1.521-.684l1.309-.648,1.161-.577,1.035-.567c.661-.371,1.3-.69,1.914-1.074l1.952-1.169,2.279-1.479a62.685,62.685,0,0,0,6.456-5.038,42.482,42.482,0,0,0,6.642-7.522q.381-.571.77-1.152l.193-.29.175-.3c.118-.2.235-.4.353-.607.232-.408.483-.809.7-1.229s.422-.847.634-1.274l.317-.64.274-.66.551-1.324c.164-.448.307-.9.461-1.355a13.92,13.92,0,0,0,.418-1.365,29.837,29.837,0,0,0,.969-10.816,31.571,31.571,0,0,0-2.13-8.606c.145.285.251.613.386.956l.419,1.1.112.295.093.308c.062.208.125.421.19.637.124.436.279.884.393,1.358a31.66,31.66,0,0,1,.882,6.365,31.605,31.605,0,0,1-.645,6.872,32.017,32.017,0,0,1-.9,3.185,28.362,28.362,0,0,1-1.114,2.822,28.534,28.534,0,0,0,2.354-17.228,33.739,33.739,0,0,0-2.248-7.261,40.165,40.165,0,0,0-5.461-8.939c-.509-.619-1.091-1.263-1.693-1.954l-.993-1.009c-.345-.339-.675-.707-1.057-1.038l-1.034-.991c-.173-.164-.343-.332-.52-.495l-.552-.478-1.146-.994c-.4-.343-.835-.664-1.282-1.024a61.276,61.276,0,0,0-8.835-5.62,73.746,73.746,0,0,0-9.311-4.093A92.567,92.567,0,0,0,81.25,20.488c.61.07,1.1.151,1.6.24s.99.208,1.6.31c1.517.232,2.987.555,4.444.837.726.153,1.44.33,2.155.491l1.067.245,1.055.277,2.094.556,2.064.619c.691.195,1.366.432,2.045.661l1.018.343c.341.111.679.229,1.013.36A67.371,67.371,0,0,1,117.347,33.6a55.774,55.774,0,0,1,6.61,5.27,42.66,42.66,0,0,1,4.908,5.684,39.667,39.667,0,0,1,3.57,6.227,40.086,40.086,0,0,0-3.9-6.387,43.928,43.928,0,0,0-5.325-5.891c-.494-.46-.98-.931-1.508-1.358s-1.031-.885-1.563-1.309L118.516,34.6c-.541-.415-1.114-.787-1.668-1.182a61.222,61.222,0,0,0-6.943-4.141c-.969-.524-2.1-1-3.151-1.465-.525-.242-1.058-.428-1.546-.624l-1.345-.524,1.69.726c.281.123.567.237.844.368l.83.4,1.661.792,1.629.856.814.429.8.46,1.594.922,1.553.987c.257.166.521.325.774.5l.754.526,1.332.924,1.309,1,.663.5c.22.17.428.356.644.533q.644.539,1.3,1.084c.424.375.835.767,1.257,1.152l.632.583.6.613c.4.412.811.82,1.208,1.241l1.148,1.305c.4.427.738.9,1.1,1.352s.734.907,1.052,1.394l1,1.436.9,1.491c.317.489.56,1.014.834,1.524l.4.769c.14.254.238.524.358.785.226.529.471,1.049.68,1.579L133.8,54.5a7.631,7.631,0,0,1,.25.809q.114.407.226.812l.225.81q.082.41.164.817c.054.271.108.543.162.813a8.153,8.153,0,0,1,.142.811q.1.815.2,1.619a6.93,6.93,0,0,1,.06.8q.017.4.035.8l.035.793c.014.263-.012.524-.015.785q-.027.783-.053,1.55-.084.762-.166,1.508-.043.373-.084.742c-.046.243-.093.484-.139.724q-.138.72-.273,1.42-.188.689-.369,1.357l-.181.663c-.058.22-.147.429-.217.641a25.275,25.275,0,0,1-.932,2.412l-.5,1.112c-.175.358-.367.7-.543,1.032s-.3.654-.64,1.294c-.1.151-.236.364-.383.6a36.063,36.063,0,0,1-2.083,3.181l-1.237,1.57c-.425.512-.88.994-1.309,1.474l1.076-1.239c.344-.424.67-.862,1.006-1.291l.5-.647.461-.675c.3-.45.619-.895.915-1.35.512-.929,1.082-1.837,1.525-2.817l.355-.724.178-.364.155-.375.617-1.5a33.122,33.122,0,0,0,1.68-6.341,31.863,31.863,0,0,0,.259-6.671,32.548,32.548,0,0,0-1.28-6.663,34.878,34.878,0,0,0-2.76-6.321l-.889-1.5c-.311-.492-.651-.967-.975-1.451-.167-.239-.319-.488-.5-.718l-.535-.695-.535-.695-.267-.348-.289-.332-1.15-1.331c-.392-.436-.813-.849-1.217-1.274l-.612-.633-.645-.6c-.433-.4-.854-.808-1.3-1.2-.905-.752-1.781-1.534-2.733-2.226-.471-.35-.924-.723-1.409-1.053l-1.446-1c-.422-.3-.9-.591-1.405-.911s-1.021-.667-1.579-1L111.657,30.5c-.291-.178-.593-.342-.9-.5l-.914-.491-.915-.492c-.307-.16-.619-.3-.926-.456l-1.811-.874-1.73-.746-.8-.341c-.262-.1-.519-.2-.765-.289a83.8,83.8,0,0,0-8.9-2.869,90.547,90.547,0,0,0-9.271-1.963,103.54,103.54,0,0,0-18.877-1.254l-2.111.089-1.057.045-1.053.08-2.107.16-2.1.228c-1.4.131-2.79.371-4.185.563-.7.107-1.385.244-2.078.365s-1.386.241-2.071.4l-2.061.444c-.686.156-1.363.34-2.045.509-1.369.322-2.706.753-4.056,1.135l-2,.658-1,.333-.985.367c-.655.248-1.318.479-1.966.742l-1.938.807c-.653.257-1.275.574-1.913.86s-1.274.579-1.889.907l-1.864.956L25.55,30.9a61.7,61.7,0,0,0-6.916,4.653,44.667,44.667,0,0,0-11,12.215A31.567,31.567,0,0,0,3.061,63.275a30.524,30.524,0,0,0,.953,8.086,33.7,33.7,0,0,0,3,7.617,39.585,39.585,0,0,0,4.679,6.781l.666.791c.229.257.471.505.705.758l.709.756.355.377.374.359,1.5,1.436L17.561,91.6a62.62,62.62,0,0,0,6.72,4.9c.584.374,1.19.715,1.784,1.075l.9.53.916.5c.614.325,1.217.672,1.84.98l1.873.918c.466.229.948.42,1.424.624l1.423.6c-.408-.2-.8-.389-1.2-.577l1.326.6c.442.2.9.37,1.342.556a98.041,98.041,0,0,0,16.275,4.651c1.119.249.123.061-1.369-.22l-1.188-.223-1.214-.265c-.787-.173-1.5-.323-1.932-.4l2.473.586-.491-.02c.48.1.855.2,1.2.278l.985.24-1.152-.217-1.143-.258c-.762-.177-1.529-.333-2.286-.526l-2.27-.6c-.759-.191-1.5-.442-2.253-.66a78.442,78.442,0,0,1-8.825-3.24,73.455,73.455,0,0,1-8.377-4.3,61.269,61.269,0,0,1-7.667-5.481c.258.25.615.609,1.066.973s.965.774,1.491,1.186c.26.21.532.409.8.6l.79.558c.511.354.964.695,1.342.928a78.866,78.866,0,0,0,10.729,5.727c2.431,1.076,4.963,1.973,7.507,2.841l1.928.6.965.3.973.265,1.949.532,1.961.469c1.3.33,2.624.566,3.933.836.653.143,1.316.23,1.971.344s1.311.223,1.966.32c2.624.358,5.232.655,7.8.795l1.422.1.708.05.706.027,2.792.115c.569.017.7.04.516.062s-.682.045-1.383.049-1.588.008-2.545,0c-.956-.035-1.975-.09-2.934-.147M53.682,20.835a100.166,100.166,0,0,0-10.082,2l-1.766.517c-.587.175-1.18.335-1.76.537l-2.237.752c-.758.287-1.531.591-2.318.9a76.032,76.032,0,0,0-8.909,4.1c-.709.4-1.43.791-2.13,1.209L22.4,32.135l-2.024,1.377c-.667.47-1.309.974-1.966,1.459a63.763,63.763,0,0,1,8.578-5.406,82.037,82.037,0,0,1,10.459-4.6,74.762,74.762,0,0,0-13.89,6.71c-1.075.639-2.082,1.364-3.106,2.054-.505.355-.989.735-1.482,1.1l-.737.551c-.24.189-.472.387-.708.58l-1.408,1.165L14.769,38.35c-.457.4-.872.836-1.3,1.263l-.636.641-.316.321-.3.337-1.2,1.343c-.388.456-.748.932-1.124,1.4-.184.235-.377.464-.553.7l-.514.731-.515.731-.257.366c-.083.123-.157.252-.236.378l-.935,1.52c-.3.515-.562,1.047-.845,1.571-.134.264-.29.52-.407.793l-.363.814c-.237.544-.506,1.078-.693,1.643-.2.559-.413,1.117-.61,1.679L3.479,56.3l-.122.431-.091.438-.183.878-.183.879-.119.891-.117.893-.058.447c-.018.15-.019.3-.029.45q-.048.9-.1,1.807a32.225,32.225,0,0,0,.164,3.638,31.51,31.51,0,0,0,2.227,8.633,37.1,37.1,0,0,0,4.525,7.92l.991,1.291c.341.421.7.823,1.052,1.233.685.832,1.461,1.578,2.2,2.352.368.388.775.736,1.159,1.1s.769.737,1.178,1.075.812.684,1.217,1.023c.2.17.4.344.61.508l.63.481A50.2,50.2,0,0,1,11.3,85.782a39.393,39.393,0,0,1-5.37-8.223,32.32,32.32,0,0,1-2.889-9.287A29.777,29.777,0,0,1,3.2,58.613a32.243,32.243,0,0,1,3.134-9.127,39.237,39.237,0,0,1,5.518-7.965A56.02,56.02,0,0,1,27.268,29.637,76.038,76.038,0,0,1,36.243,25.6c1.533-.593,3.1-1.093,4.669-1.6l2.373-.688c.791-.232,1.6-.411,2.395-.62a95.442,95.442,0,0,1,19.638-2.67A100.1,100.1,0,0,1,85.2,21.339a94.675,94.675,0,0,1,9.76,2.191,85.938,85.938,0,0,1,9.447,3.315,87.013,87.013,0,0,0-24.84-6.469,100.466,100.466,0,0,0-12.885-.605,99.387,99.387,0,0,0-13,1.064M60,19.9l2.618-.213,2.616-.129c.87-.055,1.741-.049,2.61-.066s1.737-.036,2.6-.007a97.9,97.9,0,0,1,10.309.634,87.9,87.9,0,0,1,26.786,7.377,69.3,69.3,0,0,1,10.82,6.229,54.9,54.9,0,0,1,7.83,6.683,54.665,54.665,0,0,0-9.393-7.883,67.774,67.774,0,0,0-11.056-5.943,88.957,88.957,0,0,0-24.988-6.463c4.155.483,6.483.986,7.336,1.142s.222.038-1.611-.315c-.917-.172-2.145-.344-3.635-.583-1.5-.177-3.263-.423-5.273-.57a102.18,102.18,0,0,0-14.6-.146c-.514.035-1.616.143-2.975.252" transform="translate(-1.743 -18.356)" fill="#6f5a48"/>
              <path id="Tracé_46" data-name="Tracé 46" d="M11.192,85.048a50.245,50.245,0,0,0,8.191,8.1,64.828,64.828,0,0,0,9.748,6.334l-1.867-1.091c-.606-.372-1.2-.761-1.808-1.147S24.237,96.436,23.6,96l-.978-.672c-.331-.234-.66-.49-1.006-.746a60.231,60.231,0,0,1-5.509-4.527,50.969,50.969,0,0,1-4.994-5.39,40,40,0,0,1-4.007-6.191,30.981,30.981,0,0,1-2.581-6.744,30.409,30.409,0,0,1-.843-10.136,31.325,31.325,0,0,1,2.654-9.9,36.754,36.754,0,0,1,5.607-8.783,49.5,49.5,0,0,1,7.738-7.271A69.262,69.262,0,0,1,38.867,25.581a90.624,90.624,0,0,1,21.682-4.57c1.465-.123,4.711-.342,7.157-.394a97.717,97.717,0,0,0-13.97,1.163,86.416,86.416,0,0,0-13.454,3.2,77.551,77.551,0,0,0-12.57,5.31,61.312,61.312,0,0,0-11.086,7.626A43.222,43.222,0,0,0,8.071,48.026l-.428.706c-.14.237-.258.484-.388.727-.252.488-.514.972-.759,1.464-.434,1.006-.914,2-1.253,3.04-.4,1.021-.661,2.086-.965,3.139-.118.534-.221,1.071-.332,1.607-.049.269-.122.535-.152.807l-.1.813-.1.815-.052.408-.021.41L3.429,63.6c-.021.548.018,1.1.023,1.644l.021.823.081.818a29.461,29.461,0,0,0,1.3,6.462c.176.524.341,1.052.526,1.574l.629,1.538c.194.521.462,1.01.7,1.511s.471,1.009.762,1.485l.83,1.454c.292.477.611.938.914,1.408l.462.7.5.676c.338.449.665.906,1.012,1.349" transform="translate(-1.922 -18.651)" fill="#6f5a48"/>
              <path id="Tracé_47" data-name="Tracé 47" d="M124.19,32.526a63.382,63.382,0,0,1,6.591,4.525,50.518,50.518,0,0,1,5.651,5.306,48.014,48.014,0,0,0-5.623-5.427,60.251,60.251,0,0,0-6.763-4.708,71.783,71.783,0,0,0-9.756-4.794,82.951,82.951,0,0,0-10.329-3.36,78.405,78.405,0,0,1,20.228,8.458" transform="translate(-12.593 -19.1)" fill="#6f5a48"/>
              <path id="Tracé_48" data-name="Tracé 48" d="M75.339,20.589c.752,0,1.5-.025,2.257-.011l2.27.055c3.481.126,7,.4,10.523.884a97.083,97.083,0,0,1,10.535,2.075,93.712,93.712,0,0,0-11.171-2.274c-.944-.117-1.885-.262-2.833-.359l-2.848-.276L81.21,20.5c-.956-.063-1.916-.063-2.876-.1.006.049-.315.08-.851.1s-1.288.064-2.144.088" transform="translate(-9.555 -18.623)" fill="#6f5a48"/>
            </g>
          </g>
        </g>
        <path id="Tracé_49" data-name="Tracé 49" d="M120.339,70.576h0v0l0,0,0,0v0h0" transform="translate(-12.772 -9.198)" fill="#00667f"/>
        <path id="Tracé_50" data-name="Tracé 50" d="M119.677,77.791a6.479,6.479,0,0,1-5.585,3.141,6.54,6.54,0,0,0,11.169,0,6.479,6.479,0,0,1-5.584-3.141" transform="translate(-12.11 -10.138)" fill="#00667f"/>
        <path id="Tracé_51" data-name="Tracé 51" d="M119.677,62.424a6.479,6.479,0,0,1,5.587-3.141,6.539,6.539,0,0,0-11.173,0,6.479,6.479,0,0,1,5.587,3.141" transform="translate(-12.109 -7.317)" fill="#00667f"/>
        <path id="Tracé_52" data-name="Tracé 52" d="M120.34,70.575h0" transform="translate(-12.773 -9.198)" fill="#00667f"/>
        <path id="Tracé_53" data-name="Tracé 53" d="M126.587,66.029h0a6.482,6.482,0,0,1,5.586,3.138,6.117,6.117,0,0,0,.865-3.138,6.366,6.366,0,0,0-6.451-6.276h0a6.126,6.126,0,0,1,0,6.276" transform="translate(-13.436 -7.787)" fill="#00667f"/>
        <path id="Tracé_54" data-name="Tracé 54" d="M120.343,70.576h0" transform="translate(-12.773 -9.198)" fill="#00667f"/>
        <path id="Tracé_55" data-name="Tracé 55" d="M120.339,70.576h0Z" transform="translate(-12.772 -9.198)" fill="#00667f"/>
        <path id="Tracé_56" data-name="Tracé 56" d="M113.323,66.029h0a6.124,6.124,0,0,1,0-6.276h0a6.365,6.365,0,0,0-6.451,6.276,6.117,6.117,0,0,0,.865,3.138,6.481,6.481,0,0,1,5.586-3.138" transform="translate(-11.343 -7.787)" fill="#00667f"/>
        <path id="Tracé_57" data-name="Tracé 57" d="M120.237,63.365a6.122,6.122,0,0,0,0,6.269,6.122,6.122,0,0,0,0-6.269" transform="translate(-12.67 -8.258)" fill="#00667f"/>
        <path id="Tracé_58" data-name="Tracé 58" d="M126.591,73.716h0a6.121,6.121,0,0,1,0,6.276h0a6.365,6.365,0,0,0,6.451-6.276,6.117,6.117,0,0,0-.865-3.138,6.481,6.481,0,0,1-5.586,3.138" transform="translate(-13.436 -9.198)" fill="#00667f"/>
        <path id="Tracé_59" data-name="Tracé 59" d="M120.343,70.576v0a6.482,6.482,0,0,0,5.585,3.139,6.481,6.481,0,0,0-5.584-3.14" transform="translate(-12.773 -9.198)" fill="#00667f"/>
        <path id="Tracé_60" data-name="Tracé 60" d="M125.924,66.97a6.481,6.481,0,0,0-5.581,3.136,6.481,6.481,0,0,0,5.581-3.136" transform="translate(-12.773 -8.728)" fill="#00667f"/>
        <path id="Tracé_61" data-name="Tracé 61" d="M113.323,73.716h0a6.482,6.482,0,0,1-5.586-3.138,6.116,6.116,0,0,0-.864,3.138,6.365,6.365,0,0,0,6.45,6.276h0a6.121,6.121,0,0,1,0-6.276" transform="translate(-11.343 -9.198)" fill="#00667f"/>
        <path id="Tracé_62" data-name="Tracé 62" d="M114.089,73.715a6.48,6.48,0,0,0,5.585-3.138v0a6.482,6.482,0,0,0-5.584,3.14" transform="translate(-12.109 -9.198)" fill="#00667f"/>
        <path id="Tracé_63" data-name="Tracé 63" d="M114.092,66.97a6.481,6.481,0,0,0,5.581,3.136,6.481,6.481,0,0,0-5.581-3.136" transform="translate(-12.11 -8.728)" fill="#00667f"/>
        <path id="Tracé_64" data-name="Tracé 64" d="M120.237,76.851a6.122,6.122,0,0,0,0-6.269,6.122,6.122,0,0,0,0,6.269" transform="translate(-12.67 -9.199)" fill="#00667f"/>
        <g id="Composant_71_1" data-name="Composant 71 – 1">
          <rect id="Rectangle_10" data-name="Rectangle 10" width="213.04" height="206.334" fill="none"/>
        </g>
      </g>
    </g>
  </g>
</svg>
